{"glyphs":{"0":{"ha":833,"x_min":69,"x_max":764,"o":"m 625 694 l 625 833 l 208 833 l 208 972 l 625 972 l 625 833 l 764 833 l 764 139 l 625 139 l 625 556 l 486 556 l 486 694 l 625 694 m 208 0 l 208 139 l 69 139 l 69 833 l 208 833 l 208 417 l 347 417 l 347 278 l 208 278 l 208 139 l 625 139 l 625 0 l 208 0 m 347 417 l 347 556 l 486 556 l 486 417 l 347 417 z "},"1":{"ha":833,"x_min":69,"x_max":764,"o":"m 347 833 l 347 972 l 486 972 l 486 139 l 764 139 l 764 0 l 69 0 l 69 139 l 347 139 l 347 694 l 208 694 l 208 833 l 347 833 z "},"2":{"ha":833,"x_min":69,"x_max":764,"o":"m 625 556 l 625 833 l 208 833 l 208 972 l 625 972 l 625 833 l 764 833 l 764 556 l 625 556 m 69 694 l 69 833 l 208 833 l 208 694 l 69 694 m 347 417 l 347 556 l 625 556 l 625 417 l 347 417 m 208 278 l 208 417 l 347 417 l 347 278 l 208 278 m 69 0 l 69 278 l 208 278 l 208 139 l 625 139 l 625 278 l 764 278 l 764 0 l 69 0 z "},"3":{"ha":833,"x_min":69,"x_max":764,"o":"m 625 556 l 625 833 l 208 833 l 208 972 l 625 972 l 625 833 l 764 833 l 764 556 l 625 556 m 69 694 l 69 833 l 208 833 l 208 694 l 69 694 m 625 139 l 625 417 l 347 417 l 347 556 l 625 556 l 625 417 l 764 417 l 764 139 l 625 139 m 208 0 l 208 139 l 69 139 l 69 278 l 208 278 l 208 139 l 625 139 l 625 0 l 208 0 z "},"4":{"ha":833,"x_min":69,"x_max":764,"o":"m 486 833 l 486 972 l 764 972 l 764 0 l 625 0 l 625 278 l 69 278 l 69 556 l 208 556 l 208 417 l 625 417 l 625 833 l 486 833 m 347 694 l 347 833 l 486 833 l 486 694 l 347 694 m 208 556 l 208 694 l 347 694 l 347 556 l 208 556 z "},"5":{"ha":833,"x_min":69,"x_max":764,"o":"m 625 139 l 625 556 l 69 556 l 69 972 l 764 972 l 764 833 l 208 833 l 208 694 l 625 694 l 625 556 l 764 556 l 764 139 l 625 139 m 208 0 l 208 139 l 69 139 l 69 278 l 208 278 l 208 139 l 625 139 l 625 0 l 208 0 z "},"6":{"ha":833,"x_min":69,"x_max":764,"o":"m 347 833 l 347 972 l 625 972 l 625 833 l 347 833 m 208 694 l 208 833 l 347 833 l 347 694 l 208 694 m 208 0 l 208 139 l 69 139 l 69 694 l 208 694 l 208 556 l 625 556 l 625 417 l 764 417 l 764 139 l 625 139 l 625 417 l 208 417 l 208 139 l 625 139 l 625 0 l 208 0 z "},"7":{"ha":833,"x_min":69,"x_max":764,"o":"m 69 694 l 69 972 l 764 972 l 764 556 l 625 556 l 625 833 l 208 833 l 208 694 l 69 694 m 486 417 l 486 556 l 625 556 l 625 417 l 486 417 m 347 0 l 347 417 l 486 417 l 486 0 l 347 0 z "},"8":{"ha":833,"x_min":69,"x_max":764,"o":"m 625 556 l 625 833 l 208 833 l 208 972 l 625 972 l 625 833 l 764 833 l 764 556 l 625 556 m 208 417 l 208 556 l 69 556 l 69 833 l 208 833 l 208 556 l 625 556 l 625 417 l 764 417 l 764 139 l 625 139 l 625 417 l 208 417 m 208 0 l 208 139 l 69 139 l 69 417 l 208 417 l 208 139 l 625 139 l 625 0 l 208 0 z "},"9":{"ha":833,"x_min":69,"x_max":764,"o":"m 69 556 l 69 833 l 208 833 l 208 972 l 625 972 l 625 833 l 764 833 l 764 278 l 625 278 l 625 417 l 208 417 l 208 556 l 69 556 m 625 556 l 625 833 l 208 833 l 208 556 l 625 556 m 486 139 l 486 278 l 625 278 l 625 139 l 486 139 m 208 0 l 208 139 l 486 139 l 486 0 l 208 0 z "},"µ":{"ha":833,"x_min":69,"x_max":764,"o":"m 69 972 l 764 972 l 764 0 l 69 0 l 69 972 m 625 139 l 625 833 l 208 833 l 208 139 l 625 139 z "},"¹":{"ha":833,"x_min":69,"x_max":764,"o":"m 69 972 l 764 972 l 764 0 l 69 0 l 69 972 m 625 139 l 625 833 l 208 833 l 208 139 l 625 139 z "},"ˈ":{"ha":833,"x_min":69,"x_max":764,"o":"m 69 972 l 764 972 l 764 0 l 69 0 l 69 972 m 625 139 l 625 833 l 208 833 l 208 139 l 625 139 z "},"·":{"ha":833,"x_min":69,"x_max":764,"o":"m 69 972 l 764 972 l 764 0 l 69 0 l 69 972 m 625 139 l 625 833 l 208 833 l 208 139 l 625 139 z "},"΋":{"ha":833,"x_min":69,"x_max":764,"o":"m 69 972 l 764 972 l 764 0 l 69 0 l 69 972 m 625 139 l 625 833 l 208 833 l 208 139 l 625 139 z "},"Ḡ":{"ha":833,"x_min":69,"x_max":764,"o":"m 69 972 l 764 972 l 764 0 l 69 0 l 69 972 m 625 139 l 625 833 l 208 833 l 208 139 l 625 139 z "},"ḡ":{"ha":833,"x_min":69,"x_max":764,"o":"m 69 972 l 764 972 l 764 0 l 69 0 l 69 972 m 625 139 l 625 833 l 208 833 l 208 139 l 625 139 z "},"‖":{"ha":833,"x_min":69,"x_max":764,"o":"m 69 972 l 764 972 l 764 0 l 69 0 l 69 972 m 625 139 l 625 833 l 208 833 l 208 139 l 625 139 z "},"‗":{"ha":833,"x_min":69,"x_max":764,"o":"m 69 972 l 764 972 l 764 0 l 69 0 l 69 972 m 625 139 l 625 833 l 208 833 l 208 139 l 625 139 z "},"‛":{"ha":833,"x_min":69,"x_max":764,"o":"m 69 972 l 764 972 l 764 0 l 69 0 l 69 972 m 625 139 l 625 833 l 208 833 l 208 139 l 625 139 z "},"‟":{"ha":833,"x_min":69,"x_max":764,"o":"m 69 972 l 764 972 l 764 0 l 69 0 l 69 972 m 625 139 l 625 833 l 208 833 l 208 139 l 625 139 z "},"‣":{"ha":833,"x_min":69,"x_max":764,"o":"m 69 972 l 764 972 l 764 0 l 69 0 l 69 972 m 625 139 l 625 833 l 208 833 l 208 139 l 625 139 z "},"․":{"ha":833,"x_min":69,"x_max":764,"o":"m 69 972 l 764 972 l 764 0 l 69 0 l 69 972 m 625 139 l 625 833 l 208 833 l 208 139 l 625 139 z "},"‥":{"ha":833,"x_min":69,"x_max":764,"o":"m 69 972 l 764 972 l 764 0 l 69 0 l 69 972 m 625 139 l 625 833 l 208 833 l 208 139 l 625 139 z "},"℣":{"ha":833,"x_min":69,"x_max":764,"o":"m 69 972 l 764 972 l 764 0 l 69 0 l 69 972 m 625 139 l 625 833 l 208 833 l 208 139 l 625 139 z "},"ℤ":{"ha":833,"x_min":69,"x_max":764,"o":"m 69 972 l 764 972 l 764 0 l 69 0 l 69 972 m 625 139 l 625 833 l 208 833 l 208 139 l 625 139 z "},"℥":{"ha":833,"x_min":69,"x_max":764,"o":"m 69 972 l 764 972 l 764 0 l 69 0 l 69 972 m 625 139 l 625 833 l 208 833 l 208 139 l 625 139 z "},"∐":{"ha":833,"x_min":69,"x_max":764,"o":"m 69 972 l 764 972 l 764 0 l 69 0 l 69 972 m 625 139 l 625 833 l 208 833 l 208 139 l 625 139 z "},"\u0000":{"ha":0,"x_min":0,"x_max":0,"o":""},"\r":{"ha":0,"x_min":0,"x_max":0,"o":""}," ":{"ha":417,"x_min":0,"x_max":0,"o":""},"!":{"ha":278,"x_min":69,"x_max":208,"o":"m 69 278 l 69 972 l 208 972 l 208 278 l 69 278 m 69 0 l 69 139 l 208 139 l 208 0 l 69 0 z "},"\"":{"ha":556,"x_min":69,"x_max":486,"o":"m 69 694 l 69 972 l 208 972 l 208 694 l 69 694 m 347 694 l 347 972 l 486 972 l 486 694 l 347 694 z "},"#":{"ha":833,"x_min":69,"x_max":764,"o":"m 764 556 l 625 556 l 625 417 l 764 417 l 764 278 l 625 278 l 625 0 l 486 0 l 486 278 l 347 278 l 347 0 l 208 0 l 208 278 l 69 278 l 69 417 l 208 417 l 208 556 l 69 556 l 69 694 l 208 694 l 208 972 l 347 972 l 347 694 l 486 694 l 486 972 l 625 972 l 625 694 l 764 694 l 764 556 m 486 417 l 486 556 l 347 556 l 347 417 l 486 417 z "},"$":{"ha":833,"x_min":69,"x_max":764,"o":"m 347 833 l 347 972 l 486 972 l 486 833 l 764 833 l 764 694 l 208 694 l 208 833 l 347 833 m 208 417 l 208 556 l 69 556 l 69 694 l 208 694 l 208 556 l 625 556 l 625 417 l 764 417 l 764 278 l 625 278 l 625 417 l 208 417 m 69 139 l 69 278 l 625 278 l 625 139 l 486 139 l 486 0 l 347 0 l 347 139 l 69 139 z "},"%":{"ha":833,"x_min":69,"x_max":764,"o":"m 69 694 l 69 972 l 208 972 l 208 694 l 69 694 m 625 833 l 625 972 l 764 972 l 764 833 l 625 833 m 486 556 l 486 833 l 625 833 l 625 556 l 486 556 m 347 417 l 347 556 l 486 556 l 486 417 l 347 417 m 208 139 l 208 417 l 347 417 l 347 139 l 208 139 m 625 0 l 625 278 l 764 278 l 764 0 l 625 0 m 69 0 l 69 139 l 208 139 l 208 0 l 69 0 z "},"&":{"ha":833,"x_min":69,"x_max":764,"o":"m 486 694 l 486 833 l 347 833 l 347 972 l 486 972 l 486 833 l 625 833 l 625 694 l 486 694 m 347 556 l 347 694 l 208 694 l 208 833 l 347 833 l 347 694 l 486 694 l 486 417 l 625 417 l 625 139 l 764 139 l 764 0 l 625 0 l 625 139 l 486 139 l 486 417 l 208 417 l 208 556 l 347 556 m 625 417 l 625 556 l 764 556 l 764 417 l 625 417 m 208 0 l 208 139 l 69 139 l 69 417 l 208 417 l 208 139 l 486 139 l 486 0 l 208 0 z "},"'":{"ha":278,"x_min":69,"x_max":208,"o":"m 69 694 l 69 972 l 208 972 l 208 694 l 69 694 z "},"(":{"ha":694,"x_min":69,"x_max":486,"o":"m 347 833 l 347 972 l 486 972 l 486 833 l 347 833 m 208 694 l 208 833 l 347 833 l 347 694 l 208 694 m 208 139 l 208 278 l 69 278 l 69 694 l 208 694 l 208 278 l 347 278 l 347 139 l 486 139 l 486 0 l 347 0 l 347 139 l 208 139 z "},")":{"ha":694,"x_min":208,"x_max":625,"o":"m 347 694 l 347 833 l 208 833 l 208 972 l 347 972 l 347 833 l 486 833 l 486 694 l 625 694 l 625 278 l 486 278 l 486 694 l 347 694 m 347 139 l 347 278 l 486 278 l 486 139 l 347 139 m 208 0 l 208 139 l 347 139 l 347 0 l 208 0 z "},"*":{"ha":556,"x_min":69,"x_max":486,"o":"m 208 694 l 208 833 l 69 833 l 69 972 l 208 972 l 208 833 l 347 833 l 347 694 l 486 694 l 486 556 l 347 556 l 347 694 l 208 694 m 347 833 l 347 972 l 486 972 l 486 833 l 347 833 m 69 556 l 69 694 l 208 694 l 208 556 l 69 556 z "},"+":{"ha":833,"x_min":69,"x_max":764,"o":"m 347 556 l 347 833 l 486 833 l 486 556 l 764 556 l 764 417 l 486 417 l 486 139 l 347 139 l 347 417 l 69 417 l 69 556 l 347 556 z "},",":{"ha":278,"x_min":69,"x_max":208,"o":"m 69 -139 l 69 139 l 208 139 l 208 -139 l 69 -139 z "},"-":{"ha":556,"x_min":69,"x_max":486,"o":"m 69 417 l 69 556 l 486 556 l 486 417 l 69 417 z "},".":{"ha":278,"x_min":69,"x_max":208,"o":"m 69 0 l 69 139 l 208 139 l 208 0 l 69 0 z "},"/":{"ha":833,"x_min":69,"x_max":764,"o":"m 625 833 l 625 972 l 764 972 l 764 833 l 625 833 m 486 556 l 486 833 l 625 833 l 625 556 l 486 556 m 347 417 l 347 556 l 486 556 l 486 417 l 347 417 m 208 139 l 208 417 l 347 417 l 347 139 l 208 139 m 69 0 l 69 139 l 208 139 l 208 0 l 69 0 z "},":":{"ha":278,"x_min":69,"x_max":208,"o":"m 69 556 l 69 694 l 208 694 l 208 556 l 69 556 m 69 0 l 69 139 l 208 139 l 208 0 l 69 0 z "},";":{"ha":278,"x_min":69,"x_max":208,"o":"m 69 556 l 69 694 l 208 694 l 208 556 l 69 556 m 208 139 l 208 -139 l 69 -139 l 69 139 l 208 139 z "},"<":{"ha":694,"x_min":69,"x_max":625,"o":"m 486 833 l 486 972 l 625 972 l 625 833 l 486 833 m 347 694 l 347 833 l 486 833 l 486 694 l 347 694 m 208 556 l 208 694 l 347 694 l 347 556 l 208 556 m 208 278 l 208 417 l 69 417 l 69 556 l 208 556 l 208 417 l 347 417 l 347 278 l 486 278 l 486 139 l 625 139 l 625 0 l 486 0 l 486 139 l 347 139 l 347 278 l 208 278 z "},"=":{"ha":833,"x_min":69,"x_max":764,"o":"m 69 556 l 69 694 l 764 694 l 764 556 l 69 556 m 69 139 l 69 278 l 764 278 l 764 139 l 69 139 z "},">":{"ha":694,"x_min":69,"x_max":625,"o":"m 208 694 l 208 833 l 69 833 l 69 972 l 208 972 l 208 833 l 347 833 l 347 694 l 486 694 l 486 556 l 625 556 l 625 417 l 486 417 l 486 556 l 347 556 l 347 694 l 208 694 m 347 278 l 347 417 l 486 417 l 486 278 l 347 278 m 208 139 l 208 278 l 347 278 l 347 139 l 208 139 m 69 0 l 69 139 l 208 139 l 208 0 l 69 0 z "},"?":{"ha":833,"x_min":69,"x_max":764,"o":"m 625 556 l 625 833 l 208 833 l 208 972 l 625 972 l 625 833 l 764 833 l 764 556 l 625 556 m 69 694 l 69 833 l 208 833 l 208 694 l 69 694 m 486 417 l 486 556 l 625 556 l 625 417 l 486 417 m 347 278 l 347 417 l 486 417 l 486 278 l 347 278 m 347 0 l 347 139 l 486 139 l 486 0 l 347 0 z "},"@":{"ha":972,"x_min":69,"x_max":903,"o":"m 764 278 l 764 694 l 208 694 l 208 833 l 764 833 l 764 694 l 903 694 l 903 139 l 347 139 l 347 556 l 625 556 l 625 417 l 486 417 l 486 278 l 764 278 m 208 -139 l 208 0 l 69 0 l 69 694 l 208 694 l 208 0 l 764 0 l 764 -139 l 208 -139 z "},"A":{"ha":833,"x_min":69,"x_max":764,"o":"m 69 0 l 69 833 l 208 833 l 208 972 l 625 972 l 625 833 l 764 833 l 764 0 l 625 0 l 625 556 l 208 556 l 208 0 l 69 0 m 208 833 l 208 694 l 625 694 l 625 833 l 208 833 z "},"B":{"ha":833,"x_min":69,"x_max":764,"o":"m 625 139 l 625 556 l 208 556 l 208 139 l 625 139 l 625 0 l 69 0 l 69 972 l 625 972 l 625 833 l 764 833 l 764 694 l 625 694 l 625 833 l 208 833 l 208 694 l 625 694 l 625 556 l 764 556 l 764 139 l 625 139 z "},"C":{"ha":833,"x_min":69,"x_max":764,"o":"m 208 0 l 208 139 l 69 139 l 69 833 l 208 833 l 208 139 l 625 139 l 625 0 l 208 0 m 625 694 l 625 833 l 208 833 l 208 972 l 625 972 l 625 833 l 764 833 l 764 694 l 625 694 m 625 139 l 625 278 l 764 278 l 764 139 l 625 139 z "},"D":{"ha":833,"x_min":69,"x_max":764,"o":"m 625 139 l 625 833 l 208 833 l 208 139 l 625 139 l 625 0 l 69 0 l 69 972 l 625 972 l 625 833 l 764 833 l 764 139 l 625 139 z "},"E":{"ha":833,"x_min":69,"x_max":764,"o":"m 69 0 l 69 972 l 764 972 l 764 833 l 208 833 l 208 694 l 486 694 l 486 556 l 208 556 l 208 139 l 764 139 l 764 0 l 69 0 z "},"F":{"ha":833,"x_min":69,"x_max":764,"o":"m 69 0 l 69 972 l 764 972 l 764 833 l 208 833 l 208 694 l 486 694 l 486 556 l 208 556 l 208 0 l 69 0 z "},"G":{"ha":833,"x_min":69,"x_max":764,"o":"m 208 0 l 208 139 l 69 139 l 69 833 l 208 833 l 208 139 l 625 139 l 625 0 l 208 0 m 486 556 l 486 694 l 764 694 l 764 139 l 625 139 l 625 556 l 486 556 m 208 833 l 208 972 l 764 972 l 764 833 l 208 833 z "},"H":{"ha":833,"x_min":69,"x_max":764,"o":"m 69 0 l 69 972 l 208 972 l 208 694 l 625 694 l 625 972 l 764 972 l 764 0 l 625 0 l 625 556 l 208 556 l 208 0 l 69 0 z "},"I":{"ha":556,"x_min":69,"x_max":486,"o":"m 69 833 l 69 972 l 486 972 l 486 833 l 347 833 l 347 139 l 486 139 l 486 0 l 69 0 l 69 139 l 208 139 l 208 833 l 69 833 z "},"J":{"ha":833,"x_min":69,"x_max":764,"o":"m 625 139 l 625 972 l 764 972 l 764 139 l 625 139 m 208 0 l 208 139 l 69 139 l 69 278 l 208 278 l 208 139 l 625 139 l 625 0 l 208 0 z "},"K":{"ha":833,"x_min":69,"x_max":764,"o":"m 625 0 l 625 417 l 486 417 l 486 556 l 208 556 l 208 0 l 69 0 l 69 972 l 208 972 l 208 694 l 486 694 l 486 556 l 625 556 l 625 417 l 764 417 l 764 0 l 625 0 m 625 833 l 625 972 l 764 972 l 764 833 l 625 833 m 486 694 l 486 833 l 625 833 l 625 694 l 486 694 z "},"L":{"ha":833,"x_min":69,"x_max":764,"o":"m 69 0 l 69 972 l 208 972 l 208 139 l 764 139 l 764 0 l 69 0 z "},"M":{"ha":833,"x_min":69,"x_max":764,"o":"m 347 556 l 347 694 l 208 694 l 208 0 l 69 0 l 69 972 l 208 972 l 208 833 l 347 833 l 347 694 l 486 694 l 486 556 l 347 556 m 625 833 l 625 972 l 764 972 l 764 0 l 625 0 l 625 694 l 486 694 l 486 833 l 625 833 z "},"N":{"ha":833,"x_min":69,"x_max":764,"o":"m 347 556 l 347 694 l 208 694 l 208 0 l 69 0 l 69 972 l 208 972 l 208 833 l 347 833 l 347 694 l 486 694 l 486 556 l 625 556 l 625 972 l 764 972 l 764 0 l 625 0 l 625 417 l 486 417 l 486 556 l 347 556 z "},"O":{"ha":833,"x_min":69,"x_max":764,"o":"m 625 139 l 625 833 l 208 833 l 208 972 l 625 972 l 625 833 l 764 833 l 764 139 l 625 139 m 208 0 l 208 139 l 69 139 l 69 833 l 208 833 l 208 139 l 625 139 l 625 0 l 208 0 z "},"P":{"ha":833,"x_min":69,"x_max":764,"o":"m 625 694 l 625 556 l 208 556 l 208 0 l 69 0 l 69 972 l 625 972 l 625 833 l 764 833 l 764 694 l 625 694 l 625 833 l 208 833 l 208 694 l 625 694 z "},"Q":{"ha":833,"x_min":69,"x_max":764,"o":"m 625 278 l 625 833 l 208 833 l 208 972 l 625 972 l 625 833 l 764 833 l 764 278 l 625 278 m 208 0 l 208 139 l 69 139 l 69 833 l 208 833 l 208 139 l 486 139 l 486 0 l 208 0 m 625 0 l 625 139 l 486 139 l 486 278 l 625 278 l 625 139 l 764 139 l 764 0 l 625 0 z "},"R":{"ha":833,"x_min":69,"x_max":764,"o":"m 625 0 l 625 556 l 208 556 l 208 0 l 69 0 l 69 972 l 625 972 l 625 833 l 764 833 l 764 694 l 625 694 l 625 833 l 208 833 l 208 694 l 625 694 l 625 556 l 764 556 l 764 0 l 625 0 z "},"S":{"ha":833,"x_min":69,"x_max":764,"o":"m 208 556 l 208 694 l 69 694 l 69 833 l 208 833 l 208 694 l 625 694 l 625 556 l 764 556 l 764 139 l 625 139 l 625 556 l 208 556 m 208 0 l 208 139 l 69 139 l 69 278 l 208 278 l 208 139 l 625 139 l 625 0 l 208 0 m 208 833 l 208 972 l 764 972 l 764 833 l 208 833 z "},"T":{"ha":833,"x_min":69,"x_max":764,"o":"m 69 833 l 69 972 l 764 972 l 764 833 l 486 833 l 486 0 l 347 0 l 347 833 l 69 833 z "},"U":{"ha":833,"x_min":69,"x_max":764,"o":"m 208 0 l 208 139 l 69 139 l 69 972 l 208 972 l 208 139 l 625 139 l 625 0 l 208 0 m 625 139 l 625 972 l 764 972 l 764 139 l 625 139 z "},"V":{"ha":833,"x_min":69,"x_max":764,"o":"m 208 139 l 208 417 l 69 417 l 69 972 l 208 972 l 208 417 l 347 417 l 347 139 l 486 139 l 486 0 l 347 0 l 347 139 l 208 139 m 625 417 l 625 972 l 764 972 l 764 417 l 625 417 m 486 139 l 486 417 l 625 417 l 625 139 l 486 139 z "},"W":{"ha":833,"x_min":69,"x_max":764,"o":"m 347 278 l 347 417 l 486 417 l 486 278 l 625 278 l 625 972 l 764 972 l 764 0 l 625 0 l 625 139 l 486 139 l 486 278 l 347 278 m 69 0 l 69 972 l 208 972 l 208 278 l 347 278 l 347 139 l 208 139 l 208 0 l 69 0 z "},"X":{"ha":833,"x_min":69,"x_max":764,"o":"m 208 694 l 208 833 l 69 833 l 69 972 l 208 972 l 208 833 l 347 833 l 347 694 l 486 694 l 486 556 l 625 556 l 625 417 l 764 417 l 764 0 l 625 0 l 625 417 l 486 417 l 486 556 l 347 556 l 347 694 l 208 694 m 625 833 l 625 972 l 764 972 l 764 833 l 625 833 m 486 694 l 486 833 l 625 833 l 625 694 l 486 694 m 208 417 l 208 556 l 347 556 l 347 417 l 208 417 m 69 0 l 69 417 l 208 417 l 208 0 l 69 0 z "},"Y":{"ha":833,"x_min":69,"x_max":764,"o":"m 208 694 l 208 833 l 69 833 l 69 972 l 208 972 l 208 833 l 347 833 l 347 694 l 486 694 l 486 0 l 347 0 l 347 694 l 208 694 m 486 694 l 486 833 l 625 833 l 625 694 l 486 694 m 625 833 l 625 972 l 764 972 l 764 833 l 625 833 z "},"Z":{"ha":833,"x_min":69,"x_max":764,"o":"m 69 833 l 69 972 l 764 972 l 764 694 l 625 694 l 625 833 l 69 833 m 486 556 l 486 694 l 625 694 l 625 556 l 486 556 m 347 417 l 347 556 l 486 556 l 486 417 l 347 417 m 208 278 l 208 417 l 347 417 l 347 278 l 208 278 m 69 0 l 69 278 l 208 278 l 208 139 l 764 139 l 764 0 l 69 0 z "},"[":{"ha":556,"x_min":69,"x_max":486,"o":"m 69 0 l 69 972 l 486 972 l 486 833 l 208 833 l 208 139 l 486 139 l 486 0 l 69 0 z "},"\\":{"ha":833,"x_min":69,"x_max":764,"o":"m 208 556 l 208 833 l 69 833 l 69 972 l 208 972 l 208 833 l 347 833 l 347 556 l 486 556 l 486 417 l 625 417 l 625 139 l 764 139 l 764 0 l 625 0 l 625 139 l 486 139 l 486 417 l 347 417 l 347 556 l 208 556 z "},"]":{"ha":556,"x_min":69,"x_max":486,"o":"m 69 833 l 69 972 l 486 972 l 486 0 l 69 0 l 69 139 l 347 139 l 347 833 l 69 833 z "},"^":{"ha":833,"x_min":69,"x_max":764,"o":"m 486 694 l 486 833 l 347 833 l 347 972 l 486 972 l 486 833 l 625 833 l 625 694 l 764 694 l 764 556 l 625 556 l 625 694 l 486 694 m 208 694 l 208 833 l 347 833 l 347 694 l 208 694 m 69 556 l 69 694 l 208 694 l 208 556 l 69 556 z "},"_":{"ha":833,"x_min":69,"x_max":764,"o":"m 69 -139 l 69 0 l 764 0 l 764 -139 l 69 -139 z "},"`":{"ha":417,"x_min":69,"x_max":347,"o":"m 208 694 l 208 833 l 69 833 l 69 972 l 208 972 l 208 833 l 347 833 l 347 694 l 208 694 z "},"a":{"ha":833,"x_min":69,"x_max":764,"o":"m 625 417 l 625 556 l 208 556 l 208 694 l 625 694 l 625 556 l 764 556 l 764 0 l 208 0 l 208 139 l 69 139 l 69 278 l 208 278 l 208 139 l 625 139 l 625 278 l 208 278 l 208 417 l 625 417 z "},"b":{"ha":833,"x_min":69,"x_max":764,"o":"m 69 0 l 69 972 l 208 972 l 208 556 l 347 556 l 347 417 l 208 417 l 208 139 l 625 139 l 625 0 l 69 0 m 625 139 l 625 556 l 347 556 l 347 694 l 625 694 l 625 556 l 764 556 l 764 139 l 625 139 z "},"c":{"ha":833,"x_min":69,"x_max":764,"o":"m 208 0 l 208 139 l 69 139 l 69 556 l 208 556 l 208 139 l 625 139 l 625 0 l 208 0 m 625 417 l 625 556 l 208 556 l 208 694 l 625 694 l 625 556 l 764 556 l 764 417 l 625 417 m 625 139 l 625 278 l 764 278 l 764 139 l 625 139 z "},"d":{"ha":833,"x_min":69,"x_max":764,"o":"m 208 556 l 208 694 l 486 694 l 486 556 l 625 556 l 625 972 l 764 972 l 764 0 l 208 0 l 208 139 l 69 139 l 69 556 l 208 556 l 208 139 l 625 139 l 625 417 l 486 417 l 486 556 l 208 556 z "},"e":{"ha":833,"x_min":69,"x_max":764,"o":"m 69 139 l 69 556 l 208 556 l 208 694 l 625 694 l 625 556 l 764 556 l 764 278 l 208 278 l 208 139 l 764 139 l 764 0 l 208 0 l 208 139 l 69 139 m 208 556 l 208 417 l 625 417 l 625 556 l 208 556 z "},"f":{"ha":694,"x_min":69,"x_max":625,"o":"m 347 833 l 347 972 l 625 972 l 625 833 l 347 833 m 208 694 l 208 833 l 347 833 l 347 694 l 625 694 l 625 556 l 347 556 l 347 0 l 208 0 l 208 556 l 69 556 l 69 694 l 208 694 z "},"g":{"ha":833,"x_min":69,"x_max":764,"o":"m 69 278 l 69 556 l 208 556 l 208 694 l 764 694 l 764 0 l 625 0 l 625 139 l 208 139 l 208 278 l 69 278 m 208 556 l 208 278 l 625 278 l 625 556 l 208 556 m 69 -139 l 69 0 l 625 0 l 625 -139 l 69 -139 z "},"h":{"ha":833,"x_min":69,"x_max":764,"o":"m 69 0 l 69 972 l 208 972 l 208 556 l 347 556 l 347 417 l 208 417 l 208 0 l 69 0 m 625 0 l 625 556 l 347 556 l 347 694 l 625 694 l 625 556 l 764 556 l 764 0 l 625 0 z "},"i":{"ha":278,"x_min":69,"x_max":208,"o":"m 69 833 l 69 972 l 208 972 l 208 833 l 69 833 m 69 0 l 69 694 l 208 694 l 208 0 l 69 0 z "},"j":{"ha":556,"x_min":69,"x_max":486,"o":"m 347 833 l 347 972 l 486 972 l 486 833 l 347 833 m 347 0 l 347 694 l 486 694 l 486 0 l 347 0 m 347 -139 l 69 -139 l 69 0 l 347 0 l 347 -139 z "},"k":{"ha":694,"x_min":69,"x_max":625,"o":"m 347 139 l 347 278 l 208 278 l 208 0 l 69 0 l 69 972 l 208 972 l 208 417 l 347 417 l 347 278 l 486 278 l 486 139 l 625 139 l 625 0 l 486 0 l 486 139 l 347 139 m 347 417 l 347 556 l 486 556 l 486 417 l 347 417 m 486 556 l 486 694 l 625 694 l 625 556 l 486 556 z "},"l":{"ha":417,"x_min":69,"x_max":347,"o":"m 208 0 l 208 139 l 69 139 l 69 972 l 208 972 l 208 139 l 347 139 l 347 0 l 208 0 z "},"m":{"ha":833,"x_min":69,"x_max":764,"o":"m 347 278 l 347 556 l 208 556 l 208 0 l 69 0 l 69 694 l 347 694 l 347 556 l 486 556 l 486 278 l 347 278 m 625 0 l 625 556 l 486 556 l 486 694 l 625 694 l 625 556 l 764 556 l 764 0 l 625 0 z "},"n":{"ha":833,"x_min":69,"x_max":764,"o":"m 625 0 l 625 556 l 208 556 l 208 0 l 69 0 l 69 694 l 625 694 l 625 556 l 764 556 l 764 0 l 625 0 z "},"o":{"ha":833,"x_min":69,"x_max":764,"o":"m 625 139 l 625 556 l 208 556 l 208 694 l 625 694 l 625 556 l 764 556 l 764 139 l 625 139 m 208 0 l 208 139 l 69 139 l 69 556 l 208 556 l 208 139 l 625 139 l 625 0 l 208 0 z "},"p":{"ha":833,"x_min":69,"x_max":764,"o":"m 69 -139 l 69 694 l 208 694 l 208 556 l 347 556 l 347 417 l 208 417 l 208 278 l 625 278 l 625 139 l 208 139 l 208 -139 l 69 -139 m 625 278 l 625 556 l 347 556 l 347 694 l 625 694 l 625 556 l 764 556 l 764 278 l 625 278 z "},"q":{"ha":833,"x_min":69,"x_max":764,"o":"m 69 278 l 69 556 l 208 556 l 208 694 l 486 694 l 486 556 l 625 556 l 625 694 l 764 694 l 764 -139 l 625 -139 l 625 139 l 208 139 l 208 278 l 69 278 m 208 556 l 208 278 l 625 278 l 625 417 l 486 417 l 486 556 l 208 556 z "},"r":{"ha":833,"x_min":69,"x_max":764,"o":"m 69 0 l 69 694 l 208 694 l 208 556 l 347 556 l 347 417 l 208 417 l 208 0 l 69 0 m 625 417 l 625 556 l 347 556 l 347 694 l 625 694 l 625 556 l 764 556 l 764 417 l 625 417 z "},"s":{"ha":833,"x_min":69,"x_max":764,"o":"m 208 278 l 208 417 l 69 417 l 69 556 l 208 556 l 208 417 l 625 417 l 625 278 l 764 278 l 764 139 l 625 139 l 625 278 l 208 278 m 69 0 l 69 139 l 625 139 l 625 0 l 69 0 m 208 556 l 208 694 l 764 694 l 764 556 l 208 556 z "},"t":{"ha":556,"x_min":69,"x_max":486,"o":"m 347 0 l 347 139 l 208 139 l 208 556 l 69 556 l 69 694 l 208 694 l 208 972 l 347 972 l 347 694 l 486 694 l 486 556 l 347 556 l 347 139 l 486 139 l 486 0 l 347 0 z "},"u":{"ha":833,"x_min":69,"x_max":764,"o":"m 625 139 l 625 694 l 764 694 l 764 0 l 208 0 l 208 139 l 69 139 l 69 694 l 208 694 l 208 139 l 625 139 z "},"v":{"ha":833,"x_min":69,"x_max":764,"o":"m 208 139 l 208 278 l 69 278 l 69 694 l 208 694 l 208 278 l 347 278 l 347 139 l 486 139 l 486 0 l 347 0 l 347 139 l 208 139 m 625 278 l 625 694 l 764 694 l 764 278 l 625 278 m 486 139 l 486 278 l 625 278 l 625 139 l 486 139 z "},"w":{"ha":833,"x_min":69,"x_max":764,"o":"m 625 139 l 625 694 l 764 694 l 764 0 l 208 0 l 208 139 l 69 139 l 69 694 l 208 694 l 208 139 l 347 139 l 347 417 l 486 417 l 486 139 l 625 139 z "},"x":{"ha":833,"x_min":69,"x_max":764,"o":"m 208 417 l 208 556 l 69 556 l 69 694 l 208 694 l 208 556 l 347 556 l 347 417 l 486 417 l 486 278 l 625 278 l 625 139 l 764 139 l 764 0 l 625 0 l 625 139 l 486 139 l 486 278 l 347 278 l 347 417 l 208 417 m 625 556 l 625 694 l 764 694 l 764 556 l 625 556 m 486 417 l 486 556 l 625 556 l 625 417 l 486 417 m 208 139 l 208 278 l 347 278 l 347 139 l 208 139 m 69 0 l 69 139 l 208 139 l 208 0 l 69 0 z "},"y":{"ha":833,"x_min":69,"x_max":764,"o":"m 625 278 l 625 694 l 764 694 l 764 0 l 625 0 l 625 139 l 208 139 l 208 278 l 69 278 l 69 694 l 208 694 l 208 278 l 625 278 m 625 -139 l 69 -139 l 69 0 l 625 0 l 625 -139 z "},"z":{"ha":833,"x_min":69,"x_max":764,"o":"m 69 556 l 69 694 l 764 694 l 764 556 l 625 556 l 625 417 l 486 417 l 486 556 l 69 556 m 347 278 l 347 417 l 486 417 l 486 278 l 347 278 m 208 139 l 208 278 l 347 278 l 347 139 l 764 139 l 764 0 l 69 0 l 69 139 l 208 139 z "},"{":{"ha":694,"x_min":69,"x_max":486,"o":"m 347 833 l 347 972 l 486 972 l 486 833 l 347 833 m 208 556 l 208 833 l 347 833 l 347 556 l 208 556 m 208 139 l 208 417 l 69 417 l 69 556 l 208 556 l 208 417 l 347 417 l 347 139 l 486 139 l 486 0 l 347 0 l 347 139 l 208 139 z "},"|":{"ha":278,"x_min":69,"x_max":208,"o":"m 69 -139 l 69 1111 l 208 1111 l 208 -139 l 69 -139 z "},"}":{"ha":694,"x_min":208,"x_max":625,"o":"m 347 556 l 347 833 l 208 833 l 208 972 l 347 972 l 347 833 l 486 833 l 486 556 l 625 556 l 625 417 l 486 417 l 486 556 l 347 556 m 347 139 l 347 417 l 486 417 l 486 139 l 347 139 m 208 0 l 208 139 l 347 139 l 347 0 l 208 0 z "},"~":{"ha":972,"x_min":69,"x_max":903,"o":"m 486 694 l 486 833 l 208 833 l 208 972 l 486 972 l 486 833 l 764 833 l 764 694 l 486 694 m 764 833 l 764 972 l 903 972 l 903 833 l 764 833 m 69 694 l 69 833 l 208 833 l 208 694 l 69 694 z "}," ":{"ha":417,"x_min":0,"x_max":0,"o":""},"¡":{"ha":278,"x_min":69,"x_max":208,"o":"m 69 694 l 69 833 l 208 833 l 208 694 l 69 694 m 69 -139 l 69 556 l 208 556 l 208 -139 l 69 -139 z "},"¢":{"ha":833,"x_min":69,"x_max":764,"o":"m 208 556 l 208 694 l 347 694 l 347 833 l 486 833 l 486 694 l 625 694 l 625 556 l 764 556 l 764 417 l 625 417 l 625 556 l 208 556 m 625 139 l 625 0 l 486 0 l 486 -139 l 347 -139 l 347 0 l 208 0 l 208 139 l 69 139 l 69 556 l 208 556 l 208 139 l 625 139 m 625 139 l 625 278 l 764 278 l 764 139 l 625 139 z "},"£":{"ha":833,"x_min":69,"x_max":764,"o":"m 625 694 l 625 833 l 347 833 l 347 972 l 625 972 l 625 833 l 764 833 l 764 694 l 625 694 m 208 556 l 208 833 l 347 833 l 347 556 l 625 556 l 625 417 l 347 417 l 347 139 l 764 139 l 764 0 l 69 0 l 69 139 l 208 139 l 208 417 l 69 417 l 69 556 l 208 556 z "},"¥":{"ha":833,"x_min":69,"x_max":764,"o":"m 208 694 l 208 833 l 69 833 l 69 972 l 208 972 l 208 833 l 347 833 l 347 694 l 486 694 l 486 556 l 625 556 l 625 417 l 486 417 l 486 278 l 625 278 l 625 139 l 486 139 l 486 0 l 347 0 l 347 139 l 208 139 l 208 278 l 347 278 l 347 417 l 208 417 l 208 556 l 347 556 l 347 694 l 208 694 m 625 833 l 625 972 l 764 972 l 764 833 l 625 833 m 486 694 l 486 833 l 625 833 l 625 694 l 486 694 z "},"¦":{"ha":278,"x_min":69,"x_max":208,"o":"m 208 1111 l 208 625 l 69 625 l 69 1111 l 208 1111 m 69 -139 l 69 347 l 208 347 l 208 -139 l 69 -139 z "},"§":{"ha":833,"x_min":69,"x_max":764,"o":"m 208 833 l 208 972 l 764 972 l 764 833 l 208 833 m 208 556 l 208 694 l 69 694 l 69 833 l 208 833 l 208 694 l 625 694 l 625 556 l 764 556 l 764 417 l 625 417 l 625 556 l 208 556 m 69 417 l 69 556 l 208 556 l 208 417 l 625 417 l 625 278 l 764 278 l 764 139 l 625 139 l 625 278 l 208 278 l 208 417 l 69 417 m 69 0 l 69 139 l 625 139 l 625 0 l 69 0 z "},"¨":{"ha":556,"x_min":69,"x_max":486,"o":"m 486 972 l 486 833 l 347 833 l 347 972 l 486 972 m 208 972 l 208 833 l 69 833 l 69 972 l 208 972 z "},"©":{"ha":1111,"x_min":69,"x_max":1042,"o":"m 903 139 l 903 833 l 208 833 l 208 972 l 903 972 l 903 833 l 1042 833 l 1042 139 l 903 139 m 208 0 l 208 139 l 69 139 l 69 833 l 208 833 l 208 139 l 903 139 l 903 0 l 208 0 m 486 556 l 486 694 l 764 694 l 764 556 l 486 556 m 486 278 l 486 417 l 347 417 l 347 556 l 486 556 l 486 417 l 764 417 l 764 278 l 486 278 z "},"ª":{"ha":556,"x_min":69,"x_max":486,"o":"m 347 694 l 347 833 l 69 833 l 69 972 l 347 972 l 347 833 l 486 833 l 486 417 l 347 417 l 347 556 l 208 556 l 208 417 l 69 417 l 69 694 l 347 694 m 69 139 l 69 278 l 486 278 l 486 139 l 69 139 z "},"«":{"ha":972,"x_min":69,"x_max":903,"o":"m 486 694 l 486 556 l 347 556 l 347 694 l 486 694 m 764 556 l 764 694 l 903 694 l 903 556 l 764 556 m 625 417 l 625 556 l 764 556 l 764 417 l 625 417 m 347 556 l 347 417 l 208 417 l 208 556 l 347 556 m 347 278 l 347 139 l 486 139 l 486 0 l 347 0 l 347 139 l 208 139 l 208 278 l 69 278 l 69 417 l 208 417 l 208 278 l 347 278 m 764 278 l 764 139 l 903 139 l 903 0 l 764 0 l 764 139 l 625 139 l 625 278 l 486 278 l 486 417 l 625 417 l 625 278 l 764 278 z "},"¬":{"ha":833,"x_min":69,"x_max":764,"o":"m 764 556 l 764 139 l 625 139 l 625 417 l 69 417 l 69 556 l 764 556 z "},"­":{"ha":556,"x_min":69,"x_max":486,"o":"m 69 417 l 69 556 l 486 556 l 486 417 l 69 417 z "},"®":{"ha":1111,"x_min":69,"x_max":1042,"o":"m 625 417 l 625 556 l 486 556 l 486 417 l 347 417 l 347 972 l 208 972 l 208 1111 l 347 1111 l 347 972 l 625 972 l 625 833 l 764 833 l 764 694 l 625 694 l 625 833 l 486 833 l 486 694 l 625 694 l 625 556 l 764 556 l 764 417 l 903 417 l 903 278 l 764 278 l 764 417 l 625 417 m 1042 972 l 1042 417 l 903 417 l 903 972 l 764 972 l 764 1111 l 903 1111 l 903 972 l 1042 972 m 208 278 l 208 417 l 69 417 l 69 972 l 208 972 l 208 417 l 347 417 l 347 278 l 208 278 z "},"¯":{"ha":556,"x_min":69,"x_max":486,"o":"m 69 833 l 69 972 l 486 972 l 486 833 l 69 833 z "},"°":{"ha":694,"x_min":69,"x_max":625,"o":"m 486 556 l 486 833 l 208 833 l 208 972 l 486 972 l 486 833 l 625 833 l 625 556 l 486 556 m 208 417 l 208 556 l 69 556 l 69 833 l 208 833 l 208 556 l 486 556 l 486 417 l 208 417 z "},"±":{"ha":833,"x_min":69,"x_max":764,"o":"m 69 0 l 69 139 l 347 139 l 347 417 l 69 417 l 69 556 l 347 556 l 347 833 l 486 833 l 486 556 l 764 556 l 764 417 l 486 417 l 486 139 l 764 139 l 764 0 l 69 0 z "},"´":{"ha":417,"x_min":69,"x_max":347,"o":"m 347 972 l 347 833 l 208 833 l 208 972 l 347 972 m 208 833 l 208 694 l 69 694 l 69 833 l 208 833 z "},"¶":{"ha":833,"x_min":69,"x_max":764,"o":"m 208 833 l 208 972 l 764 972 l 764 -139 l 625 -139 l 625 556 l 486 556 l 486 -139 l 347 -139 l 347 556 l 208 556 l 208 694 l 69 694 l 69 833 l 208 833 m 625 694 l 625 833 l 486 833 l 486 694 l 625 694 z "},"·":{"ha":278,"x_min":69,"x_max":208,"o":"m 69 417 l 69 556 l 208 556 l 208 417 l 69 417 z "},"¸":{"ha":417,"x_min":139,"x_max":278,"o":"m 278 0 l 278 -139 l 139 -139 l 139 0 l 278 0 z "},"º":{"ha":556,"x_min":69,"x_max":486,"o":"m 347 556 l 347 833 l 208 833 l 208 972 l 347 972 l 347 833 l 486 833 l 486 556 l 347 556 m 208 417 l 208 556 l 69 556 l 69 833 l 208 833 l 208 556 l 347 556 l 347 417 l 208 417 m 69 139 l 69 278 l 486 278 l 486 139 l 69 139 z "},"»":{"ha":972,"x_min":69,"x_max":903,"o":"m 208 556 l 347 556 l 347 417 l 486 417 l 486 278 l 347 278 l 347 417 l 208 417 l 208 556 l 69 556 l 69 694 l 208 694 l 208 556 m 625 556 l 764 556 l 764 417 l 903 417 l 903 278 l 764 278 l 764 417 l 625 417 l 625 556 l 486 556 l 486 694 l 625 694 l 625 556 m 625 278 l 764 278 l 764 139 l 625 139 l 625 278 m 208 278 l 347 278 l 347 139 l 208 139 l 208 278 m 69 139 l 208 139 l 208 0 l 69 0 l 69 139 m 486 139 l 625 139 l 625 0 l 486 0 l 486 139 z "},"¿":{"ha":833,"x_min":69,"x_max":764,"o":"m 486 833 l 486 694 l 347 694 l 347 833 l 486 833 m 486 556 l 486 417 l 347 417 l 347 556 l 486 556 m 208 278 l 208 417 l 347 417 l 347 278 l 208 278 m 69 0 l 69 278 l 208 278 l 208 0 l 625 0 l 625 -139 l 208 -139 l 208 0 l 69 0 m 764 139 l 764 0 l 625 0 l 625 139 l 764 139 z "},"À":{"ha":833,"x_min":69,"x_max":764,"o":"m 69 0 l 69 833 l 208 833 l 208 972 l 347 972 l 347 1111 l 208 1111 l 208 1250 l 347 1250 l 347 1111 l 486 1111 l 486 972 l 625 972 l 625 833 l 764 833 l 764 0 l 625 0 l 625 556 l 208 556 l 208 0 l 69 0 m 208 833 l 208 694 l 625 694 l 625 833 l 208 833 z "},"Á":{"ha":833,"x_min":69,"x_max":764,"o":"m 625 1250 l 625 1111 l 486 1111 l 486 1250 l 625 1250 m 69 0 l 69 833 l 208 833 l 208 972 l 347 972 l 347 1111 l 486 1111 l 486 972 l 625 972 l 625 833 l 764 833 l 764 0 l 625 0 l 625 556 l 208 556 l 208 0 l 69 0 m 208 833 l 208 694 l 625 694 l 625 833 l 208 833 z "},"Â":{"ha":833,"x_min":69,"x_max":764,"o":"m 69 0 l 69 833 l 208 833 l 208 1111 l 347 1111 l 347 972 l 486 972 l 486 1111 l 347 1111 l 347 1250 l 486 1250 l 486 1111 l 625 1111 l 625 833 l 764 833 l 764 0 l 625 0 l 625 556 l 208 556 l 208 0 l 69 0 m 208 833 l 208 694 l 625 694 l 625 833 l 208 833 z "},"Ã":{"ha":833,"x_min":69,"x_max":764,"o":"m 69 0 l 69 833 l 208 833 l 208 972 l 69 972 l 69 1111 l 208 1111 l 208 972 l 347 972 l 347 1111 l 208 1111 l 208 1250 l 347 1250 l 347 1111 l 486 1111 l 486 972 l 625 972 l 625 833 l 764 833 l 764 0 l 625 0 l 625 556 l 208 556 l 208 0 l 69 0 m 625 1250 l 625 1111 l 486 1111 l 486 1250 l 625 1250 m 208 833 l 208 694 l 625 694 l 625 833 l 208 833 z "},"Ä":{"ha":833,"x_min":69,"x_max":764,"o":"m 625 1250 l 625 1111 l 486 1111 l 486 1250 l 625 1250 m 347 1250 l 347 1111 l 208 1111 l 208 1250 l 347 1250 m 69 0 l 69 833 l 208 833 l 208 972 l 625 972 l 625 833 l 764 833 l 764 0 l 625 0 l 625 556 l 208 556 l 208 0 l 69 0 m 208 833 l 208 694 l 625 694 l 625 833 l 208 833 z "},"Å":{"ha":833,"x_min":69,"x_max":764,"o":"m 69 0 l 69 833 l 208 833 l 208 694 l 625 694 l 625 833 l 208 833 l 208 972 l 139 972 l 139 1111 l 278 1111 l 278 972 l 556 972 l 556 1111 l 278 1111 l 278 1250 l 556 1250 l 556 1111 l 694 1111 l 694 972 l 625 972 l 625 833 l 764 833 l 764 0 l 625 0 l 625 556 l 208 556 l 208 0 l 69 0 z "},"Æ":{"ha":1111,"x_min":69,"x_max":1042,"o":"m 69 0 l 69 833 l 208 833 l 208 694 l 486 694 l 486 833 l 208 833 l 208 972 l 1042 972 l 1042 833 l 625 833 l 625 694 l 903 694 l 903 556 l 625 556 l 625 139 l 1042 139 l 1042 0 l 486 0 l 486 556 l 208 556 l 208 0 l 69 0 z "},"Ç":{"ha":833,"x_min":69,"x_max":764,"o":"m 625 694 l 625 833 l 208 833 l 208 972 l 625 972 l 625 833 l 764 833 l 764 694 l 625 694 m 208 0 l 208 139 l 69 139 l 69 833 l 208 833 l 208 139 l 625 139 l 625 0 l 486 0 l 486 -139 l 347 -139 l 347 0 l 208 0 m 625 139 l 625 278 l 764 278 l 764 139 l 625 139 z "},"È":{"ha":833,"x_min":69,"x_max":764,"o":"m 69 0 l 69 972 l 417 972 l 417 1111 l 278 1111 l 278 1250 l 417 1250 l 417 1111 l 556 1111 l 556 972 l 764 972 l 764 833 l 208 833 l 208 694 l 486 694 l 486 556 l 208 556 l 208 139 l 764 139 l 764 0 l 69 0 z "},"É":{"ha":833,"x_min":69,"x_max":764,"o":"m 625 1250 l 625 1111 l 486 1111 l 486 1250 l 625 1250 m 69 0 l 69 972 l 347 972 l 347 1111 l 486 1111 l 486 972 l 764 972 l 764 833 l 208 833 l 208 694 l 486 694 l 486 556 l 208 556 l 208 139 l 764 139 l 764 0 l 69 0 z "},"Ê":{"ha":833,"x_min":69,"x_max":764,"o":"m 69 0 l 69 972 l 208 972 l 208 1111 l 347 1111 l 347 972 l 486 972 l 486 1111 l 347 1111 l 347 1250 l 486 1250 l 486 1111 l 625 1111 l 625 972 l 764 972 l 764 833 l 208 833 l 208 694 l 486 694 l 486 556 l 208 556 l 208 139 l 764 139 l 764 0 l 69 0 z "},"Ë":{"ha":833,"x_min":69,"x_max":764,"o":"m 625 1250 l 625 1111 l 486 1111 l 486 1250 l 625 1250 m 347 1250 l 347 1111 l 208 1111 l 208 1250 l 347 1250 m 69 0 l 69 972 l 764 972 l 764 833 l 208 833 l 208 694 l 486 694 l 486 556 l 208 556 l 208 139 l 764 139 l 764 0 l 69 0 z "},"Ì":{"ha":556,"x_min":69,"x_max":486,"o":"m 69 1111 l 69 1250 l 208 1250 l 208 1111 l 347 1111 l 347 972 l 486 972 l 486 833 l 347 833 l 347 139 l 486 139 l 486 0 l 69 0 l 69 139 l 208 139 l 208 833 l 69 833 l 69 972 l 208 972 l 208 1111 l 69 1111 z "},"Í":{"ha":556,"x_min":69,"x_max":486,"o":"m 347 1111 l 347 1250 l 486 1250 l 486 1111 l 347 1111 m 69 0 l 69 139 l 208 139 l 208 833 l 69 833 l 69 972 l 208 972 l 208 1111 l 347 1111 l 347 972 l 486 972 l 486 833 l 347 833 l 347 139 l 486 139 l 486 0 l 69 0 z "},"Î":{"ha":556,"x_min":69,"x_max":486,"o":"m 486 1111 l 486 833 l 347 833 l 347 139 l 486 139 l 486 0 l 69 0 l 69 139 l 208 139 l 208 833 l 69 833 l 69 1111 l 208 1111 l 208 972 l 347 972 l 347 1111 l 208 1111 l 208 1250 l 347 1250 l 347 1111 l 486 1111 z "},"Ï":{"ha":556,"x_min":69,"x_max":486,"o":"m 486 1250 l 486 1111 l 347 1111 l 347 1250 l 486 1250 m 208 1250 l 208 1111 l 69 1111 l 69 1250 l 208 1250 m 69 833 l 69 972 l 486 972 l 486 833 l 347 833 l 347 139 l 486 139 l 486 0 l 69 0 l 69 139 l 208 139 l 208 833 l 69 833 z "},"Ð":{"ha":903,"x_min":0,"x_max":833,"o":"m 694 139 l 694 0 l 139 0 l 139 417 l 0 417 l 0 556 l 139 556 l 139 972 l 694 972 l 694 833 l 833 833 l 833 139 l 694 139 l 694 833 l 278 833 l 278 556 l 417 556 l 417 417 l 278 417 l 278 139 l 694 139 z "},"Ñ":{"ha":833,"x_min":69,"x_max":764,"o":"m 347 556 l 347 694 l 208 694 l 208 0 l 69 0 l 69 972 l 208 972 l 208 833 l 347 833 l 347 694 l 486 694 l 486 556 l 625 556 l 625 972 l 486 972 l 486 1111 l 347 1111 l 347 1250 l 486 1250 l 486 1111 l 625 1111 l 625 972 l 764 972 l 764 0 l 625 0 l 625 417 l 486 417 l 486 556 l 347 556 m 764 1250 l 764 1111 l 625 1111 l 625 1250 l 764 1250 m 347 1111 l 347 972 l 208 972 l 208 1111 l 347 1111 z "},"Ò":{"ha":833,"x_min":69,"x_max":764,"o":"m 625 139 l 625 833 l 208 833 l 208 972 l 347 972 l 347 1111 l 208 1111 l 208 1250 l 347 1250 l 347 1111 l 486 1111 l 486 972 l 625 972 l 625 833 l 764 833 l 764 139 l 625 139 m 69 139 l 69 833 l 208 833 l 208 139 l 625 139 l 625 0 l 208 0 l 208 139 l 69 139 z "},"Ó":{"ha":833,"x_min":69,"x_max":764,"o":"m 625 1250 l 625 1111 l 486 1111 l 486 1250 l 625 1250 m 625 139 l 625 833 l 208 833 l 208 972 l 347 972 l 347 1111 l 486 1111 l 486 972 l 625 972 l 625 833 l 764 833 l 764 139 l 625 139 m 69 139 l 69 833 l 208 833 l 208 139 l 625 139 l 625 0 l 208 0 l 208 139 l 69 139 z "},"Ô":{"ha":833,"x_min":69,"x_max":764,"o":"m 625 139 l 625 833 l 208 833 l 208 1111 l 347 1111 l 347 972 l 486 972 l 486 1111 l 347 1111 l 347 1250 l 486 1250 l 486 1111 l 625 1111 l 625 833 l 764 833 l 764 139 l 625 139 m 208 0 l 208 139 l 69 139 l 69 833 l 208 833 l 208 139 l 625 139 l 625 0 l 208 0 z "},"Õ":{"ha":833,"x_min":69,"x_max":764,"o":"m 625 139 l 625 972 l 208 972 l 208 1250 l 347 1250 l 347 1111 l 486 1111 l 486 1250 l 347 1250 l 347 1389 l 486 1389 l 486 1250 l 625 1250 l 625 972 l 764 972 l 764 139 l 625 139 m 764 1389 l 764 1250 l 625 1250 l 625 1389 l 764 1389 m 208 0 l 208 139 l 69 139 l 69 972 l 208 972 l 208 139 l 625 139 l 625 0 l 208 0 z "},"Ö":{"ha":833,"x_min":69,"x_max":764,"o":"m 625 1250 l 625 1111 l 486 1111 l 486 1250 l 625 1250 m 347 1250 l 347 1111 l 208 1111 l 208 1250 l 347 1250 m 625 139 l 625 833 l 208 833 l 208 972 l 625 972 l 625 833 l 764 833 l 764 139 l 625 139 m 208 0 l 208 139 l 69 139 l 69 833 l 208 833 l 208 139 l 625 139 l 625 0 l 208 0 z "},"×":{"ha":833,"x_min":69,"x_max":764,"o":"m 208 556 l 208 694 l 69 694 l 69 833 l 208 833 l 208 694 l 347 694 l 347 556 l 486 556 l 486 417 l 625 417 l 625 278 l 764 278 l 764 139 l 625 139 l 625 278 l 486 278 l 486 417 l 347 417 l 347 556 l 208 556 m 625 694 l 625 833 l 764 833 l 764 694 l 625 694 m 486 556 l 486 694 l 625 694 l 625 556 l 486 556 m 208 278 l 208 417 l 347 417 l 347 278 l 208 278 m 69 139 l 69 278 l 208 278 l 208 139 l 69 139 z "},"Ø":{"ha":833,"x_min":69,"x_max":764,"o":"m 208 833 l 208 972 l 625 972 l 625 833 l 764 833 l 764 139 l 625 139 l 625 556 l 486 556 l 486 833 l 208 833 m 208 833 l 208 417 l 347 417 l 347 139 l 625 139 l 625 0 l 208 0 l 208 139 l 69 139 l 69 833 l 208 833 m 347 417 l 347 556 l 486 556 l 486 417 l 347 417 z "},"Ù":{"ha":833,"x_min":69,"x_max":764,"o":"m 347 972 l 347 1111 l 208 1111 l 208 1250 l 347 1250 l 347 1111 l 486 1111 l 486 972 l 347 972 m 208 0 l 208 139 l 69 139 l 69 972 l 208 972 l 208 139 l 625 139 l 625 0 l 208 0 m 625 139 l 625 972 l 764 972 l 764 139 l 625 139 z "},"Ú":{"ha":833,"x_min":69,"x_max":764,"o":"m 625 1250 l 625 1111 l 486 1111 l 486 1250 l 625 1250 m 486 1111 l 486 972 l 347 972 l 347 1111 l 486 1111 m 208 0 l 208 139 l 69 139 l 69 972 l 208 972 l 208 139 l 625 139 l 625 0 l 208 0 m 625 139 l 625 972 l 764 972 l 764 139 l 625 139 z "},"Û":{"ha":833,"x_min":69,"x_max":764,"o":"m 625 1111 l 625 972 l 764 972 l 764 139 l 625 139 l 625 972 l 486 972 l 486 1111 l 347 1111 l 347 1250 l 486 1250 l 486 1111 l 625 1111 m 347 1111 l 347 972 l 208 972 l 208 1111 l 347 1111 m 208 0 l 208 139 l 69 139 l 69 972 l 208 972 l 208 139 l 625 139 l 625 0 l 208 0 z "},"Ü":{"ha":833,"x_min":69,"x_max":764,"o":"m 625 1250 l 625 1111 l 486 1111 l 486 1250 l 625 1250 m 347 1250 l 347 1111 l 208 1111 l 208 1250 l 347 1250 m 208 0 l 208 139 l 69 139 l 69 972 l 208 972 l 208 139 l 625 139 l 625 0 l 208 0 m 625 139 l 625 972 l 764 972 l 764 139 l 625 139 z "},"Ý":{"ha":833,"x_min":69,"x_max":764,"o":"m 208 694 l 208 833 l 69 833 l 69 972 l 208 972 l 208 833 l 347 833 l 347 694 l 486 694 l 486 0 l 347 0 l 347 694 l 208 694 m 486 694 l 486 833 l 625 833 l 625 694 l 486 694 m 625 833 l 625 972 l 764 972 l 764 833 l 625 833 m 625 1250 l 625 1111 l 486 1111 l 486 1250 l 625 1250 m 486 1111 l 486 972 l 347 972 l 347 1111 l 486 1111 z "},"Þ":{"ha":833,"x_min":69,"x_max":764,"o":"m 625 278 l 208 278 l 208 0 l 69 0 l 69 972 l 208 972 l 208 694 l 625 694 l 625 556 l 764 556 l 764 417 l 625 417 l 625 556 l 208 556 l 208 417 l 625 417 l 625 278 z "},"ß":{"ha":694,"x_min":69,"x_max":625,"o":"m 208 833 l 208 972 l 486 972 l 486 833 l 625 833 l 625 556 l 486 556 l 486 833 l 208 833 m 69 0 l 69 833 l 208 833 l 208 556 l 486 556 l 486 417 l 625 417 l 625 139 l 486 139 l 486 417 l 208 417 l 208 0 l 69 0 m 347 0 l 347 139 l 486 139 l 486 0 l 347 0 z "},"à":{"ha":833,"x_min":69,"x_max":764,"o":"m 625 417 l 625 556 l 208 556 l 208 694 l 347 694 l 347 833 l 208 833 l 208 972 l 347 972 l 347 833 l 486 833 l 486 694 l 625 694 l 625 556 l 764 556 l 764 0 l 208 0 l 208 139 l 69 139 l 69 278 l 208 278 l 208 139 l 625 139 l 625 278 l 208 278 l 208 417 l 625 417 z "},"á":{"ha":833,"x_min":69,"x_max":764,"o":"m 625 972 l 625 833 l 486 833 l 486 972 l 625 972 m 625 417 l 625 556 l 208 556 l 208 694 l 347 694 l 347 833 l 486 833 l 486 694 l 625 694 l 625 556 l 764 556 l 764 0 l 208 0 l 208 139 l 69 139 l 69 278 l 208 278 l 208 139 l 625 139 l 625 278 l 208 278 l 208 417 l 625 417 z "},"â":{"ha":833,"x_min":69,"x_max":764,"o":"m 625 417 l 625 556 l 208 556 l 208 833 l 347 833 l 347 694 l 486 694 l 486 833 l 347 833 l 347 972 l 486 972 l 486 833 l 625 833 l 625 556 l 764 556 l 764 0 l 208 0 l 208 139 l 69 139 l 69 278 l 208 278 l 208 139 l 625 139 l 625 278 l 208 278 l 208 417 l 625 417 z "},"ã":{"ha":833,"x_min":69,"x_max":764,"o":"m 625 417 l 625 556 l 208 556 l 208 833 l 347 833 l 347 694 l 486 694 l 486 833 l 347 833 l 347 972 l 486 972 l 486 833 l 625 833 l 625 556 l 764 556 l 764 0 l 208 0 l 208 139 l 69 139 l 69 278 l 208 278 l 208 139 l 625 139 l 625 278 l 208 278 l 208 417 l 625 417 m 764 972 l 764 833 l 625 833 l 625 972 l 764 972 z "},"ä":{"ha":833,"x_min":69,"x_max":764,"o":"m 347 972 l 347 833 l 208 833 l 208 972 l 347 972 m 625 972 l 625 833 l 486 833 l 486 972 l 625 972 m 625 417 l 625 556 l 208 556 l 208 694 l 625 694 l 625 556 l 764 556 l 764 0 l 208 0 l 208 139 l 69 139 l 69 278 l 208 278 l 208 139 l 625 139 l 625 278 l 208 278 l 208 417 l 625 417 z "},"å":{"ha":833,"x_min":69,"x_max":764,"o":"m 764 694 l 625 694 l 625 833 l 347 833 l 347 972 l 625 972 l 625 833 l 764 833 l 764 694 m 208 556 l 208 833 l 347 833 l 347 694 l 625 694 l 625 556 l 764 556 l 764 0 l 208 0 l 208 139 l 69 139 l 69 278 l 208 278 l 208 139 l 625 139 l 625 278 l 208 278 l 208 417 l 625 417 l 625 556 l 208 556 z "},"æ":{"ha":1111,"x_min":69,"x_max":1042,"o":"m 208 417 l 486 417 l 486 556 l 625 556 l 625 417 l 903 417 l 903 556 l 625 556 l 625 694 l 903 694 l 903 556 l 1042 556 l 1042 278 l 625 278 l 625 139 l 1042 139 l 1042 0 l 625 0 l 625 139 l 486 139 l 486 278 l 208 278 l 208 417 m 208 139 l 69 139 l 69 278 l 208 278 l 208 139 l 486 139 l 486 0 l 208 0 l 208 139 m 486 556 l 208 556 l 208 694 l 486 694 l 486 556 z "},"ç":{"ha":833,"x_min":69,"x_max":764,"o":"m 625 417 l 625 556 l 208 556 l 208 694 l 625 694 l 625 556 l 764 556 l 764 417 l 625 417 m 208 0 l 208 139 l 69 139 l 69 556 l 208 556 l 208 139 l 625 139 l 625 0 l 486 0 l 486 -139 l 347 -139 l 347 0 l 208 0 m 625 139 l 625 278 l 764 278 l 764 139 l 625 139 z "},"è":{"ha":833,"x_min":69,"x_max":764,"o":"m 69 139 l 69 556 l 208 556 l 208 694 l 347 694 l 347 833 l 208 833 l 208 972 l 347 972 l 347 833 l 486 833 l 486 694 l 625 694 l 625 556 l 764 556 l 764 278 l 208 278 l 208 139 l 764 139 l 764 0 l 208 0 l 208 139 l 69 139 m 208 556 l 208 417 l 625 417 l 625 556 l 208 556 z "},"é":{"ha":833,"x_min":69,"x_max":764,"o":"m 625 972 l 625 833 l 486 833 l 486 972 l 625 972 m 69 139 l 69 556 l 208 556 l 208 694 l 347 694 l 347 833 l 486 833 l 486 694 l 625 694 l 625 556 l 764 556 l 764 278 l 208 278 l 208 139 l 764 139 l 764 0 l 208 0 l 208 139 l 69 139 m 208 556 l 208 417 l 625 417 l 625 556 l 208 556 z "},"ê":{"ha":833,"x_min":69,"x_max":764,"o":"m 69 139 l 69 556 l 208 556 l 208 833 l 347 833 l 347 694 l 486 694 l 486 833 l 347 833 l 347 972 l 486 972 l 486 833 l 625 833 l 625 556 l 764 556 l 764 278 l 208 278 l 208 139 l 764 139 l 764 0 l 208 0 l 208 139 l 69 139 m 208 556 l 208 417 l 625 417 l 625 556 l 208 556 z "},"ë":{"ha":833,"x_min":69,"x_max":764,"o":"m 625 972 l 625 833 l 486 833 l 486 972 l 625 972 m 347 972 l 347 833 l 208 833 l 208 972 l 347 972 m 69 139 l 69 556 l 208 556 l 208 694 l 625 694 l 625 556 l 764 556 l 764 278 l 208 278 l 208 139 l 764 139 l 764 0 l 208 0 l 208 139 l 69 139 m 208 556 l 208 417 l 625 417 l 625 556 l 208 556 z "},"ì":{"ha":278,"x_min":0,"x_max":278,"o":"m 69 0 l 69 694 l 139 694 l 139 833 l 0 833 l 0 972 l 139 972 l 139 833 l 278 833 l 278 694 l 208 694 l 208 0 l 69 0 z "},"í":{"ha":278,"x_min":0,"x_max":278,"o":"m 278 972 l 278 833 l 139 833 l 139 972 l 278 972 m 69 0 l 69 694 l 0 694 l 0 833 l 139 833 l 139 694 l 208 694 l 208 0 l 69 0 z "},"î":{"ha":278,"x_min":-69,"x_max":347,"o":"m 347 833 l 347 694 l 208 694 l 208 833 l 69 833 l 69 972 l 208 972 l 208 833 l 347 833 m 69 0 l 69 694 l -69 694 l -69 833 l 69 833 l 69 694 l 208 694 l 208 0 l 69 0 z "},"ï":{"ha":278,"x_min":-69,"x_max":347,"o":"m 347 972 l 347 833 l 208 833 l 208 972 l 347 972 m 69 972 l 69 833 l -69 833 l -69 972 l 69 972 m 69 0 l 69 694 l 208 694 l 208 0 l 69 0 z "},"ð":{"ha":833,"x_min":69,"x_max":764,"o":"m 625 833 l 625 694 l 764 694 l 764 139 l 625 139 l 625 278 l 208 278 l 208 417 l 625 417 l 625 694 l 486 694 l 486 833 l 208 833 l 208 972 l 486 972 l 486 833 l 625 833 m 764 972 l 764 833 l 625 833 l 625 972 l 764 972 m 486 694 l 486 556 l 347 556 l 347 694 l 486 694 m 208 278 l 208 139 l 625 139 l 625 0 l 208 0 l 208 139 l 69 139 l 69 278 l 208 278 z "},"ñ":{"ha":833,"x_min":69,"x_max":764,"o":"m 625 0 l 625 556 l 208 556 l 208 0 l 69 0 l 69 694 l 208 694 l 208 833 l 347 833 l 347 694 l 486 694 l 486 833 l 347 833 l 347 972 l 486 972 l 486 833 l 625 833 l 625 556 l 764 556 l 764 0 l 625 0 m 764 972 l 764 833 l 625 833 l 625 972 l 764 972 z "},"ò":{"ha":833,"x_min":69,"x_max":764,"o":"m 625 139 l 625 556 l 208 556 l 208 694 l 347 694 l 347 833 l 208 833 l 208 972 l 347 972 l 347 833 l 486 833 l 486 694 l 625 694 l 625 556 l 764 556 l 764 139 l 625 139 m 69 139 l 69 556 l 208 556 l 208 139 l 625 139 l 625 0 l 208 0 l 208 139 l 69 139 z "},"ó":{"ha":833,"x_min":69,"x_max":764,"o":"m 625 972 l 625 833 l 486 833 l 486 972 l 625 972 m 625 139 l 625 556 l 208 556 l 208 694 l 347 694 l 347 833 l 486 833 l 486 694 l 625 694 l 625 556 l 764 556 l 764 139 l 625 139 m 208 0 l 208 139 l 69 139 l 69 556 l 208 556 l 208 139 l 625 139 l 625 0 l 208 0 z "},"ô":{"ha":833,"x_min":69,"x_max":764,"o":"m 625 139 l 625 556 l 208 556 l 208 833 l 347 833 l 347 694 l 486 694 l 486 833 l 347 833 l 347 972 l 486 972 l 486 833 l 625 833 l 625 556 l 764 556 l 764 139 l 625 139 m 208 0 l 208 139 l 69 139 l 69 556 l 208 556 l 208 139 l 625 139 l 625 0 l 208 0 z "},"õ":{"ha":833,"x_min":69,"x_max":764,"o":"m 625 139 l 625 556 l 208 556 l 208 833 l 347 833 l 347 694 l 486 694 l 486 833 l 347 833 l 347 972 l 486 972 l 486 833 l 625 833 l 625 556 l 764 556 l 764 139 l 625 139 m 764 972 l 764 833 l 625 833 l 625 972 l 764 972 m 208 0 l 208 139 l 69 139 l 69 556 l 208 556 l 208 139 l 625 139 l 625 0 l 208 0 z "},"ö":{"ha":833,"x_min":69,"x_max":764,"o":"m 625 972 l 625 833 l 486 833 l 486 972 l 625 972 m 347 972 l 347 833 l 208 833 l 208 972 l 347 972 m 625 139 l 625 556 l 208 556 l 208 694 l 625 694 l 625 556 l 764 556 l 764 139 l 625 139 m 208 0 l 208 139 l 69 139 l 69 556 l 208 556 l 208 139 l 625 139 l 625 0 l 208 0 z "},"÷":{"ha":833,"x_min":69,"x_max":764,"o":"m 347 694 l 347 833 l 486 833 l 486 694 l 347 694 m 69 556 l 764 556 l 764 417 l 69 417 l 69 556 m 347 139 l 347 278 l 486 278 l 486 139 l 347 139 z "},"ø":{"ha":833,"x_min":69,"x_max":764,"o":"m 208 556 l 208 694 l 625 694 l 625 556 l 764 556 l 764 139 l 625 139 l 625 417 l 486 417 l 486 556 l 208 556 m 69 139 l 69 556 l 208 556 l 208 278 l 347 278 l 347 139 l 625 139 l 625 0 l 208 0 l 208 139 l 69 139 m 347 278 l 347 417 l 486 417 l 486 278 l 347 278 z "},"ù":{"ha":833,"x_min":69,"x_max":764,"o":"m 417 694 l 417 833 l 278 833 l 278 972 l 417 972 l 417 833 l 556 833 l 556 694 l 417 694 m 625 139 l 625 694 l 764 694 l 764 0 l 208 0 l 208 139 l 69 139 l 69 694 l 208 694 l 208 139 l 625 139 z "},"ú":{"ha":833,"x_min":69,"x_max":764,"o":"m 417 833 l 417 972 l 556 972 l 556 833 l 417 833 m 278 694 l 278 833 l 417 833 l 417 694 l 278 694 m 625 139 l 625 694 l 764 694 l 764 0 l 208 0 l 208 139 l 69 139 l 69 694 l 208 694 l 208 139 l 625 139 z "},"û":{"ha":833,"x_min":69,"x_max":764,"o":"m 625 833 l 625 694 l 764 694 l 764 0 l 208 0 l 208 139 l 69 139 l 69 694 l 208 694 l 208 139 l 625 139 l 625 694 l 486 694 l 486 833 l 347 833 l 347 972 l 486 972 l 486 833 l 625 833 m 347 833 l 347 694 l 208 694 l 208 833 l 347 833 z "},"ü":{"ha":833,"x_min":69,"x_max":764,"o":"m 208 833 l 208 972 l 347 972 l 347 833 l 208 833 m 486 833 l 486 972 l 625 972 l 625 833 l 486 833 m 625 139 l 625 694 l 764 694 l 764 0 l 208 0 l 208 139 l 69 139 l 69 694 l 208 694 l 208 139 l 625 139 z "},"ý":{"ha":833,"x_min":69,"x_max":764,"o":"m 625 972 l 625 833 l 486 833 l 486 972 l 625 972 m 486 833 l 486 694 l 347 694 l 347 833 l 486 833 m 625 278 l 625 694 l 764 694 l 764 0 l 625 0 l 625 139 l 208 139 l 208 278 l 69 278 l 69 694 l 208 694 l 208 278 l 625 278 m 625 -139 l 69 -139 l 69 0 l 625 0 l 625 -139 z "},"þ":{"ha":833,"x_min":69,"x_max":764,"o":"m 208 556 l 208 278 l 625 278 l 625 139 l 208 139 l 208 -139 l 69 -139 l 69 972 l 208 972 l 208 694 l 625 694 l 625 556 l 764 556 l 764 278 l 625 278 l 625 556 l 208 556 z "},"ÿ":{"ha":833,"x_min":69,"x_max":764,"o":"m 625 972 l 625 833 l 486 833 l 486 972 l 625 972 m 347 972 l 347 833 l 208 833 l 208 972 l 347 972 m 625 278 l 625 694 l 764 694 l 764 0 l 625 0 l 625 139 l 208 139 l 208 278 l 69 278 l 69 694 l 208 694 l 208 278 l 625 278 m 625 -139 l 69 -139 l 69 0 l 625 0 l 625 -139 z "},"Ā":{"ha":833,"x_min":69,"x_max":764,"o":"m 208 1111 l 208 1250 l 625 1250 l 625 1111 l 208 1111 m 69 0 l 69 833 l 208 833 l 208 972 l 625 972 l 625 833 l 764 833 l 764 0 l 625 0 l 625 556 l 208 556 l 208 0 l 69 0 m 208 833 l 208 694 l 625 694 l 625 833 l 208 833 z "},"ā":{"ha":833,"x_min":69,"x_max":764,"o":"m 208 833 l 208 972 l 625 972 l 625 833 l 208 833 m 625 417 l 625 556 l 208 556 l 208 694 l 625 694 l 625 556 l 764 556 l 764 0 l 208 0 l 208 139 l 69 139 l 69 278 l 208 278 l 208 139 l 625 139 l 625 278 l 208 278 l 208 417 l 625 417 z "},"Ă":{"ha":833,"x_min":69,"x_max":764,"o":"m 69 0 l 69 833 l 208 833 l 208 972 l 278 972 l 278 1111 l 139 1111 l 139 1250 l 278 1250 l 278 1111 l 556 1111 l 556 972 l 625 972 l 625 833 l 764 833 l 764 0 l 625 0 l 625 556 l 208 556 l 208 0 l 69 0 m 556 1111 l 556 1250 l 694 1250 l 694 1111 l 556 1111 m 208 833 l 208 694 l 625 694 l 625 833 l 208 833 z "},"ă":{"ha":833,"x_min":69,"x_max":764,"o":"m 625 417 l 625 556 l 208 556 l 208 694 l 278 694 l 278 833 l 139 833 l 139 972 l 278 972 l 278 833 l 556 833 l 556 694 l 625 694 l 625 556 l 764 556 l 764 0 l 208 0 l 208 139 l 69 139 l 69 278 l 208 278 l 208 139 l 625 139 l 625 278 l 208 278 l 208 417 l 625 417 m 556 833 l 556 972 l 694 972 l 694 833 l 556 833 z "},"Ą":{"ha":833,"x_min":69,"x_max":764,"o":"m 208 833 l 208 972 l 625 972 l 625 833 l 764 833 l 764 0 l 625 0 l 625 556 l 208 556 l 208 0 l 69 0 l 69 833 l 208 833 l 208 694 l 625 694 l 625 833 l 208 833 m 625 0 l 625 -139 l 486 -139 l 486 0 l 625 0 z "},"ą":{"ha":833,"x_min":69,"x_max":764,"o":"m 625 417 l 625 556 l 208 556 l 208 694 l 625 694 l 625 556 l 764 556 l 764 0 l 625 0 l 625 -139 l 486 -139 l 486 0 l 208 0 l 208 139 l 69 139 l 69 278 l 208 278 l 208 139 l 625 139 l 625 278 l 208 278 l 208 417 l 625 417 z "},"Ć":{"ha":833,"x_min":69,"x_max":764,"o":"m 625 1250 l 625 1111 l 486 1111 l 486 1250 l 625 1250 m 625 694 l 625 833 l 208 833 l 208 972 l 347 972 l 347 1111 l 486 1111 l 486 972 l 625 972 l 625 833 l 764 833 l 764 694 l 625 694 m 208 0 l 208 139 l 69 139 l 69 833 l 208 833 l 208 139 l 625 139 l 625 0 l 208 0 m 625 139 l 625 278 l 764 278 l 764 139 l 625 139 z "},"ć":{"ha":833,"x_min":69,"x_max":764,"o":"m 625 972 l 625 833 l 486 833 l 486 972 l 625 972 m 625 417 l 625 556 l 208 556 l 208 694 l 347 694 l 347 833 l 486 833 l 486 694 l 625 694 l 625 556 l 764 556 l 764 417 l 625 417 m 208 0 l 208 139 l 69 139 l 69 556 l 208 556 l 208 139 l 625 139 l 625 0 l 208 0 m 625 139 l 625 278 l 764 278 l 764 139 l 625 139 z "},"Ĉ":{"ha":833,"x_min":69,"x_max":764,"o":"m 625 694 l 625 833 l 208 833 l 208 1111 l 347 1111 l 347 972 l 486 972 l 486 1111 l 347 1111 l 347 1250 l 486 1250 l 486 1111 l 625 1111 l 625 833 l 764 833 l 764 694 l 625 694 m 208 0 l 208 139 l 69 139 l 69 833 l 208 833 l 208 139 l 625 139 l 625 0 l 208 0 m 625 139 l 625 278 l 764 278 l 764 139 l 625 139 z "},"ĉ":{"ha":833,"x_min":69,"x_max":764,"o":"m 625 417 l 625 556 l 208 556 l 208 833 l 347 833 l 347 694 l 486 694 l 486 833 l 347 833 l 347 972 l 486 972 l 486 833 l 625 833 l 625 556 l 764 556 l 764 417 l 625 417 m 208 0 l 208 139 l 69 139 l 69 556 l 208 556 l 208 139 l 625 139 l 625 0 l 208 0 m 625 139 l 625 278 l 764 278 l 764 139 l 625 139 z "},"Ċ":{"ha":833,"x_min":69,"x_max":764,"o":"m 347 1111 l 347 1250 l 486 1250 l 486 1111 l 347 1111 m 625 694 l 625 833 l 208 833 l 208 972 l 625 972 l 625 833 l 764 833 l 764 694 l 625 694 m 208 0 l 208 139 l 69 139 l 69 833 l 208 833 l 208 139 l 625 139 l 625 0 l 208 0 m 625 139 l 625 278 l 764 278 l 764 139 l 625 139 z "},"ċ":{"ha":833,"x_min":69,"x_max":764,"o":"m 347 833 l 347 972 l 486 972 l 486 833 l 347 833 m 625 417 l 625 556 l 208 556 l 208 694 l 625 694 l 625 556 l 764 556 l 764 417 l 625 417 m 208 0 l 208 139 l 69 139 l 69 556 l 208 556 l 208 139 l 625 139 l 625 0 l 208 0 m 625 139 l 625 278 l 764 278 l 764 139 l 625 139 z "},"Č":{"ha":833,"x_min":69,"x_max":764,"o":"m 625 694 l 625 833 l 208 833 l 208 972 l 347 972 l 347 1111 l 208 1111 l 208 1250 l 347 1250 l 347 1111 l 486 1111 l 486 972 l 625 972 l 625 833 l 764 833 l 764 694 l 625 694 m 625 1250 l 625 1111 l 486 1111 l 486 1250 l 625 1250 m 208 0 l 208 139 l 69 139 l 69 833 l 208 833 l 208 139 l 625 139 l 625 0 l 208 0 m 625 139 l 625 278 l 764 278 l 764 139 l 625 139 z "},"č":{"ha":833,"x_min":69,"x_max":764,"o":"m 625 417 l 625 556 l 208 556 l 208 694 l 347 694 l 347 833 l 208 833 l 208 972 l 347 972 l 347 833 l 486 833 l 486 694 l 625 694 l 625 556 l 764 556 l 764 417 l 625 417 m 625 972 l 625 833 l 486 833 l 486 972 l 625 972 m 208 0 l 208 139 l 69 139 l 69 556 l 208 556 l 208 139 l 625 139 l 625 0 l 208 0 m 625 139 l 625 278 l 764 278 l 764 139 l 625 139 z "},"Ď":{"ha":833,"x_min":69,"x_max":764,"o":"m 625 139 l 625 0 l 69 0 l 69 972 l 347 972 l 347 1111 l 208 1111 l 208 1250 l 347 1250 l 347 1111 l 486 1111 l 486 972 l 625 972 l 625 833 l 764 833 l 764 139 l 625 139 l 625 833 l 208 833 l 208 139 l 625 139 m 625 1250 l 625 1111 l 486 1111 l 486 1250 l 625 1250 z "},"ď":{"ha":1111,"x_min":69,"x_max":1042,"o":"m 903 764 l 903 1042 l 1042 1042 l 1042 764 l 903 764 m 208 556 l 208 694 l 486 694 l 486 556 l 625 556 l 625 972 l 764 972 l 764 0 l 208 0 l 208 139 l 69 139 l 69 556 l 208 556 l 208 139 l 625 139 l 625 417 l 486 417 l 486 556 l 208 556 z "},"Đ":{"ha":903,"x_min":0,"x_max":833,"o":"m 694 139 l 694 0 l 139 0 l 139 417 l 0 417 l 0 556 l 139 556 l 139 972 l 694 972 l 694 833 l 833 833 l 833 139 l 694 139 l 694 833 l 278 833 l 278 556 l 417 556 l 417 417 l 278 417 l 278 139 l 694 139 z "},"đ":{"ha":903,"x_min":69,"x_max":903,"o":"m 208 417 l 208 556 l 486 556 l 486 417 l 625 417 l 625 694 l 347 694 l 347 833 l 625 833 l 625 972 l 764 972 l 764 833 l 903 833 l 903 694 l 764 694 l 764 0 l 208 0 l 208 139 l 69 139 l 69 417 l 208 417 m 208 417 l 208 139 l 625 139 l 625 278 l 486 278 l 486 417 l 208 417 z "},"Ē":{"ha":833,"x_min":69,"x_max":764,"o":"m 208 1111 l 208 1250 l 625 1250 l 625 1111 l 208 1111 m 69 0 l 69 972 l 764 972 l 764 833 l 208 833 l 208 694 l 486 694 l 486 556 l 208 556 l 208 139 l 764 139 l 764 0 l 69 0 z "},"ē":{"ha":833,"x_min":69,"x_max":764,"o":"m 208 833 l 208 972 l 625 972 l 625 833 l 208 833 m 69 139 l 69 556 l 208 556 l 208 694 l 625 694 l 625 556 l 764 556 l 764 278 l 208 278 l 208 139 l 764 139 l 764 0 l 208 0 l 208 139 l 69 139 m 208 556 l 208 417 l 625 417 l 625 556 l 208 556 z "},"Ĕ":{"ha":833,"x_min":69,"x_max":764,"o":"m 69 0 l 69 972 l 278 972 l 278 1111 l 139 1111 l 139 1250 l 278 1250 l 278 1111 l 556 1111 l 556 972 l 764 972 l 764 833 l 208 833 l 208 694 l 486 694 l 486 556 l 208 556 l 208 139 l 764 139 l 764 0 l 69 0 m 556 1111 l 556 1250 l 694 1250 l 694 1111 l 556 1111 z "},"ĕ":{"ha":833,"x_min":69,"x_max":764,"o":"m 69 139 l 69 556 l 208 556 l 208 694 l 278 694 l 278 833 l 139 833 l 139 972 l 278 972 l 278 833 l 556 833 l 556 694 l 625 694 l 625 556 l 764 556 l 764 278 l 208 278 l 208 139 l 764 139 l 764 0 l 208 0 l 208 139 l 69 139 m 556 833 l 556 972 l 694 972 l 694 833 l 556 833 m 208 556 l 208 417 l 625 417 l 625 556 l 208 556 z "},"Ė":{"ha":833,"x_min":69,"x_max":764,"o":"m 347 1111 l 347 1250 l 486 1250 l 486 1111 l 347 1111 m 69 0 l 69 972 l 764 972 l 764 833 l 208 833 l 208 694 l 486 694 l 486 556 l 208 556 l 208 139 l 764 139 l 764 0 l 69 0 z "},"ė":{"ha":833,"x_min":69,"x_max":764,"o":"m 347 833 l 347 972 l 486 972 l 486 833 l 347 833 m 69 139 l 69 556 l 208 556 l 208 694 l 625 694 l 625 556 l 764 556 l 764 278 l 208 278 l 208 139 l 764 139 l 764 0 l 208 0 l 208 139 l 69 139 m 208 556 l 208 417 l 625 417 l 625 556 l 208 556 z "},"Ę":{"ha":833,"x_min":69,"x_max":764,"o":"m 69 0 l 69 972 l 764 972 l 764 833 l 208 833 l 208 694 l 486 694 l 486 556 l 208 556 l 208 139 l 764 139 l 764 0 l 625 0 l 625 -139 l 486 -139 l 486 0 l 69 0 z "},"ę":{"ha":833,"x_min":69,"x_max":764,"o":"m 208 556 l 208 694 l 625 694 l 625 556 l 764 556 l 764 278 l 208 278 l 208 139 l 764 139 l 764 0 l 694 0 l 694 -139 l 556 -139 l 556 0 l 208 0 l 208 139 l 69 139 l 69 556 l 208 556 l 208 417 l 625 417 l 625 556 l 208 556 z "},"Ě":{"ha":833,"x_min":69,"x_max":764,"o":"m 69 0 l 69 972 l 347 972 l 347 1111 l 208 1111 l 208 1250 l 347 1250 l 347 1111 l 486 1111 l 486 972 l 764 972 l 764 833 l 208 833 l 208 694 l 486 694 l 486 556 l 208 556 l 208 139 l 764 139 l 764 0 l 69 0 m 625 1250 l 625 1111 l 486 1111 l 486 1250 l 625 1250 z "},"ě":{"ha":833,"x_min":69,"x_max":764,"o":"m 69 139 l 69 556 l 208 556 l 208 694 l 347 694 l 347 833 l 208 833 l 208 972 l 347 972 l 347 833 l 486 833 l 486 694 l 625 694 l 625 556 l 764 556 l 764 278 l 208 278 l 208 139 l 764 139 l 764 0 l 208 0 l 208 139 l 69 139 m 625 972 l 625 833 l 486 833 l 486 972 l 625 972 m 208 556 l 208 417 l 625 417 l 625 556 l 208 556 z "},"Ĝ":{"ha":833,"x_min":69,"x_max":764,"o":"m 208 833 l 208 1111 l 347 1111 l 347 972 l 486 972 l 486 1111 l 347 1111 l 347 1250 l 486 1250 l 486 1111 l 625 1111 l 625 972 l 764 972 l 764 833 l 208 833 m 208 0 l 208 139 l 69 139 l 69 833 l 208 833 l 208 139 l 625 139 l 625 0 l 208 0 m 486 556 l 486 694 l 764 694 l 764 139 l 625 139 l 625 556 l 486 556 z "},"ĝ":{"ha":833,"x_min":69,"x_max":764,"o":"m 69 278 l 69 556 l 208 556 l 208 833 l 347 833 l 347 694 l 486 694 l 486 833 l 347 833 l 347 972 l 486 972 l 486 833 l 625 833 l 625 694 l 764 694 l 764 0 l 625 0 l 625 139 l 208 139 l 208 278 l 69 278 m 208 556 l 208 278 l 625 278 l 625 556 l 208 556 m 69 -139 l 69 0 l 625 0 l 625 -139 l 69 -139 z "},"Ğ":{"ha":833,"x_min":69,"x_max":764,"o":"m 208 833 l 208 972 l 278 972 l 278 1111 l 139 1111 l 139 1250 l 278 1250 l 278 1111 l 556 1111 l 556 972 l 764 972 l 764 833 l 208 833 m 556 1111 l 556 1250 l 694 1250 l 694 1111 l 556 1111 m 208 0 l 208 139 l 69 139 l 69 833 l 208 833 l 208 139 l 625 139 l 625 0 l 208 0 m 486 556 l 486 694 l 764 694 l 764 139 l 625 139 l 625 556 l 486 556 z "},"ğ":{"ha":833,"x_min":69,"x_max":764,"o":"m 69 278 l 69 556 l 208 556 l 208 694 l 278 694 l 278 833 l 139 833 l 139 972 l 278 972 l 278 833 l 556 833 l 556 694 l 764 694 l 764 0 l 625 0 l 625 139 l 208 139 l 208 278 l 69 278 m 556 833 l 556 972 l 694 972 l 694 833 l 556 833 m 208 556 l 208 278 l 625 278 l 625 556 l 208 556 m 69 -139 l 69 0 l 625 0 l 625 -139 l 69 -139 z "},"Ġ":{"ha":833,"x_min":69,"x_max":764,"o":"m 347 1111 l 347 1250 l 486 1250 l 486 1111 l 347 1111 m 208 833 l 208 972 l 764 972 l 764 833 l 208 833 m 208 0 l 208 139 l 69 139 l 69 833 l 208 833 l 208 139 l 625 139 l 625 0 l 208 0 m 486 556 l 486 694 l 764 694 l 764 139 l 625 139 l 625 556 l 486 556 z "},"ġ":{"ha":833,"x_min":69,"x_max":764,"o":"m 347 833 l 347 972 l 486 972 l 486 833 l 347 833 m 69 278 l 69 556 l 208 556 l 208 694 l 764 694 l 764 0 l 625 0 l 625 139 l 208 139 l 208 278 l 69 278 m 208 556 l 208 278 l 625 278 l 625 556 l 208 556 m 69 -139 l 69 0 l 625 0 l 625 -139 l 69 -139 z "},"Ģ":{"ha":833,"x_min":69,"x_max":764,"o":"m 208 833 l 208 972 l 764 972 l 764 833 l 208 833 m 208 0 l 208 139 l 69 139 l 69 833 l 208 833 l 208 139 l 625 139 l 625 0 l 486 0 l 486 -139 l 347 -139 l 347 0 l 208 0 m 486 556 l 486 694 l 764 694 l 764 139 l 625 139 l 625 556 l 486 556 z "},"ģ":{"ha":833,"x_min":69,"x_max":764,"o":"m 625 972 l 625 833 l 486 833 l 486 972 l 625 972 m 208 556 l 208 694 l 347 694 l 347 833 l 486 833 l 486 694 l 764 694 l 764 0 l 625 0 l 625 139 l 208 139 l 208 278 l 69 278 l 69 556 l 208 556 l 208 278 l 625 278 l 625 556 l 208 556 m 69 -139 l 69 0 l 625 0 l 625 -139 l 69 -139 z "},"Ĥ":{"ha":833,"x_min":69,"x_max":764,"o":"m 625 1111 l 625 972 l 486 972 l 486 1111 l 347 1111 l 347 1250 l 486 1250 l 486 1111 l 625 1111 m 347 1111 l 347 972 l 208 972 l 208 1111 l 347 1111 m 69 0 l 69 972 l 208 972 l 208 694 l 625 694 l 625 972 l 764 972 l 764 0 l 625 0 l 625 556 l 208 556 l 208 0 l 69 0 z "},"ĥ":{"ha":833,"x_min":69,"x_max":764,"o":"m 625 1111 l 625 972 l 486 972 l 486 1111 l 347 1111 l 347 1250 l 486 1250 l 486 1111 l 625 1111 m 347 1111 l 347 972 l 208 972 l 208 1111 l 347 1111 m 69 0 l 69 972 l 208 972 l 208 556 l 347 556 l 347 417 l 208 417 l 208 0 l 69 0 m 625 0 l 625 556 l 347 556 l 347 694 l 625 694 l 625 556 l 764 556 l 764 0 l 625 0 z "},"Ħ":{"ha":1111,"x_min":69,"x_max":1042,"o":"m 69 694 l 69 833 l 208 833 l 208 972 l 347 972 l 347 833 l 764 833 l 764 972 l 903 972 l 903 833 l 1042 833 l 1042 694 l 903 694 l 903 0 l 764 0 l 764 417 l 347 417 l 347 0 l 208 0 l 208 694 l 69 694 m 347 556 l 764 556 l 764 694 l 347 694 l 347 556 z "},"ħ":{"ha":903,"x_min":0,"x_max":833,"o":"m 0 694 l 0 833 l 139 833 l 139 972 l 278 972 l 278 833 l 556 833 l 556 694 l 278 694 l 278 417 l 417 417 l 417 278 l 278 278 l 278 0 l 139 0 l 139 694 l 0 694 m 694 0 l 694 417 l 417 417 l 417 556 l 694 556 l 694 417 l 833 417 l 833 0 l 694 0 z "},"Ĩ":{"ha":556,"x_min":69,"x_max":625,"o":"m 486 1111 l 486 1250 l 625 1250 l 625 1111 l 486 1111 m 69 833 l 69 1111 l 208 1111 l 208 972 l 347 972 l 347 1111 l 208 1111 l 208 1250 l 347 1250 l 347 1111 l 486 1111 l 486 833 l 347 833 l 347 139 l 486 139 l 486 0 l 69 0 l 69 139 l 208 139 l 208 833 l 69 833 z "},"ĩ":{"ha":278,"x_min":-69,"x_max":486,"o":"m 347 833 l 347 694 l 208 694 l 208 833 l 69 833 l 69 972 l 208 972 l 208 833 l 347 833 m 486 972 l 486 833 l 347 833 l 347 972 l 486 972 m 69 833 l 69 694 l -69 694 l -69 833 l 69 833 m 69 0 l 69 694 l 208 694 l 208 0 l 69 0 z "},"Ī":{"ha":556,"x_min":69,"x_max":486,"o":"m 69 1111 l 69 1250 l 486 1250 l 486 1111 l 69 1111 m 69 833 l 69 972 l 486 972 l 486 833 l 347 833 l 347 139 l 486 139 l 486 0 l 69 0 l 69 139 l 208 139 l 208 833 l 69 833 z "},"ī":{"ha":278,"x_min":-69,"x_max":347,"o":"m -69 833 l -69 972 l 347 972 l 347 833 l -69 833 m 69 0 l 69 694 l 208 694 l 208 0 l 69 0 z "},"Ĭ":{"ha":556,"x_min":0,"x_max":556,"o":"m 69 833 l 69 972 l 139 972 l 139 1111 l 0 1111 l 0 1250 l 139 1250 l 139 1111 l 417 1111 l 417 972 l 486 972 l 486 833 l 347 833 l 347 139 l 486 139 l 486 0 l 69 0 l 69 139 l 208 139 l 208 833 l 69 833 m 417 1111 l 417 1250 l 556 1250 l 556 1111 l 417 1111 z "},"ĭ":{"ha":278,"x_min":-139,"x_max":417,"o":"m 69 0 l 69 694 l 0 694 l 0 833 l -139 833 l -139 972 l 0 972 l 0 833 l 278 833 l 278 694 l 208 694 l 208 0 l 69 0 m 278 833 l 278 972 l 417 972 l 417 833 l 278 833 z "},"Į":{"ha":556,"x_min":69,"x_max":486,"o":"m 69 833 l 69 972 l 486 972 l 486 833 l 347 833 l 347 139 l 486 139 l 486 0 l 347 0 l 347 -139 l 208 -139 l 208 0 l 69 0 l 69 139 l 208 139 l 208 833 l 69 833 z "},"į":{"ha":278,"x_min":69,"x_max":208,"o":"m 69 833 l 69 972 l 208 972 l 208 833 l 69 833 m 69 -139 l 69 694 l 208 694 l 208 -139 l 69 -139 z "},"İ":{"ha":556,"x_min":69,"x_max":486,"o":"m 208 1111 l 208 1250 l 347 1250 l 347 1111 l 208 1111 m 69 833 l 69 972 l 486 972 l 486 833 l 347 833 l 347 139 l 486 139 l 486 0 l 69 0 l 69 139 l 208 139 l 208 833 l 69 833 z "},"ı":{"ha":278,"x_min":69,"x_max":208,"o":"m 69 0 l 69 694 l 208 694 l 208 0 l 69 0 z "},"Ĳ":{"ha":1250,"x_min":69,"x_max":1181,"o":"m 69 833 l 69 972 l 486 972 l 486 833 l 347 833 l 347 139 l 486 139 l 486 0 l 69 0 l 69 139 l 208 139 l 208 833 l 69 833 m 1042 139 l 1042 972 l 1181 972 l 1181 139 l 1042 139 m 625 0 l 625 139 l 486 139 l 486 278 l 625 278 l 625 139 l 1042 139 l 1042 0 l 625 0 z "},"ĳ":{"ha":694,"x_min":69,"x_max":625,"o":"m 486 833 l 486 972 l 625 972 l 625 833 l 486 833 m 69 833 l 69 972 l 208 972 l 208 833 l 69 833 m 486 0 l 486 694 l 625 694 l 625 0 l 486 0 m 69 0 l 69 694 l 208 694 l 208 0 l 69 0 m 486 -139 l 347 -139 l 347 0 l 486 0 l 486 -139 z "},"Ĵ":{"ha":833,"x_min":69,"x_max":764,"o":"m 625 139 l 625 972 l 764 972 l 764 139 l 625 139 m 208 0 l 208 139 l 69 139 l 69 278 l 208 278 l 208 139 l 625 139 l 625 0 l 208 0 m 625 1111 l 625 972 l 486 972 l 486 1111 l 347 1111 l 347 1250 l 486 1250 l 486 1111 l 625 1111 m 347 1111 l 347 972 l 208 972 l 208 1111 l 347 1111 z "},"ĵ":{"ha":556,"x_min":69,"x_max":625,"o":"m 625 833 l 625 694 l 486 694 l 486 833 l 347 833 l 347 972 l 486 972 l 486 833 l 625 833 m 347 833 l 347 694 l 208 694 l 208 833 l 347 833 m 347 0 l 347 694 l 486 694 l 486 0 l 347 0 m 347 -139 l 69 -139 l 69 0 l 347 0 l 347 -139 z "},"Ķ":{"ha":833,"x_min":69,"x_max":764,"o":"m 625 0 l 625 417 l 486 417 l 486 556 l 208 556 l 208 0 l 69 0 l 69 972 l 208 972 l 208 694 l 486 694 l 486 556 l 625 556 l 625 417 l 764 417 l 764 0 l 625 0 m 625 833 l 625 972 l 764 972 l 764 833 l 625 833 m 486 694 l 486 833 l 625 833 l 625 694 l 486 694 m 347 -139 l 347 0 l 486 0 l 486 -139 l 347 -139 z "},"ķ":{"ha":694,"x_min":69,"x_max":625,"o":"m 347 139 l 347 278 l 208 278 l 208 0 l 69 0 l 69 972 l 208 972 l 208 417 l 347 417 l 347 278 l 486 278 l 486 139 l 625 139 l 625 0 l 486 0 l 486 139 l 347 139 m 486 556 l 486 694 l 625 694 l 625 556 l 486 556 m 347 417 l 347 556 l 486 556 l 486 417 l 347 417 m 278 -139 l 278 0 l 417 0 l 417 -139 l 278 -139 z "},"ĸ":{"ha":694,"x_min":69,"x_max":625,"o":"m 347 139 l 347 278 l 208 278 l 208 0 l 69 0 l 69 694 l 208 694 l 208 417 l 347 417 l 347 278 l 486 278 l 486 139 l 625 139 l 625 0 l 486 0 l 486 139 l 347 139 m 486 556 l 486 694 l 625 694 l 625 556 l 486 556 m 347 417 l 347 556 l 486 556 l 486 417 l 347 417 z "},"Ĺ":{"ha":833,"x_min":69,"x_max":764,"o":"m 556 1250 l 556 1111 l 417 1111 l 417 1250 l 556 1250 m 417 1111 l 417 972 l 278 972 l 278 1111 l 417 1111 m 69 0 l 69 972 l 208 972 l 208 139 l 764 139 l 764 0 l 69 0 z "},"ĺ":{"ha":417,"x_min":69,"x_max":347,"o":"m 347 1250 l 347 1111 l 208 1111 l 208 1250 l 347 1250 m 208 0 l 208 139 l 69 139 l 69 1111 l 208 1111 l 208 139 l 347 139 l 347 0 l 208 0 z "},"Ļ":{"ha":833,"x_min":69,"x_max":764,"o":"m 69 0 l 69 972 l 208 972 l 208 139 l 764 139 l 764 0 l 486 0 l 486 -139 l 347 -139 l 347 0 l 69 0 z "},"ļ":{"ha":417,"x_min":69,"x_max":347,"o":"m 208 0 l 208 139 l 69 139 l 69 972 l 208 972 l 208 139 l 347 139 l 347 0 l 208 0 m 69 -139 l 69 0 l 208 0 l 208 -139 l 69 -139 z "},"Ľ":{"ha":833,"x_min":69,"x_max":764,"o":"m 486 694 l 486 972 l 625 972 l 625 694 l 486 694 m 69 0 l 69 972 l 208 972 l 208 139 l 764 139 l 764 0 l 69 0 z "},"ľ":{"ha":556,"x_min":69,"x_max":486,"o":"m 347 764 l 347 1042 l 486 1042 l 486 764 l 347 764 m 208 0 l 208 139 l 69 139 l 69 972 l 208 972 l 208 139 l 347 139 l 347 0 l 208 0 z "},"Ŀ":{"ha":833,"x_min":69,"x_max":764,"o":"m 69 0 l 69 972 l 208 972 l 208 139 l 764 139 l 764 0 l 69 0 m 486 451 l 486 590 l 625 590 l 625 451 l 486 451 z "},"ŀ":{"ha":556,"x_min":69,"x_max":486,"o":"m 208 0 l 208 139 l 69 139 l 69 972 l 208 972 l 208 139 l 347 139 l 347 0 l 208 0 m 347 417 l 347 556 l 486 556 l 486 417 l 347 417 z "},"Ł":{"ha":833,"x_min":69,"x_max":764,"o":"m 208 417 l 208 972 l 347 972 l 347 556 l 486 556 l 486 417 l 347 417 l 347 139 l 764 139 l 764 0 l 208 0 l 208 278 l 69 278 l 69 417 l 208 417 m 625 694 l 625 556 l 486 556 l 486 694 l 625 694 z "},"ł":{"ha":556,"x_min":69,"x_max":486,"o":"m 347 139 l 208 139 l 208 278 l 69 278 l 69 417 l 208 417 l 208 972 l 347 972 l 347 556 l 486 556 l 486 417 l 347 417 l 347 139 m 347 139 l 486 139 l 486 0 l 347 0 l 347 139 z "},"Ń":{"ha":833,"x_min":69,"x_max":764,"o":"m 625 1250 l 625 1111 l 486 1111 l 486 1250 l 625 1250 m 486 1111 l 486 972 l 347 972 l 347 1111 l 486 1111 m 347 556 l 347 694 l 208 694 l 208 0 l 69 0 l 69 972 l 208 972 l 208 833 l 347 833 l 347 694 l 486 694 l 486 556 l 625 556 l 625 972 l 764 972 l 764 0 l 625 0 l 625 417 l 486 417 l 486 556 l 347 556 z "},"ń":{"ha":833,"x_min":69,"x_max":764,"o":"m 556 972 l 556 833 l 417 833 l 417 972 l 556 972 m 625 0 l 625 556 l 208 556 l 208 0 l 69 0 l 69 694 l 278 694 l 278 833 l 417 833 l 417 694 l 625 694 l 625 556 l 764 556 l 764 0 l 625 0 z "},"Ņ":{"ha":833,"x_min":69,"x_max":764,"o":"m 347 556 l 347 694 l 208 694 l 208 0 l 69 0 l 69 972 l 208 972 l 208 833 l 347 833 l 347 694 l 486 694 l 486 556 l 625 556 l 625 972 l 764 972 l 764 0 l 625 0 l 625 417 l 486 417 l 486 556 l 347 556 m 347 -139 l 347 0 l 486 0 l 486 -139 l 347 -139 z "},"ņ":{"ha":833,"x_min":69,"x_max":764,"o":"m 625 0 l 625 556 l 208 556 l 208 0 l 69 0 l 69 694 l 625 694 l 625 556 l 764 556 l 764 0 l 625 0 m 347 -139 l 347 0 l 486 0 l 486 -139 l 347 -139 z "},"Ň":{"ha":833,"x_min":69,"x_max":764,"o":"m 347 1250 l 347 1111 l 486 1111 l 486 972 l 347 972 l 347 1111 l 208 1111 l 208 1250 l 347 1250 m 625 1250 l 625 1111 l 486 1111 l 486 1250 l 625 1250 m 347 556 l 347 694 l 208 694 l 208 0 l 69 0 l 69 972 l 208 972 l 208 833 l 347 833 l 347 694 l 486 694 l 486 556 l 625 556 l 625 972 l 764 972 l 764 0 l 625 0 l 625 417 l 486 417 l 486 556 l 347 556 z "},"ň":{"ha":833,"x_min":69,"x_max":764,"o":"m 625 0 l 625 556 l 208 556 l 208 0 l 69 0 l 69 694 l 347 694 l 347 833 l 208 833 l 208 972 l 347 972 l 347 833 l 486 833 l 486 694 l 625 694 l 625 556 l 764 556 l 764 0 l 625 0 m 625 972 l 625 833 l 486 833 l 486 972 l 625 972 z "},"Ŋ":{"ha":833,"x_min":69,"x_max":764,"o":"m 625 556 l 625 972 l 764 972 l 764 0 l 625 0 l 625 417 l 486 417 l 486 556 l 347 556 l 347 694 l 208 694 l 208 0 l 69 0 l 69 972 l 208 972 l 208 833 l 347 833 l 347 694 l 486 694 l 486 556 l 625 556 m 347 -139 l 347 0 l 625 0 l 625 -139 l 347 -139 z "},"ŋ":{"ha":833,"x_min":69,"x_max":764,"o":"m 625 0 l 625 556 l 208 556 l 208 0 l 69 0 l 69 694 l 625 694 l 625 556 l 764 556 l 764 0 l 625 0 m 347 -139 l 347 0 l 625 0 l 625 -139 l 347 -139 z "},"Ō":{"ha":833,"x_min":69,"x_max":764,"o":"m 208 1111 l 208 1250 l 625 1250 l 625 1111 l 208 1111 m 625 139 l 625 833 l 208 833 l 208 972 l 625 972 l 625 833 l 764 833 l 764 139 l 625 139 m 69 139 l 69 833 l 208 833 l 208 139 l 625 139 l 625 0 l 208 0 l 208 139 l 69 139 z "},"ō":{"ha":833,"x_min":69,"x_max":764,"o":"m 208 833 l 208 972 l 625 972 l 625 833 l 208 833 m 625 139 l 625 556 l 208 556 l 208 694 l 625 694 l 625 556 l 764 556 l 764 139 l 625 139 m 208 0 l 208 139 l 69 139 l 69 556 l 208 556 l 208 139 l 625 139 l 625 0 l 208 0 z "},"Ŏ":{"ha":833,"x_min":69,"x_max":764,"o":"m 625 139 l 625 833 l 208 833 l 208 972 l 278 972 l 278 1111 l 139 1111 l 139 1250 l 278 1250 l 278 1111 l 556 1111 l 556 972 l 625 972 l 625 833 l 764 833 l 764 139 l 625 139 m 556 1111 l 556 1250 l 694 1250 l 694 1111 l 556 1111 m 69 139 l 69 833 l 208 833 l 208 139 l 625 139 l 625 0 l 208 0 l 208 139 l 69 139 z "},"ŏ":{"ha":833,"x_min":69,"x_max":764,"o":"m 625 139 l 625 556 l 208 556 l 208 694 l 278 694 l 278 833 l 139 833 l 139 972 l 278 972 l 278 833 l 556 833 l 556 694 l 625 694 l 625 556 l 764 556 l 764 139 l 625 139 m 556 833 l 556 972 l 694 972 l 694 833 l 556 833 m 208 0 l 208 139 l 69 139 l 69 556 l 208 556 l 208 139 l 625 139 l 625 0 l 208 0 z "},"Ő":{"ha":833,"x_min":69,"x_max":833,"o":"m 417 1250 l 417 1111 l 278 1111 l 278 1250 l 417 1250 m 833 1250 l 833 1111 l 694 1111 l 694 1250 l 833 1250 m 625 139 l 625 833 l 208 833 l 208 972 l 139 972 l 139 1111 l 278 1111 l 278 972 l 556 972 l 556 1111 l 694 1111 l 694 972 l 625 972 l 625 833 l 764 833 l 764 139 l 625 139 m 208 0 l 208 139 l 69 139 l 69 833 l 208 833 l 208 139 l 625 139 l 625 0 l 208 0 z "},"ő":{"ha":833,"x_min":69,"x_max":833,"o":"m 417 972 l 417 833 l 278 833 l 278 972 l 417 972 m 833 972 l 833 833 l 694 833 l 694 972 l 833 972 m 625 139 l 625 556 l 208 556 l 208 694 l 139 694 l 139 833 l 278 833 l 278 694 l 556 694 l 556 833 l 694 833 l 694 694 l 625 694 l 625 556 l 764 556 l 764 139 l 625 139 m 208 0 l 208 139 l 69 139 l 69 556 l 208 556 l 208 139 l 625 139 l 625 0 l 208 0 z "},"Œ":{"ha":1111,"x_min":69,"x_max":1042,"o":"m 69 139 l 69 833 l 208 833 l 208 139 l 486 139 l 486 833 l 208 833 l 208 972 l 1042 972 l 1042 833 l 625 833 l 625 694 l 903 694 l 903 556 l 625 556 l 625 139 l 1042 139 l 1042 0 l 208 0 l 208 139 l 69 139 z "},"œ":{"ha":1111,"x_min":69,"x_max":1042,"o":"m 486 556 l 625 556 l 625 417 l 903 417 l 903 556 l 625 556 l 625 694 l 903 694 l 903 556 l 1042 556 l 1042 278 l 625 278 l 625 139 l 1042 139 l 1042 0 l 625 0 l 625 139 l 486 139 l 486 556 l 208 556 l 208 694 l 486 694 l 486 556 m 208 139 l 486 139 l 486 0 l 208 0 l 208 139 l 69 139 l 69 556 l 208 556 l 208 139 z "},"Ŕ":{"ha":833,"x_min":69,"x_max":764,"o":"m 556 1250 l 556 1111 l 417 1111 l 417 1250 l 556 1250 m 625 0 l 625 556 l 208 556 l 208 0 l 69 0 l 69 972 l 278 972 l 278 1111 l 417 1111 l 417 972 l 625 972 l 625 833 l 764 833 l 764 694 l 625 694 l 625 833 l 208 833 l 208 694 l 625 694 l 625 556 l 764 556 l 764 0 l 625 0 z "},"ŕ":{"ha":833,"x_min":69,"x_max":764,"o":"m 694 972 l 694 833 l 556 833 l 556 972 l 694 972 m 625 417 l 625 556 l 347 556 l 347 694 l 417 694 l 417 833 l 556 833 l 556 694 l 625 694 l 625 556 l 764 556 l 764 417 l 625 417 m 69 0 l 69 694 l 208 694 l 208 556 l 347 556 l 347 417 l 208 417 l 208 0 l 69 0 z "},"Ŗ":{"ha":833,"x_min":69,"x_max":764,"o":"m 625 0 l 625 556 l 208 556 l 208 0 l 69 0 l 69 972 l 625 972 l 625 833 l 764 833 l 764 694 l 625 694 l 625 833 l 208 833 l 208 694 l 625 694 l 625 556 l 764 556 l 764 0 l 625 0 m 347 -139 l 347 0 l 486 0 l 486 -139 l 347 -139 z "},"ŗ":{"ha":833,"x_min":69,"x_max":764,"o":"m 69 0 l 69 694 l 208 694 l 208 556 l 347 556 l 347 417 l 208 417 l 208 0 l 69 0 m 625 417 l 625 556 l 347 556 l 347 694 l 625 694 l 625 556 l 764 556 l 764 417 l 625 417 m 347 -139 l 347 0 l 486 0 l 486 -139 l 347 -139 z "},"Ř":{"ha":833,"x_min":69,"x_max":764,"o":"m 625 0 l 625 556 l 208 556 l 208 0 l 69 0 l 69 972 l 347 972 l 347 1111 l 208 1111 l 208 1250 l 347 1250 l 347 1111 l 486 1111 l 486 972 l 625 972 l 625 833 l 764 833 l 764 694 l 625 694 l 625 833 l 208 833 l 208 694 l 625 694 l 625 556 l 764 556 l 764 0 l 625 0 m 625 1250 l 625 1111 l 486 1111 l 486 1250 l 625 1250 z "},"ř":{"ha":833,"x_min":69,"x_max":764,"o":"m 625 417 l 625 556 l 347 556 l 347 833 l 208 833 l 208 972 l 347 972 l 347 833 l 486 833 l 486 694 l 625 694 l 625 556 l 764 556 l 764 417 l 625 417 m 625 972 l 625 833 l 486 833 l 486 972 l 625 972 m 69 0 l 69 694 l 208 694 l 208 556 l 347 556 l 347 417 l 208 417 l 208 0 l 69 0 z "},"Ś":{"ha":833,"x_min":69,"x_max":764,"o":"m 694 1250 l 694 1111 l 556 1111 l 556 1250 l 694 1250 m 208 833 l 208 972 l 417 972 l 417 1111 l 556 1111 l 556 972 l 764 972 l 764 833 l 208 833 m 208 556 l 208 694 l 69 694 l 69 833 l 208 833 l 208 694 l 625 694 l 625 556 l 764 556 l 764 139 l 625 139 l 625 556 l 208 556 m 208 0 l 208 139 l 69 139 l 69 278 l 208 278 l 208 139 l 625 139 l 625 0 l 208 0 z "},"ś":{"ha":833,"x_min":69,"x_max":764,"o":"m 694 972 l 694 833 l 556 833 l 556 972 l 694 972 m 208 556 l 208 694 l 417 694 l 417 833 l 556 833 l 556 694 l 764 694 l 764 556 l 208 556 m 208 278 l 208 417 l 69 417 l 69 556 l 208 556 l 208 417 l 625 417 l 625 278 l 764 278 l 764 139 l 625 139 l 625 278 l 208 278 m 69 0 l 69 139 l 625 139 l 625 0 l 69 0 z "},"Ŝ":{"ha":833,"x_min":69,"x_max":764,"o":"m 208 833 l 208 1111 l 347 1111 l 347 972 l 486 972 l 486 1111 l 347 1111 l 347 1250 l 486 1250 l 486 1111 l 625 1111 l 625 972 l 764 972 l 764 833 l 208 833 m 208 556 l 208 694 l 69 694 l 69 833 l 208 833 l 208 694 l 625 694 l 625 556 l 764 556 l 764 139 l 625 139 l 625 556 l 208 556 m 208 0 l 208 139 l 69 139 l 69 278 l 208 278 l 208 139 l 625 139 l 625 0 l 208 0 z "},"ŝ":{"ha":833,"x_min":69,"x_max":764,"o":"m 208 556 l 208 833 l 347 833 l 347 694 l 486 694 l 486 833 l 347 833 l 347 972 l 486 972 l 486 833 l 625 833 l 625 694 l 764 694 l 764 556 l 208 556 m 208 278 l 208 417 l 69 417 l 69 556 l 208 556 l 208 417 l 625 417 l 625 278 l 764 278 l 764 139 l 625 139 l 625 278 l 208 278 m 69 0 l 69 139 l 625 139 l 625 0 l 69 0 z "},"Ş":{"ha":833,"x_min":69,"x_max":764,"o":"m 208 833 l 208 972 l 764 972 l 764 833 l 208 833 m 208 556 l 208 694 l 69 694 l 69 833 l 208 833 l 208 694 l 625 694 l 625 556 l 764 556 l 764 139 l 625 139 l 625 556 l 208 556 m 208 0 l 208 139 l 69 139 l 69 278 l 208 278 l 208 139 l 625 139 l 625 0 l 486 0 l 486 -139 l 347 -139 l 347 0 l 208 0 z "},"ş":{"ha":833,"x_min":69,"x_max":764,"o":"m 208 556 l 208 694 l 764 694 l 764 556 l 208 556 m 208 278 l 208 417 l 69 417 l 69 556 l 208 556 l 208 417 l 625 417 l 625 278 l 764 278 l 764 139 l 625 139 l 625 278 l 208 278 m 69 0 l 69 139 l 625 139 l 625 0 l 486 0 l 486 -139 l 347 -139 l 347 0 l 69 0 z "},"Š":{"ha":833,"x_min":69,"x_max":764,"o":"m 208 833 l 208 972 l 417 972 l 417 1111 l 278 1111 l 278 1250 l 417 1250 l 417 1111 l 556 1111 l 556 972 l 764 972 l 764 833 l 208 833 m 694 1250 l 694 1111 l 556 1111 l 556 1250 l 694 1250 m 208 556 l 208 694 l 69 694 l 69 833 l 208 833 l 208 694 l 625 694 l 625 556 l 764 556 l 764 139 l 625 139 l 625 556 l 208 556 m 208 0 l 208 139 l 69 139 l 69 278 l 208 278 l 208 139 l 625 139 l 625 0 l 208 0 z "},"š":{"ha":833,"x_min":69,"x_max":764,"o":"m 208 556 l 208 694 l 417 694 l 417 833 l 278 833 l 278 972 l 417 972 l 417 833 l 556 833 l 556 694 l 764 694 l 764 556 l 208 556 m 694 972 l 694 833 l 556 833 l 556 972 l 694 972 m 208 278 l 208 417 l 69 417 l 69 556 l 208 556 l 208 417 l 625 417 l 625 278 l 764 278 l 764 139 l 625 139 l 625 278 l 208 278 m 69 0 l 69 139 l 625 139 l 625 0 l 69 0 z "},"Ţ":{"ha":833,"x_min":69,"x_max":764,"o":"m 69 833 l 69 972 l 764 972 l 764 833 l 486 833 l 486 -139 l 347 -139 l 347 833 l 69 833 z "},"ţ":{"ha":556,"x_min":69,"x_max":486,"o":"m 347 0 l 347 139 l 208 139 l 208 556 l 69 556 l 69 694 l 208 694 l 208 972 l 347 972 l 347 694 l 486 694 l 486 556 l 347 556 l 347 139 l 486 139 l 486 0 l 347 0 m 208 -139 l 208 0 l 347 0 l 347 -139 l 208 -139 z "},"Ť":{"ha":833,"x_min":69,"x_max":764,"o":"m 69 833 l 69 972 l 347 972 l 347 1111 l 208 1111 l 208 1250 l 347 1250 l 347 1111 l 486 1111 l 486 972 l 764 972 l 764 833 l 486 833 l 486 0 l 347 0 l 347 833 l 69 833 m 625 1250 l 625 1111 l 486 1111 l 486 1250 l 625 1250 z "},"ť":{"ha":694,"x_min":69,"x_max":625,"o":"m 486 764 l 486 1042 l 625 1042 l 625 764 l 486 764 m 347 0 l 347 139 l 208 139 l 208 556 l 69 556 l 69 694 l 208 694 l 208 972 l 347 972 l 347 694 l 486 694 l 486 556 l 347 556 l 347 139 l 486 139 l 486 0 l 347 0 z "},"Ŧ":{"ha":833,"x_min":69,"x_max":764,"o":"m 208 417 l 208 556 l 347 556 l 347 833 l 69 833 l 69 972 l 764 972 l 764 833 l 486 833 l 486 556 l 625 556 l 625 417 l 486 417 l 486 0 l 347 0 l 347 417 l 208 417 z "},"ŧ":{"ha":556,"x_min":69,"x_max":486,"o":"m 69 278 l 69 417 l 208 417 l 208 556 l 69 556 l 69 694 l 208 694 l 208 972 l 347 972 l 347 694 l 486 694 l 486 556 l 347 556 l 347 417 l 486 417 l 486 278 l 347 278 l 347 139 l 486 139 l 486 0 l 347 0 l 347 139 l 208 139 l 208 278 l 69 278 z "},"Ũ":{"ha":833,"x_min":69,"x_max":764,"o":"m 556 1111 l 556 972 l 417 972 l 417 1111 l 278 1111 l 278 1250 l 417 1250 l 417 1111 l 556 1111 m 694 1250 l 694 1111 l 556 1111 l 556 1250 l 694 1250 m 208 0 l 208 139 l 69 139 l 69 972 l 139 972 l 139 1111 l 278 1111 l 278 972 l 208 972 l 208 139 l 625 139 l 625 0 l 208 0 m 625 139 l 625 972 l 764 972 l 764 139 l 625 139 z "},"ũ":{"ha":833,"x_min":69,"x_max":764,"o":"m 556 833 l 556 694 l 417 694 l 417 833 l 278 833 l 278 972 l 417 972 l 417 833 l 556 833 m 694 972 l 694 833 l 556 833 l 556 972 l 694 972 m 625 139 l 625 694 l 764 694 l 764 0 l 208 0 l 208 139 l 69 139 l 69 694 l 139 694 l 139 833 l 278 833 l 278 694 l 208 694 l 208 139 l 625 139 z "},"Ū":{"ha":833,"x_min":69,"x_max":764,"o":"m 208 1111 l 208 1250 l 625 1250 l 625 1111 l 208 1111 m 208 0 l 208 139 l 69 139 l 69 972 l 208 972 l 208 139 l 625 139 l 625 0 l 208 0 m 625 139 l 625 972 l 764 972 l 764 139 l 625 139 z "},"ū":{"ha":833,"x_min":69,"x_max":764,"o":"m 208 833 l 208 972 l 625 972 l 625 833 l 208 833 m 625 139 l 625 694 l 764 694 l 764 0 l 208 0 l 208 139 l 69 139 l 69 694 l 208 694 l 208 139 l 625 139 z "},"Ŭ":{"ha":833,"x_min":69,"x_max":764,"o":"m 278 972 l 278 1111 l 139 1111 l 139 1250 l 278 1250 l 278 1111 l 556 1111 l 556 972 l 278 972 m 556 1111 l 556 1250 l 694 1250 l 694 1111 l 556 1111 m 208 0 l 208 139 l 69 139 l 69 972 l 208 972 l 208 139 l 625 139 l 625 0 l 208 0 m 625 139 l 625 972 l 764 972 l 764 139 l 625 139 z "},"ŭ":{"ha":833,"x_min":69,"x_max":764,"o":"m 278 694 l 278 833 l 139 833 l 139 972 l 278 972 l 278 833 l 556 833 l 556 694 l 278 694 m 556 833 l 556 972 l 694 972 l 694 833 l 556 833 m 625 139 l 625 694 l 764 694 l 764 0 l 208 0 l 208 139 l 69 139 l 69 694 l 208 694 l 208 139 l 625 139 z "},"Ů":{"ha":833,"x_min":69,"x_max":764,"o":"m 556 1042 l 556 1181 l 278 1181 l 278 1319 l 556 1319 l 556 1181 l 694 1181 l 694 1042 l 556 1042 m 278 903 l 278 1042 l 139 1042 l 139 1181 l 278 1181 l 278 1042 l 556 1042 l 556 903 l 278 903 m 208 0 l 208 139 l 69 139 l 69 972 l 208 972 l 208 139 l 625 139 l 625 0 l 208 0 m 625 139 l 625 972 l 764 972 l 764 139 l 625 139 z "},"ů":{"ha":833,"x_min":69,"x_max":764,"o":"m 556 764 l 556 903 l 278 903 l 278 1042 l 556 1042 l 556 903 l 694 903 l 694 764 l 556 764 m 278 625 l 278 764 l 139 764 l 139 903 l 278 903 l 278 764 l 556 764 l 556 625 l 278 625 m 625 139 l 625 694 l 764 694 l 764 0 l 208 0 l 208 139 l 69 139 l 69 694 l 208 694 l 208 139 l 625 139 z "},"Ű":{"ha":833,"x_min":69,"x_max":833,"o":"m 417 1250 l 417 1111 l 278 1111 l 278 1250 l 417 1250 m 833 1250 l 833 1111 l 694 1111 l 694 1250 l 833 1250 m 208 0 l 208 139 l 69 139 l 69 972 l 139 972 l 139 1111 l 278 1111 l 278 972 l 208 972 l 208 139 l 625 139 l 625 0 l 208 0 m 625 139 l 625 972 l 556 972 l 556 1111 l 694 1111 l 694 972 l 764 972 l 764 139 l 625 139 z "},"ű":{"ha":833,"x_min":69,"x_max":833,"o":"m 417 972 l 417 833 l 278 833 l 278 972 l 417 972 m 833 972 l 833 833 l 694 833 l 694 972 l 833 972 m 625 139 l 625 694 l 556 694 l 556 833 l 694 833 l 694 694 l 764 694 l 764 0 l 208 0 l 208 139 l 69 139 l 69 694 l 139 694 l 139 833 l 278 833 l 278 694 l 208 694 l 208 139 l 625 139 z "},"Ų":{"ha":833,"x_min":69,"x_max":764,"o":"m 208 0 l 208 139 l 69 139 l 69 972 l 208 972 l 208 139 l 625 139 l 625 0 l 556 0 l 556 -139 l 417 -139 l 417 0 l 208 0 m 625 139 l 625 972 l 764 972 l 764 139 l 625 139 z "},"ų":{"ha":833,"x_min":69,"x_max":764,"o":"m 625 139 l 625 694 l 764 694 l 764 0 l 590 0 l 590 -139 l 451 -139 l 451 0 l 208 0 l 208 139 l 69 139 l 69 694 l 208 694 l 208 139 l 625 139 z "},"Ŵ":{"ha":833,"x_min":69,"x_max":764,"o":"m 625 1111 l 625 972 l 486 972 l 486 1111 l 347 1111 l 347 1250 l 486 1250 l 486 1111 l 625 1111 m 347 1111 l 347 972 l 208 972 l 208 1111 l 347 1111 m 347 278 l 347 417 l 486 417 l 486 278 l 625 278 l 625 972 l 764 972 l 764 0 l 625 0 l 625 139 l 486 139 l 486 278 l 347 278 m 69 0 l 69 972 l 208 972 l 208 278 l 347 278 l 347 139 l 208 139 l 208 0 l 69 0 z "},"ŵ":{"ha":833,"x_min":69,"x_max":764,"o":"m 625 833 l 625 694 l 486 694 l 486 833 l 347 833 l 347 972 l 486 972 l 486 833 l 625 833 m 347 833 l 347 694 l 208 694 l 208 833 l 347 833 m 625 139 l 625 694 l 764 694 l 764 0 l 208 0 l 208 139 l 69 139 l 69 694 l 208 694 l 208 139 l 347 139 l 347 417 l 486 417 l 486 139 l 625 139 z "},"Ŷ":{"ha":833,"x_min":69,"x_max":764,"o":"m 208 694 l 208 833 l 69 833 l 69 972 l 208 972 l 208 833 l 347 833 l 347 694 l 486 694 l 486 0 l 347 0 l 347 694 l 208 694 m 486 694 l 486 833 l 625 833 l 625 694 l 486 694 m 625 833 l 625 972 l 764 972 l 764 833 l 625 833 m 625 1111 l 625 972 l 486 972 l 486 1111 l 347 1111 l 347 1250 l 486 1250 l 486 1111 l 625 1111 m 347 1111 l 347 972 l 208 972 l 208 1111 l 347 1111 z "},"ŷ":{"ha":833,"x_min":69,"x_max":764,"o":"m 625 833 l 625 694 l 486 694 l 486 833 l 347 833 l 347 972 l 486 972 l 486 833 l 625 833 m 347 833 l 347 694 l 208 694 l 208 833 l 347 833 m 625 278 l 625 694 l 764 694 l 764 0 l 625 0 l 625 139 l 208 139 l 208 278 l 69 278 l 69 694 l 208 694 l 208 278 l 625 278 m 625 -139 l 69 -139 l 69 0 l 625 0 l 625 -139 z "},"Ÿ":{"ha":833,"x_min":69,"x_max":764,"o":"m 208 694 l 208 833 l 69 833 l 69 972 l 208 972 l 208 833 l 347 833 l 347 694 l 486 694 l 486 0 l 347 0 l 347 694 l 208 694 m 347 1250 l 347 1111 l 208 1111 l 208 1250 l 347 1250 m 625 1250 l 625 1111 l 486 1111 l 486 1250 l 625 1250 m 486 694 l 486 833 l 625 833 l 625 694 l 486 694 m 625 833 l 625 972 l 764 972 l 764 833 l 625 833 z "},"Ź":{"ha":833,"x_min":69,"x_max":764,"o":"m 417 1111 l 417 1250 l 556 1250 l 556 1111 l 417 1111 m 69 833 l 69 972 l 278 972 l 278 1111 l 417 1111 l 417 972 l 764 972 l 764 694 l 625 694 l 625 833 l 69 833 m 486 556 l 486 694 l 625 694 l 625 556 l 486 556 m 347 417 l 347 556 l 486 556 l 486 417 l 347 417 m 208 278 l 208 417 l 347 417 l 347 278 l 208 278 m 69 0 l 69 278 l 208 278 l 208 139 l 764 139 l 764 0 l 69 0 z "},"ź":{"ha":833,"x_min":69,"x_max":764,"o":"m 417 833 l 417 972 l 556 972 l 556 833 l 417 833 m 69 556 l 69 694 l 278 694 l 278 833 l 417 833 l 417 694 l 764 694 l 764 556 l 625 556 l 625 417 l 486 417 l 486 556 l 69 556 m 347 278 l 347 417 l 486 417 l 486 278 l 347 278 m 208 139 l 208 278 l 347 278 l 347 139 l 764 139 l 764 0 l 69 0 l 69 139 l 208 139 z "},"Ż":{"ha":833,"x_min":69,"x_max":764,"o":"m 347 1111 l 347 1250 l 486 1250 l 486 1111 l 347 1111 m 69 833 l 69 972 l 764 972 l 764 694 l 625 694 l 625 833 l 69 833 m 486 556 l 486 694 l 625 694 l 625 556 l 486 556 m 347 417 l 347 556 l 486 556 l 486 417 l 347 417 m 208 278 l 208 417 l 347 417 l 347 278 l 208 278 m 69 0 l 69 278 l 208 278 l 208 139 l 764 139 l 764 0 l 69 0 z "},"ż":{"ha":833,"x_min":69,"x_max":764,"o":"m 347 833 l 347 972 l 486 972 l 486 833 l 347 833 m 69 556 l 69 694 l 764 694 l 764 556 l 625 556 l 625 417 l 486 417 l 486 556 l 69 556 m 347 278 l 347 417 l 486 417 l 486 278 l 347 278 m 208 139 l 208 278 l 347 278 l 347 139 l 764 139 l 764 0 l 69 0 l 69 139 l 208 139 z "},"Ž":{"ha":833,"x_min":69,"x_max":764,"o":"m 69 833 l 69 972 l 347 972 l 347 1111 l 208 1111 l 208 1250 l 347 1250 l 347 1111 l 486 1111 l 486 972 l 764 972 l 764 694 l 625 694 l 625 833 l 69 833 m 625 1250 l 625 1111 l 486 1111 l 486 1250 l 625 1250 m 486 556 l 486 694 l 625 694 l 625 556 l 486 556 m 347 417 l 347 556 l 486 556 l 486 417 l 347 417 m 208 278 l 208 417 l 347 417 l 347 278 l 208 278 m 69 0 l 69 278 l 208 278 l 208 139 l 764 139 l 764 0 l 69 0 z "},"ž":{"ha":833,"x_min":69,"x_max":764,"o":"m 69 556 l 69 694 l 347 694 l 347 833 l 208 833 l 208 972 l 347 972 l 347 833 l 486 833 l 486 694 l 764 694 l 764 556 l 625 556 l 625 417 l 486 417 l 486 556 l 69 556 m 625 972 l 625 833 l 486 833 l 486 972 l 625 972 m 347 278 l 347 417 l 486 417 l 486 278 l 347 278 m 208 139 l 208 278 l 347 278 l 347 139 l 764 139 l 764 0 l 69 0 l 69 139 l 208 139 z "},"ƒ":{"ha":833,"x_min":69,"x_max":764,"o":"m 625 694 l 625 833 l 486 833 l 486 972 l 625 972 l 625 833 l 764 833 l 764 694 l 625 694 m 347 556 l 347 833 l 486 833 l 486 556 l 625 556 l 625 417 l 486 417 l 486 0 l 347 0 l 347 417 l 208 417 l 208 556 l 347 556 m 208 -139 l 208 0 l 69 0 l 69 139 l 208 139 l 208 0 l 347 0 l 347 -139 l 208 -139 z "},"Ǽ":{"ha":1111,"x_min":69,"x_max":1042,"o":"m 625 1111 l 625 1250 l 764 1250 l 764 1111 l 625 1111 m 69 0 l 69 833 l 208 833 l 208 694 l 486 694 l 486 833 l 208 833 l 208 972 l 486 972 l 486 1111 l 625 1111 l 625 972 l 1042 972 l 1042 833 l 625 833 l 625 694 l 903 694 l 903 556 l 625 556 l 625 139 l 1042 139 l 1042 0 l 486 0 l 486 556 l 208 556 l 208 0 l 69 0 z "},"ǽ":{"ha":1111,"x_min":69,"x_max":1042,"o":"m 764 972 l 764 833 l 625 833 l 625 972 l 764 972 m 625 833 l 625 694 l 486 694 l 486 833 l 625 833 m 208 417 l 486 417 l 486 556 l 625 556 l 625 417 l 903 417 l 903 556 l 625 556 l 625 694 l 903 694 l 903 556 l 1042 556 l 1042 278 l 625 278 l 625 139 l 1042 139 l 1042 0 l 625 0 l 625 139 l 486 139 l 486 278 l 208 278 l 208 417 m 486 556 l 208 556 l 208 694 l 486 694 l 486 556 m 208 139 l 486 139 l 486 0 l 208 0 l 208 139 l 69 139 l 69 278 l 208 278 l 208 139 z "},"Ǿ":{"ha":833,"x_min":69,"x_max":764,"o":"m 625 1250 l 625 1111 l 486 1111 l 486 1250 l 625 1250 m 208 833 l 208 972 l 347 972 l 347 1111 l 486 1111 l 486 972 l 625 972 l 625 833 l 764 833 l 764 139 l 625 139 l 625 556 l 486 556 l 486 833 l 208 833 m 208 833 l 208 417 l 347 417 l 347 139 l 625 139 l 625 0 l 208 0 l 208 139 l 69 139 l 69 833 l 208 833 m 347 417 l 347 556 l 486 556 l 486 417 l 347 417 z "},"ǿ":{"ha":833,"x_min":69,"x_max":764,"o":"m 625 972 l 625 833 l 486 833 l 486 972 l 625 972 m 208 556 l 208 694 l 347 694 l 347 833 l 486 833 l 486 694 l 625 694 l 625 556 l 764 556 l 764 139 l 625 139 l 625 417 l 486 417 l 486 556 l 208 556 m 69 139 l 69 556 l 208 556 l 208 278 l 347 278 l 347 139 l 625 139 l 625 0 l 208 0 l 208 139 l 69 139 m 347 278 l 347 417 l 486 417 l 486 278 l 347 278 z "},"Ș":{"ha":833,"x_min":69,"x_max":764,"o":"m 208 833 l 208 972 l 764 972 l 764 833 l 208 833 m 208 556 l 208 694 l 69 694 l 69 833 l 208 833 l 208 694 l 625 694 l 625 556 l 764 556 l 764 139 l 625 139 l 625 556 l 208 556 m 208 0 l 208 139 l 69 139 l 69 278 l 208 278 l 208 139 l 625 139 l 625 0 l 486 0 l 486 -139 l 347 -139 l 347 0 l 208 0 z "},"ș":{"ha":833,"x_min":69,"x_max":764,"o":"m 208 556 l 208 694 l 764 694 l 764 556 l 208 556 m 208 278 l 208 417 l 69 417 l 69 556 l 208 556 l 208 417 l 625 417 l 625 278 l 764 278 l 764 139 l 625 139 l 625 278 l 208 278 m 69 0 l 69 139 l 625 139 l 625 0 l 486 0 l 486 -139 l 347 -139 l 347 0 l 69 0 z "},"Ț":{"ha":833,"x_min":69,"x_max":764,"o":"m 69 833 l 69 972 l 764 972 l 764 833 l 486 833 l 486 -139 l 347 -139 l 347 833 l 69 833 z "},"ț":{"ha":556,"x_min":69,"x_max":486,"o":"m 347 0 l 347 139 l 208 139 l 208 556 l 69 556 l 69 694 l 208 694 l 208 972 l 347 972 l 347 694 l 486 694 l 486 556 l 347 556 l 347 139 l 486 139 l 486 0 l 347 0 m 208 -139 l 208 0 l 347 0 l 347 -139 l 208 -139 z "},"ȷ":{"ha":556,"x_min":69,"x_max":486,"o":"m 347 0 l 347 694 l 486 694 l 486 0 l 347 0 m 347 -139 l 69 -139 l 69 0 l 347 0 l 347 -139 z "},"ˆ":{"ha":556,"x_min":69,"x_max":486,"o":"m 486 833 l 486 694 l 347 694 l 347 833 l 208 833 l 208 972 l 347 972 l 347 833 l 486 833 m 208 833 l 208 694 l 69 694 l 69 833 l 208 833 z "},"ˇ":{"ha":556,"x_min":69,"x_max":486,"o":"m 208 972 l 208 833 l 347 833 l 347 694 l 208 694 l 208 833 l 69 833 l 69 972 l 208 972 m 486 972 l 486 833 l 347 833 l 347 972 l 486 972 z "},"ˉ":{"ha":556,"x_min":69,"x_max":486,"o":"m 69 833 l 69 972 l 486 972 l 486 833 l 69 833 z "},"˘":{"ha":694,"x_min":69,"x_max":625,"o":"m 208 694 l 208 833 l 69 833 l 69 972 l 208 972 l 208 833 l 486 833 l 486 694 l 208 694 m 486 833 l 486 972 l 625 972 l 625 833 l 486 833 z "},"˙":{"ha":278,"x_min":69,"x_max":208,"o":"m 69 833 l 69 972 l 208 972 l 208 833 l 69 833 z "},"˚":{"ha":694,"x_min":69,"x_max":625,"o":"m 486 694 l 486 833 l 208 833 l 208 972 l 486 972 l 486 833 l 625 833 l 625 694 l 486 694 m 208 556 l 208 694 l 69 694 l 69 833 l 208 833 l 208 694 l 486 694 l 486 556 l 208 556 z "},"˛":{"ha":417,"x_min":139,"x_max":278,"o":"m 278 0 l 278 -139 l 139 -139 l 139 0 l 278 0 z "},"˜":{"ha":694,"x_min":69,"x_max":625,"o":"m 486 833 l 486 694 l 347 694 l 347 833 l 208 833 l 208 972 l 347 972 l 347 833 l 486 833 m 625 972 l 625 833 l 486 833 l 486 972 l 625 972 m 208 833 l 208 694 l 69 694 l 69 833 l 208 833 z "},"˝":{"ha":833,"x_min":69,"x_max":764,"o":"m 347 972 l 347 833 l 208 833 l 208 972 l 347 972 m 208 833 l 208 694 l 69 694 l 69 833 l 208 833 m 764 972 l 764 833 l 625 833 l 625 972 l 764 972 m 625 833 l 625 694 l 486 694 l 486 833 l 625 833 z "},"΄":{"ha":417,"x_min":69,"x_max":347,"o":"m 347 972 l 347 833 l 208 833 l 208 972 l 347 972 m 208 833 l 208 694 l 69 694 l 69 833 l 208 833 z "},"΅":{"ha":694,"x_min":69,"x_max":625,"o":"m 417 1042 l 417 764 l 278 764 l 278 1042 l 417 1042 m 625 972 l 625 833 l 486 833 l 486 972 l 625 972 m 208 972 l 208 833 l 69 833 l 69 972 l 208 972 z "},"Ά":{"ha":1111,"x_min":69,"x_max":1042,"o":"m 347 0 l 347 833 l 208 833 l 208 972 l 347 972 l 347 833 l 486 833 l 486 972 l 903 972 l 903 833 l 1042 833 l 1042 0 l 903 0 l 903 556 l 486 556 l 486 0 l 347 0 m 486 833 l 486 694 l 903 694 l 903 833 l 486 833 m 208 833 l 208 694 l 69 694 l 69 833 l 208 833 z "},"Έ":{"ha":1111,"x_min":69,"x_max":1042,"o":"m 347 0 l 347 833 l 208 833 l 208 972 l 1042 972 l 1042 833 l 486 833 l 486 694 l 764 694 l 764 556 l 486 556 l 486 139 l 1042 139 l 1042 0 l 347 0 m 208 833 l 208 694 l 69 694 l 69 833 l 208 833 z "},"Ή":{"ha":1111,"x_min":69,"x_max":1042,"o":"m 347 0 l 347 833 l 208 833 l 208 972 l 486 972 l 486 694 l 903 694 l 903 972 l 1042 972 l 1042 0 l 903 0 l 903 556 l 486 556 l 486 0 l 347 0 m 208 833 l 208 694 l 69 694 l 69 833 l 208 833 z "},"Ί":{"ha":833,"x_min":69,"x_max":764,"o":"m 208 833 l 208 972 l 764 972 l 764 833 l 625 833 l 625 139 l 764 139 l 764 0 l 347 0 l 347 139 l 486 139 l 486 833 l 208 833 m 69 694 l 69 833 l 208 833 l 208 694 l 69 694 z "},"Ό":{"ha":1111,"x_min":69,"x_max":1042,"o":"m 903 139 l 903 833 l 486 833 l 486 972 l 903 972 l 903 833 l 1042 833 l 1042 139 l 903 139 m 347 972 l 347 833 l 208 833 l 208 972 l 347 972 m 486 0 l 486 139 l 347 139 l 347 833 l 486 833 l 486 139 l 903 139 l 903 0 l 486 0 m 208 833 l 208 694 l 69 694 l 69 833 l 208 833 z "},"Ύ":{"ha":1111,"x_min":69,"x_max":1042,"o":"m 486 694 l 486 833 l 208 833 l 208 972 l 486 972 l 486 833 l 625 833 l 625 694 l 764 694 l 764 0 l 625 0 l 625 694 l 486 694 m 903 833 l 903 972 l 1042 972 l 1042 833 l 903 833 m 764 694 l 764 833 l 903 833 l 903 694 l 764 694 m 208 833 l 208 694 l 69 694 l 69 833 l 208 833 z "},"Ώ":{"ha":1111,"x_min":69,"x_max":1042,"o":"m 903 278 l 903 833 l 486 833 l 486 972 l 903 972 l 903 833 l 1042 833 l 1042 278 l 903 278 m 347 972 l 347 833 l 208 833 l 208 972 l 347 972 m 347 0 l 347 139 l 486 139 l 486 278 l 347 278 l 347 833 l 486 833 l 486 278 l 625 278 l 625 0 l 347 0 m 208 833 l 208 694 l 69 694 l 69 833 l 208 833 m 1042 0 l 764 0 l 764 278 l 903 278 l 903 139 l 1042 139 l 1042 0 z "},"ΐ":{"ha":417,"x_min":-139,"x_max":417,"o":"m 208 1042 l 208 764 l 69 764 l 69 1042 l 208 1042 m 417 972 l 417 833 l 278 833 l 278 972 l 417 972 m 0 972 l 0 833 l -139 833 l -139 972 l 0 972 m 208 0 l 208 139 l 69 139 l 69 694 l 208 694 l 208 139 l 347 139 l 347 0 l 208 0 z "},"Α":{"ha":833,"x_min":69,"x_max":764,"o":"m 69 0 l 69 833 l 208 833 l 208 972 l 625 972 l 625 833 l 764 833 l 764 0 l 625 0 l 625 556 l 208 556 l 208 0 l 69 0 m 208 833 l 208 694 l 625 694 l 625 833 l 208 833 z "},"Β":{"ha":833,"x_min":69,"x_max":764,"o":"m 625 139 l 625 556 l 208 556 l 208 139 l 625 139 l 625 0 l 69 0 l 69 972 l 625 972 l 625 833 l 764 833 l 764 694 l 625 694 l 625 833 l 208 833 l 208 694 l 625 694 l 625 556 l 764 556 l 764 139 l 625 139 z "},"Γ":{"ha":833,"x_min":69,"x_max":764,"o":"m 208 833 l 208 0 l 69 0 l 69 972 l 764 972 l 764 833 l 208 833 z "},"Δ":{"ha":833,"x_min":69,"x_max":764,"o":"m 69 0 l 69 556 l 208 556 l 208 139 l 625 139 l 625 556 l 486 556 l 486 833 l 347 833 l 347 972 l 486 972 l 486 833 l 625 833 l 625 556 l 764 556 l 764 0 l 69 0 m 208 556 l 208 833 l 347 833 l 347 556 l 208 556 z "},"Ε":{"ha":833,"x_min":69,"x_max":764,"o":"m 69 0 l 69 972 l 764 972 l 764 833 l 208 833 l 208 694 l 486 694 l 486 556 l 208 556 l 208 139 l 764 139 l 764 0 l 69 0 z "},"Ζ":{"ha":833,"x_min":69,"x_max":764,"o":"m 69 833 l 69 972 l 764 972 l 764 694 l 625 694 l 625 833 l 69 833 m 486 556 l 486 694 l 625 694 l 625 556 l 486 556 m 347 417 l 347 556 l 486 556 l 486 417 l 347 417 m 208 278 l 208 417 l 347 417 l 347 278 l 208 278 m 69 0 l 69 278 l 208 278 l 208 139 l 764 139 l 764 0 l 69 0 z "},"Η":{"ha":833,"x_min":69,"x_max":764,"o":"m 69 0 l 69 972 l 208 972 l 208 694 l 625 694 l 625 972 l 764 972 l 764 0 l 625 0 l 625 556 l 208 556 l 208 0 l 69 0 z "},"Θ":{"ha":833,"x_min":69,"x_max":764,"o":"m 625 139 l 625 833 l 208 833 l 208 972 l 625 972 l 625 833 l 764 833 l 764 139 l 625 139 m 208 0 l 208 139 l 69 139 l 69 833 l 208 833 l 208 139 l 625 139 l 625 0 l 208 0 m 486 417 l 347 417 l 347 556 l 486 556 l 486 417 z "},"Ι":{"ha":556,"x_min":69,"x_max":486,"o":"m 69 833 l 69 972 l 486 972 l 486 833 l 347 833 l 347 139 l 486 139 l 486 0 l 69 0 l 69 139 l 208 139 l 208 833 l 69 833 z "},"Κ":{"ha":833,"x_min":69,"x_max":764,"o":"m 625 0 l 625 417 l 486 417 l 486 556 l 208 556 l 208 0 l 69 0 l 69 972 l 208 972 l 208 694 l 486 694 l 486 556 l 625 556 l 625 417 l 764 417 l 764 0 l 625 0 m 625 833 l 625 972 l 764 972 l 764 833 l 625 833 m 486 694 l 486 833 l 625 833 l 625 694 l 486 694 z "},"Λ":{"ha":833,"x_min":69,"x_max":764,"o":"m 486 556 l 486 833 l 347 833 l 347 972 l 486 972 l 486 833 l 625 833 l 625 556 l 764 556 l 764 0 l 625 0 l 625 556 l 486 556 m 208 556 l 208 833 l 347 833 l 347 556 l 208 556 m 69 0 l 69 556 l 208 556 l 208 0 l 69 0 z "},"Μ":{"ha":833,"x_min":69,"x_max":764,"o":"m 347 556 l 347 694 l 208 694 l 208 0 l 69 0 l 69 972 l 208 972 l 208 833 l 347 833 l 347 694 l 486 694 l 486 556 l 347 556 m 625 833 l 625 972 l 764 972 l 764 0 l 625 0 l 625 694 l 486 694 l 486 833 l 625 833 z "},"Ν":{"ha":833,"x_min":69,"x_max":764,"o":"m 347 556 l 347 694 l 208 694 l 208 0 l 69 0 l 69 972 l 208 972 l 208 833 l 347 833 l 347 694 l 486 694 l 486 556 l 625 556 l 625 972 l 764 972 l 764 0 l 625 0 l 625 417 l 486 417 l 486 556 l 347 556 z "},"Ξ":{"ha":833,"x_min":69,"x_max":764,"o":"m 764 833 l 69 833 l 69 972 l 764 972 l 764 833 m 625 417 l 208 417 l 208 556 l 625 556 l 625 417 m 69 0 l 69 139 l 764 139 l 764 0 l 69 0 z "},"Ο":{"ha":833,"x_min":69,"x_max":764,"o":"m 625 139 l 625 833 l 208 833 l 208 972 l 625 972 l 625 833 l 764 833 l 764 139 l 625 139 m 208 0 l 208 139 l 69 139 l 69 833 l 208 833 l 208 139 l 625 139 l 625 0 l 208 0 z "},"Π":{"ha":833,"x_min":69,"x_max":764,"o":"m 69 0 l 69 972 l 764 972 l 764 0 l 625 0 l 625 833 l 208 833 l 208 0 l 69 0 z "},"Ρ":{"ha":833,"x_min":69,"x_max":764,"o":"m 625 694 l 625 556 l 208 556 l 208 0 l 69 0 l 69 972 l 625 972 l 625 833 l 764 833 l 764 694 l 625 694 l 625 833 l 208 833 l 208 694 l 625 694 z "},"Σ":{"ha":833,"x_min":69,"x_max":764,"o":"m 347 417 l 347 556 l 208 556 l 208 694 l 69 694 l 69 972 l 764 972 l 764 833 l 208 833 l 208 694 l 347 694 l 347 556 l 486 556 l 486 417 l 347 417 m 208 278 l 208 417 l 347 417 l 347 278 l 208 278 m 69 0 l 69 278 l 208 278 l 208 139 l 764 139 l 764 0 l 69 0 z "},"Τ":{"ha":833,"x_min":69,"x_max":764,"o":"m 69 833 l 69 972 l 764 972 l 764 833 l 486 833 l 486 0 l 347 0 l 347 833 l 69 833 z "},"Υ":{"ha":833,"x_min":69,"x_max":764,"o":"m 208 694 l 208 833 l 69 833 l 69 972 l 208 972 l 208 833 l 347 833 l 347 694 l 486 694 l 486 0 l 347 0 l 347 694 l 208 694 m 486 694 l 486 833 l 625 833 l 625 694 l 486 694 m 625 833 l 625 972 l 764 972 l 764 833 l 625 833 z "},"Φ":{"ha":833,"x_min":69,"x_max":764,"o":"m 625 278 l 625 139 l 486 139 l 486 0 l 347 0 l 347 139 l 208 139 l 208 278 l 69 278 l 69 694 l 208 694 l 208 278 l 347 278 l 347 694 l 208 694 l 208 833 l 347 833 l 347 972 l 486 972 l 486 833 l 625 833 l 625 694 l 764 694 l 764 278 l 625 278 l 625 694 l 486 694 l 486 278 l 625 278 z "},"Χ":{"ha":833,"x_min":69,"x_max":764,"o":"m 208 694 l 208 833 l 69 833 l 69 972 l 208 972 l 208 833 l 347 833 l 347 694 l 486 694 l 486 556 l 625 556 l 625 417 l 764 417 l 764 0 l 625 0 l 625 417 l 486 417 l 486 556 l 347 556 l 347 694 l 208 694 m 625 833 l 625 972 l 764 972 l 764 833 l 625 833 m 486 694 l 486 833 l 625 833 l 625 694 l 486 694 m 208 417 l 208 556 l 347 556 l 347 417 l 208 417 m 69 0 l 69 417 l 208 417 l 208 0 l 69 0 z "},"Ψ":{"ha":833,"x_min":69,"x_max":764,"o":"m 208 556 l 347 556 l 347 972 l 486 972 l 486 556 l 625 556 l 625 417 l 486 417 l 486 0 l 347 0 l 347 417 l 208 417 l 208 556 l 69 556 l 69 972 l 208 972 l 208 556 m 625 556 l 625 972 l 764 972 l 764 556 l 625 556 z "},"Ω":{"ha":833,"x_min":69,"x_max":764,"o":"m 625 278 l 625 833 l 208 833 l 208 972 l 625 972 l 625 833 l 764 833 l 764 278 l 625 278 m 69 0 l 69 139 l 208 139 l 208 278 l 69 278 l 69 833 l 208 833 l 208 278 l 347 278 l 347 0 l 69 0 m 764 0 l 486 0 l 486 278 l 625 278 l 625 139 l 764 139 l 764 0 z "},"Ϊ":{"ha":556,"x_min":69,"x_max":486,"o":"m 486 1250 l 486 1111 l 347 1111 l 347 1250 l 486 1250 m 208 1250 l 208 1111 l 69 1111 l 69 1250 l 208 1250 m 69 833 l 69 972 l 486 972 l 486 833 l 347 833 l 347 139 l 486 139 l 486 0 l 69 0 l 69 139 l 208 139 l 208 833 l 69 833 z "},"Ϋ":{"ha":833,"x_min":69,"x_max":764,"o":"m 208 694 l 208 833 l 69 833 l 69 972 l 208 972 l 208 833 l 347 833 l 347 694 l 486 694 l 486 0 l 347 0 l 347 694 l 208 694 m 347 1250 l 347 1111 l 208 1111 l 208 1250 l 347 1250 m 625 1250 l 625 1111 l 486 1111 l 486 1250 l 625 1250 m 486 694 l 486 833 l 625 833 l 625 694 l 486 694 m 625 833 l 625 972 l 764 972 l 764 833 l 625 833 z "},"ά":{"ha":833,"x_min":69,"x_max":764,"o":"m 556 972 l 556 833 l 417 833 l 417 972 l 556 972 m 625 139 l 486 139 l 486 556 l 208 556 l 208 694 l 278 694 l 278 833 l 417 833 l 417 694 l 486 694 l 486 556 l 625 556 l 625 139 m 625 556 l 625 694 l 764 694 l 764 556 l 625 556 m 208 556 l 208 139 l 486 139 l 486 0 l 208 0 l 208 139 l 69 139 l 69 556 l 208 556 m 625 139 l 764 139 l 764 0 l 625 0 l 625 139 z "},"έ":{"ha":833,"x_min":69,"x_max":764,"o":"m 694 972 l 694 833 l 556 833 l 556 972 l 694 972 m 208 556 l 208 694 l 417 694 l 417 833 l 556 833 l 556 694 l 764 694 l 764 556 l 208 556 m 208 278 l 208 417 l 69 417 l 69 556 l 208 556 l 208 417 l 625 417 l 625 278 l 208 278 m 69 139 l 69 278 l 208 278 l 208 139 l 764 139 l 764 0 l 208 0 l 208 139 l 69 139 z "},"ή":{"ha":833,"x_min":69,"x_max":764,"o":"m 556 972 l 556 833 l 417 833 l 417 972 l 556 972 m 625 -139 l 625 556 l 208 556 l 208 0 l 69 0 l 69 694 l 278 694 l 278 833 l 417 833 l 417 694 l 625 694 l 625 556 l 764 556 l 764 -139 l 625 -139 z "},"ί":{"ha":417,"x_min":0,"x_max":347,"o":"m 278 972 l 278 833 l 139 833 l 139 972 l 278 972 m 208 0 l 208 139 l 69 139 l 69 694 l 0 694 l 0 833 l 139 833 l 139 694 l 208 694 l 208 139 l 347 139 l 347 0 l 208 0 z "},"ΰ":{"ha":833,"x_min":69,"x_max":764,"o":"m 417 1042 l 417 764 l 278 764 l 278 1042 l 417 1042 m 625 972 l 625 833 l 486 833 l 486 972 l 625 972 m 208 972 l 208 833 l 69 833 l 69 972 l 208 972 m 625 0 l 208 0 l 208 139 l 69 139 l 69 694 l 208 694 l 208 139 l 625 139 l 625 0 m 625 694 l 625 556 l 764 556 l 764 139 l 625 139 l 625 556 l 486 556 l 486 694 l 625 694 z "},"α":{"ha":833,"x_min":69,"x_max":764,"o":"m 625 139 l 486 139 l 486 556 l 208 556 l 208 694 l 486 694 l 486 556 l 625 556 l 625 139 m 208 556 l 208 139 l 486 139 l 486 0 l 208 0 l 208 139 l 69 139 l 69 556 l 208 556 m 625 556 l 625 694 l 764 694 l 764 556 l 625 556 m 625 139 l 764 139 l 764 0 l 625 0 l 625 139 z "},"β":{"ha":694,"x_min":69,"x_max":625,"o":"m 208 833 l 208 972 l 486 972 l 486 833 l 625 833 l 625 556 l 486 556 l 486 833 l 208 833 m 208 417 l 208 139 l 486 139 l 486 0 l 208 0 l 208 -139 l 69 -139 l 69 833 l 208 833 l 208 556 l 486 556 l 486 417 l 625 417 l 625 139 l 486 139 l 486 417 l 208 417 z "},"γ":{"ha":833,"x_min":69,"x_max":764,"o":"m 347 139 l 208 139 l 208 278 l 69 278 l 69 694 l 208 694 l 208 278 l 347 278 l 347 139 m 625 278 l 625 694 l 764 694 l 764 278 l 625 278 m 625 139 l 486 139 l 486 278 l 625 278 l 625 139 m 347 139 l 486 139 l 486 -139 l 347 -139 l 347 139 z "},"δ":{"ha":833,"x_min":69,"x_max":764,"o":"m 347 972 l 625 972 l 625 833 l 347 833 l 347 972 m 625 139 l 625 417 l 486 417 l 486 556 l 347 556 l 347 694 l 208 694 l 208 833 l 347 833 l 347 694 l 486 694 l 486 556 l 625 556 l 625 417 l 764 417 l 764 139 l 625 139 m 208 417 l 208 556 l 347 556 l 347 417 l 208 417 m 69 139 l 69 417 l 208 417 l 208 139 l 625 139 l 625 0 l 208 0 l 208 139 l 69 139 z "},"ε":{"ha":833,"x_min":69,"x_max":764,"o":"m 69 139 l 69 278 l 208 278 l 208 139 l 764 139 l 764 0 l 208 0 l 208 139 l 69 139 m 208 278 l 208 417 l 69 417 l 69 556 l 208 556 l 208 417 l 625 417 l 625 278 l 208 278 m 208 556 l 208 694 l 764 694 l 764 556 l 208 556 z "},"ζ":{"ha":833,"x_min":69,"x_max":764,"o":"m 208 972 l 486 972 l 486 833 l 625 833 l 625 694 l 486 694 l 486 833 l 208 833 l 208 972 m 486 556 l 347 556 l 347 694 l 486 694 l 486 556 m 208 417 l 208 556 l 347 556 l 347 417 l 208 417 m 625 139 l 208 139 l 208 278 l 69 278 l 69 417 l 208 417 l 208 278 l 625 278 l 625 139 m 625 139 l 764 139 l 764 0 l 625 0 l 625 139 m 625 -139 l 486 -139 l 486 0 l 625 0 l 625 -139 z "},"η":{"ha":833,"x_min":69,"x_max":764,"o":"m 625 -139 l 625 556 l 208 556 l 208 0 l 69 0 l 69 694 l 625 694 l 625 556 l 764 556 l 764 -139 l 625 -139 z "},"θ":{"ha":833,"x_min":69,"x_max":764,"o":"m 208 833 l 208 972 l 625 972 l 625 833 l 764 833 l 764 139 l 625 139 l 625 417 l 208 417 l 208 139 l 625 139 l 625 0 l 208 0 l 208 139 l 69 139 l 69 833 l 208 833 l 208 556 l 625 556 l 625 833 l 208 833 z "},"ι":{"ha":417,"x_min":69,"x_max":347,"o":"m 208 0 l 208 139 l 69 139 l 69 694 l 208 694 l 208 139 l 347 139 l 347 0 l 208 0 z "},"κ":{"ha":694,"x_min":69,"x_max":625,"o":"m 347 139 l 347 278 l 208 278 l 208 0 l 69 0 l 69 694 l 208 694 l 208 417 l 347 417 l 347 278 l 486 278 l 486 139 l 625 139 l 625 0 l 486 0 l 486 139 l 347 139 m 486 556 l 486 694 l 625 694 l 625 556 l 486 556 m 347 417 l 347 556 l 486 556 l 486 417 l 347 417 z "},"λ":{"ha":833,"x_min":69,"x_max":764,"o":"m 347 556 l 347 694 l 69 694 l 69 833 l 347 833 l 347 694 l 486 694 l 486 556 l 625 556 l 625 278 l 764 278 l 764 0 l 625 0 l 625 278 l 486 278 l 486 556 l 347 556 m 208 278 l 208 556 l 347 556 l 347 278 l 208 278 m 69 0 l 69 278 l 208 278 l 208 0 l 69 0 z "},"μ":{"ha":833,"x_min":69,"x_max":764,"o":"m 208 139 l 208 -139 l 69 -139 l 69 694 l 208 694 l 208 278 l 347 278 l 347 139 l 625 139 l 625 0 l 347 0 l 347 139 l 208 139 m 764 694 l 764 139 l 625 139 l 625 694 l 764 694 z "},"ν":{"ha":833,"x_min":69,"x_max":764,"o":"m 208 139 l 208 278 l 69 278 l 69 694 l 208 694 l 208 278 l 347 278 l 347 139 l 486 139 l 486 0 l 347 0 l 347 139 l 208 139 m 625 278 l 625 694 l 764 694 l 764 278 l 625 278 m 486 139 l 486 278 l 625 278 l 625 139 l 486 139 z "},"ξ":{"ha":833,"x_min":69,"x_max":764,"o":"m 208 694 l 208 833 l 69 833 l 69 972 l 208 972 l 208 833 l 625 833 l 625 694 l 208 694 m 69 556 l 69 694 l 208 694 l 208 556 l 625 556 l 625 417 l 208 417 l 208 556 l 69 556 m 625 139 l 208 139 l 208 278 l 69 278 l 69 417 l 208 417 l 208 278 l 625 278 l 625 139 m 625 139 l 764 139 l 764 0 l 625 0 l 625 139 m 625 -139 l 486 -139 l 486 0 l 625 0 l 625 -139 z "},"ο":{"ha":833,"x_min":69,"x_max":764,"o":"m 625 139 l 625 556 l 208 556 l 208 694 l 625 694 l 625 556 l 764 556 l 764 139 l 625 139 m 208 0 l 208 139 l 69 139 l 69 556 l 208 556 l 208 139 l 625 139 l 625 0 l 208 0 z "},"π":{"ha":833,"x_min":69,"x_max":764,"o":"m 625 0 l 625 556 l 208 556 l 208 0 l 69 0 l 69 694 l 764 694 l 764 0 l 625 0 z "},"ρ":{"ha":833,"x_min":69,"x_max":764,"o":"m 208 556 l 208 694 l 625 694 l 625 556 l 764 556 l 764 278 l 625 278 l 625 556 l 208 556 m 208 556 l 208 278 l 625 278 l 625 139 l 208 139 l 208 -139 l 69 -139 l 69 556 l 208 556 z "},"ς":{"ha":833,"x_min":69,"x_max":764,"o":"m 625 417 l 625 556 l 208 556 l 208 694 l 625 694 l 625 556 l 764 556 l 764 417 l 625 417 m 625 139 l 208 139 l 208 278 l 69 278 l 69 556 l 208 556 l 208 278 l 625 278 l 625 139 m 625 139 l 764 139 l 764 0 l 625 0 l 625 139 m 625 -139 l 486 -139 l 486 0 l 625 0 l 625 -139 z "},"σ":{"ha":833,"x_min":69,"x_max":833,"o":"m 208 556 l 208 694 l 833 694 l 833 556 l 694 556 l 694 139 l 556 139 l 556 556 l 208 556 m 208 0 l 208 139 l 69 139 l 69 556 l 208 556 l 208 139 l 556 139 l 556 0 l 208 0 z "},"τ":{"ha":833,"x_min":69,"x_max":764,"o":"m 347 139 l 347 556 l 69 556 l 69 694 l 764 694 l 764 556 l 486 556 l 486 139 l 625 139 l 625 0 l 486 0 l 486 139 l 347 139 z "},"υ":{"ha":833,"x_min":69,"x_max":764,"o":"m 625 0 l 208 0 l 208 139 l 69 139 l 69 694 l 208 694 l 208 139 l 625 139 l 625 0 m 625 694 l 625 556 l 764 556 l 764 139 l 625 139 l 625 556 l 486 556 l 486 694 l 625 694 z "},"φ":{"ha":833,"x_min":69,"x_max":764,"o":"m 625 278 l 625 139 l 486 139 l 486 -139 l 347 -139 l 347 139 l 208 139 l 208 278 l 69 278 l 69 556 l 208 556 l 208 278 l 347 278 l 347 556 l 208 556 l 208 694 l 347 694 l 347 972 l 486 972 l 486 694 l 625 694 l 625 556 l 764 556 l 764 278 l 625 278 l 625 556 l 486 556 l 486 278 l 625 278 z "},"χ":{"ha":833,"x_min":69,"x_max":764,"o":"m 208 417 l 208 556 l 69 556 l 69 694 l 208 694 l 208 556 l 347 556 l 347 417 l 486 417 l 486 278 l 625 278 l 625 139 l 764 139 l 764 0 l 625 0 l 625 139 l 486 139 l 486 278 l 347 278 l 347 417 l 208 417 m 625 556 l 625 694 l 764 694 l 764 556 l 625 556 m 486 417 l 486 556 l 625 556 l 625 417 l 486 417 m 208 139 l 208 278 l 347 278 l 347 139 l 208 139 m 69 0 l 69 139 l 208 139 l 208 0 l 69 0 z "},"ψ":{"ha":833,"x_min":69,"x_max":764,"o":"m 625 278 l 625 139 l 486 139 l 486 -139 l 347 -139 l 347 139 l 208 139 l 208 278 l 69 278 l 69 694 l 208 694 l 208 278 l 347 278 l 347 972 l 486 972 l 486 278 l 625 278 m 625 278 l 625 694 l 764 694 l 764 278 l 625 278 z "},"ω":{"ha":833,"x_min":69,"x_max":764,"o":"m 625 694 l 625 556 l 764 556 l 764 139 l 625 139 l 625 556 l 486 556 l 486 694 l 625 694 m 208 139 l 69 139 l 69 556 l 208 556 l 208 139 m 486 139 l 347 139 l 347 417 l 486 417 l 486 139 m 486 139 l 625 139 l 625 0 l 486 0 l 486 139 m 208 139 l 347 139 l 347 0 l 208 0 l 208 139 m 347 694 l 347 556 l 208 556 l 208 694 l 347 694 z "},"ϊ":{"ha":417,"x_min":-69,"x_max":347,"o":"m 347 972 l 347 833 l 208 833 l 208 972 l 347 972 m 69 972 l 69 833 l -69 833 l -69 972 l 69 972 m 208 0 l 208 139 l 69 139 l 69 694 l 208 694 l 208 139 l 347 139 l 347 0 l 208 0 z "},"ϋ":{"ha":833,"x_min":69,"x_max":764,"o":"m 625 972 l 625 833 l 486 833 l 486 972 l 625 972 m 347 972 l 347 833 l 208 833 l 208 972 l 347 972 m 625 0 l 208 0 l 208 139 l 69 139 l 69 694 l 208 694 l 208 139 l 625 139 l 625 0 m 625 694 l 625 556 l 764 556 l 764 139 l 625 139 l 625 556 l 486 556 l 486 694 l 625 694 z "},"ό":{"ha":833,"x_min":69,"x_max":764,"o":"m 625 972 l 625 833 l 486 833 l 486 972 l 625 972 m 625 139 l 625 556 l 208 556 l 208 694 l 347 694 l 347 833 l 486 833 l 486 694 l 625 694 l 625 556 l 764 556 l 764 139 l 625 139 m 208 0 l 208 139 l 69 139 l 69 556 l 208 556 l 208 139 l 625 139 l 625 0 l 208 0 z "},"ύ":{"ha":833,"x_min":69,"x_max":764,"o":"m 556 972 l 556 833 l 417 833 l 417 972 l 556 972 m 417 833 l 417 694 l 278 694 l 278 833 l 417 833 m 625 0 l 208 0 l 208 139 l 69 139 l 69 694 l 208 694 l 208 139 l 625 139 l 625 0 m 625 694 l 625 556 l 764 556 l 764 139 l 625 139 l 625 556 l 486 556 l 486 694 l 625 694 z "},"ώ":{"ha":833,"x_min":69,"x_max":764,"o":"m 625 972 l 625 833 l 486 833 l 486 972 l 625 972 m 347 694 l 347 833 l 486 833 l 486 694 l 347 694 m 625 694 l 625 556 l 764 556 l 764 139 l 625 139 l 625 556 l 486 556 l 486 694 l 625 694 m 208 556 l 208 694 l 347 694 l 347 556 l 208 556 m 208 139 l 69 139 l 69 556 l 208 556 l 208 139 m 486 139 l 347 139 l 347 417 l 486 417 l 486 139 m 486 139 l 625 139 l 625 0 l 486 0 l 486 139 m 208 139 l 347 139 l 347 0 l 208 0 l 208 139 z "},"Ѐ":{"ha":833,"x_min":69,"x_max":764,"o":"m 69 0 l 69 972 l 417 972 l 417 1111 l 278 1111 l 278 1250 l 417 1250 l 417 1111 l 556 1111 l 556 972 l 764 972 l 764 833 l 208 833 l 208 694 l 486 694 l 486 556 l 208 556 l 208 139 l 764 139 l 764 0 l 69 0 z "},"Ё":{"ha":833,"x_min":69,"x_max":764,"o":"m 625 1250 l 625 1111 l 486 1111 l 486 1250 l 625 1250 m 347 1250 l 347 1111 l 208 1111 l 208 1250 l 347 1250 m 69 0 l 69 972 l 764 972 l 764 833 l 208 833 l 208 694 l 486 694 l 486 556 l 208 556 l 208 139 l 764 139 l 764 0 l 69 0 z "},"Ђ":{"ha":972,"x_min":69,"x_max":903,"o":"m 764 556 l 764 417 l 903 417 l 903 139 l 764 139 l 764 417 l 486 417 l 486 0 l 347 0 l 347 833 l 69 833 l 69 972 l 764 972 l 764 833 l 486 833 l 486 556 l 764 556 m 625 0 l 625 139 l 764 139 l 764 0 l 625 0 z "},"Ѓ":{"ha":833,"x_min":69,"x_max":764,"o":"m 486 1111 l 486 1250 l 625 1250 l 625 1111 l 486 1111 m 69 0 l 69 972 l 347 972 l 347 1111 l 486 1111 l 486 972 l 764 972 l 764 833 l 208 833 l 208 0 l 69 0 z "},"Є":{"ha":833,"x_min":69,"x_max":764,"o":"m 625 694 l 625 833 l 208 833 l 208 972 l 625 972 l 625 833 l 764 833 l 764 694 l 625 694 m 69 139 l 69 833 l 208 833 l 208 556 l 486 556 l 486 417 l 208 417 l 208 139 l 625 139 l 625 0 l 208 0 l 208 139 l 69 139 m 625 139 l 625 278 l 764 278 l 764 139 l 625 139 z "},"Ѕ":{"ha":833,"x_min":69,"x_max":764,"o":"m 208 833 l 208 972 l 764 972 l 764 833 l 208 833 m 208 556 l 208 694 l 69 694 l 69 833 l 208 833 l 208 694 l 625 694 l 625 556 l 764 556 l 764 139 l 625 139 l 625 556 l 208 556 m 208 0 l 208 139 l 69 139 l 69 278 l 208 278 l 208 139 l 625 139 l 625 0 l 208 0 z "},"І":{"ha":556,"x_min":69,"x_max":486,"o":"m 69 833 l 69 972 l 486 972 l 486 833 l 347 833 l 347 139 l 486 139 l 486 0 l 69 0 l 69 139 l 208 139 l 208 833 l 69 833 z "},"Ї":{"ha":556,"x_min":69,"x_max":486,"o":"m 486 1250 l 486 1111 l 347 1111 l 347 1250 l 486 1250 m 208 1250 l 208 1111 l 69 1111 l 69 1250 l 208 1250 m 69 833 l 69 972 l 486 972 l 486 833 l 347 833 l 347 139 l 486 139 l 486 0 l 69 0 l 69 139 l 208 139 l 208 833 l 69 833 z "},"Ј":{"ha":833,"x_min":69,"x_max":764,"o":"m 625 139 l 625 972 l 764 972 l 764 139 l 625 139 m 208 0 l 208 139 l 69 139 l 69 278 l 208 278 l 208 139 l 625 139 l 625 0 l 208 0 z "},"Љ":{"ha":1250,"x_min":69,"x_max":1181,"o":"m 347 833 l 347 139 l 208 139 l 208 972 l 764 972 l 764 556 l 1042 556 l 1042 417 l 1181 417 l 1181 139 l 1042 139 l 1042 417 l 764 417 l 764 139 l 1042 139 l 1042 0 l 625 0 l 625 833 l 347 833 m 69 139 l 208 139 l 208 0 l 69 0 l 69 139 z "},"Њ":{"ha":1111,"x_min":69,"x_max":1042,"o":"m 903 139 l 903 0 l 486 0 l 486 417 l 208 417 l 208 0 l 69 0 l 69 972 l 208 972 l 208 556 l 486 556 l 486 972 l 625 972 l 625 556 l 903 556 l 903 417 l 1042 417 l 1042 139 l 903 139 l 903 417 l 625 417 l 625 139 l 903 139 z "},"Ћ":{"ha":972,"x_min":69,"x_max":903,"o":"m 764 556 l 764 417 l 903 417 l 903 0 l 764 0 l 764 417 l 486 417 l 486 0 l 347 0 l 347 833 l 69 833 l 69 972 l 764 972 l 764 833 l 486 833 l 486 556 l 764 556 z "},"Ќ":{"ha":833,"x_min":69,"x_max":764,"o":"m 590 1250 l 590 1111 l 451 1111 l 451 1250 l 590 1250 m 451 1111 l 451 972 l 313 972 l 313 1111 l 451 1111 m 625 0 l 625 417 l 486 417 l 486 556 l 208 556 l 208 0 l 69 0 l 69 972 l 208 972 l 208 694 l 486 694 l 486 556 l 625 556 l 625 417 l 764 417 l 764 0 l 625 0 m 625 833 l 625 972 l 764 972 l 764 833 l 625 833 m 486 694 l 486 833 l 625 833 l 625 694 l 486 694 z "},"Ѝ":{"ha":833,"x_min":69,"x_max":764,"o":"m 347 972 l 347 1111 l 208 1111 l 208 1250 l 347 1250 l 347 1111 l 486 1111 l 486 972 l 347 972 m 208 972 l 208 417 l 347 417 l 347 278 l 208 278 l 208 0 l 69 0 l 69 972 l 208 972 m 486 556 l 486 694 l 625 694 l 625 972 l 764 972 l 764 0 l 625 0 l 625 556 l 486 556 m 347 417 l 347 556 l 486 556 l 486 417 l 347 417 z "},"Ў":{"ha":833,"x_min":69,"x_max":764,"o":"m 278 972 l 278 1111 l 139 1111 l 139 1250 l 278 1250 l 278 1111 l 556 1111 l 556 972 l 278 972 m 556 1111 l 556 1250 l 694 1250 l 694 1111 l 556 1111 m 208 417 l 208 556 l 69 556 l 69 972 l 208 972 l 208 556 l 347 556 l 347 417 l 486 417 l 486 278 l 347 278 l 347 417 l 208 417 m 625 556 l 625 972 l 764 972 l 764 556 l 625 556 m 486 417 l 486 556 l 625 556 l 625 417 l 486 417 m 208 139 l 208 278 l 347 278 l 347 139 l 208 139 m 69 0 l 69 139 l 208 139 l 208 0 l 69 0 z "},"Џ":{"ha":833,"x_min":69,"x_max":764,"o":"m 347 -139 l 347 0 l 69 0 l 69 972 l 208 972 l 208 139 l 625 139 l 625 972 l 764 972 l 764 0 l 486 0 l 486 -139 l 347 -139 z "},"А":{"ha":833,"x_min":69,"x_max":764,"o":"m 69 0 l 69 833 l 208 833 l 208 972 l 625 972 l 625 833 l 764 833 l 764 0 l 625 0 l 625 556 l 208 556 l 208 0 l 69 0 m 208 833 l 208 694 l 625 694 l 625 833 l 208 833 z "},"Б":{"ha":833,"x_min":69,"x_max":764,"o":"m 625 139 l 625 417 l 208 417 l 208 139 l 625 139 l 625 0 l 69 0 l 69 972 l 625 972 l 625 833 l 208 833 l 208 556 l 625 556 l 625 417 l 764 417 l 764 139 l 625 139 z "},"В":{"ha":833,"x_min":69,"x_max":764,"o":"m 625 139 l 625 556 l 208 556 l 208 139 l 625 139 l 625 0 l 69 0 l 69 972 l 625 972 l 625 833 l 764 833 l 764 694 l 625 694 l 625 833 l 208 833 l 208 694 l 625 694 l 625 556 l 764 556 l 764 139 l 625 139 z "},"Г":{"ha":833,"x_min":69,"x_max":764,"o":"m 208 833 l 208 0 l 69 0 l 69 972 l 764 972 l 764 833 l 208 833 z "},"Д":{"ha":972,"x_min":69,"x_max":903,"o":"m 139 278 l 278 278 l 278 139 l 694 139 l 694 833 l 417 833 l 417 278 l 278 278 l 278 972 l 833 972 l 833 139 l 903 139 l 903 -139 l 764 -139 l 764 0 l 208 0 l 208 -139 l 69 -139 l 69 139 l 139 139 l 139 278 z "},"Е":{"ha":833,"x_min":69,"x_max":764,"o":"m 69 0 l 69 972 l 764 972 l 764 833 l 208 833 l 208 694 l 486 694 l 486 556 l 208 556 l 208 139 l 764 139 l 764 0 l 69 0 z "},"Ж":{"ha":1111,"x_min":69,"x_max":1042,"o":"m 903 0 l 903 417 l 764 417 l 764 556 l 625 556 l 625 0 l 486 0 l 486 556 l 347 556 l 347 694 l 208 694 l 208 833 l 69 833 l 69 972 l 208 972 l 208 833 l 347 833 l 347 694 l 486 694 l 486 972 l 625 972 l 625 694 l 764 694 l 764 556 l 903 556 l 903 417 l 1042 417 l 1042 0 l 903 0 m 903 833 l 903 972 l 1042 972 l 1042 833 l 903 833 m 764 694 l 764 833 l 903 833 l 903 694 l 764 694 m 208 417 l 208 556 l 347 556 l 347 417 l 208 417 m 69 0 l 69 417 l 208 417 l 208 0 l 69 0 z "},"З":{"ha":833,"x_min":69,"x_max":764,"o":"m 69 833 l 69 972 l 625 972 l 625 833 l 764 833 l 764 694 l 625 694 l 625 833 l 69 833 m 625 139 l 625 556 l 208 556 l 208 694 l 625 694 l 625 556 l 764 556 l 764 139 l 625 139 m 69 0 l 69 139 l 625 139 l 625 0 l 69 0 z "},"И":{"ha":833,"x_min":69,"x_max":764,"o":"m 486 556 l 486 417 l 347 417 l 347 556 l 486 556 m 208 972 l 208 417 l 347 417 l 347 278 l 208 278 l 208 0 l 69 0 l 69 972 l 208 972 m 764 972 l 764 0 l 625 0 l 625 556 l 486 556 l 486 694 l 625 694 l 625 972 l 764 972 z "},"Й":{"ha":833,"x_min":69,"x_max":764,"o":"m 278 972 l 278 1111 l 139 1111 l 139 1250 l 278 1250 l 278 1111 l 556 1111 l 556 972 l 278 972 m 556 1111 l 556 1250 l 694 1250 l 694 1111 l 556 1111 m 208 972 l 208 556 l 347 556 l 347 417 l 208 417 l 208 0 l 69 0 l 69 972 l 208 972 m 764 972 l 764 0 l 625 0 l 625 694 l 486 694 l 486 833 l 625 833 l 625 972 l 764 972 m 486 694 l 486 556 l 347 556 l 347 694 l 486 694 z "},"К":{"ha":833,"x_min":69,"x_max":764,"o":"m 625 0 l 625 417 l 486 417 l 486 556 l 208 556 l 208 0 l 69 0 l 69 972 l 208 972 l 208 694 l 486 694 l 486 556 l 625 556 l 625 417 l 764 417 l 764 0 l 625 0 m 625 833 l 625 972 l 764 972 l 764 833 l 625 833 m 486 694 l 486 833 l 625 833 l 625 694 l 486 694 z "},"Л":{"ha":833,"x_min":69,"x_max":764,"o":"m 347 139 l 208 139 l 208 972 l 764 972 l 764 0 l 625 0 l 625 833 l 347 833 l 347 139 m 69 139 l 208 139 l 208 0 l 69 0 l 69 139 z "},"М":{"ha":833,"x_min":69,"x_max":764,"o":"m 347 556 l 347 694 l 208 694 l 208 0 l 69 0 l 69 972 l 208 972 l 208 833 l 347 833 l 347 694 l 486 694 l 486 556 l 347 556 m 625 833 l 625 972 l 764 972 l 764 0 l 625 0 l 625 694 l 486 694 l 486 833 l 625 833 z "},"Н":{"ha":833,"x_min":69,"x_max":764,"o":"m 69 0 l 69 972 l 208 972 l 208 694 l 625 694 l 625 972 l 764 972 l 764 0 l 625 0 l 625 556 l 208 556 l 208 0 l 69 0 z "},"О":{"ha":833,"x_min":69,"x_max":764,"o":"m 625 139 l 625 833 l 208 833 l 208 972 l 625 972 l 625 833 l 764 833 l 764 139 l 625 139 m 208 0 l 208 139 l 69 139 l 69 833 l 208 833 l 208 139 l 625 139 l 625 0 l 208 0 z "},"П":{"ha":833,"x_min":69,"x_max":764,"o":"m 69 0 l 69 972 l 764 972 l 764 0 l 625 0 l 625 833 l 208 833 l 208 0 l 69 0 z "},"Р":{"ha":833,"x_min":69,"x_max":764,"o":"m 625 694 l 625 556 l 208 556 l 208 0 l 69 0 l 69 972 l 625 972 l 625 833 l 764 833 l 764 694 l 625 694 l 625 833 l 208 833 l 208 694 l 625 694 z "},"С":{"ha":833,"x_min":69,"x_max":764,"o":"m 625 694 l 625 833 l 208 833 l 208 972 l 625 972 l 625 833 l 764 833 l 764 694 l 625 694 m 208 0 l 208 139 l 69 139 l 69 833 l 208 833 l 208 139 l 625 139 l 625 0 l 208 0 m 625 139 l 625 278 l 764 278 l 764 139 l 625 139 z "},"Т":{"ha":833,"x_min":69,"x_max":764,"o":"m 69 833 l 69 972 l 764 972 l 764 833 l 486 833 l 486 0 l 347 0 l 347 833 l 69 833 z "},"У":{"ha":833,"x_min":69,"x_max":764,"o":"m 208 417 l 208 556 l 69 556 l 69 972 l 208 972 l 208 556 l 347 556 l 347 417 l 486 417 l 486 278 l 347 278 l 347 417 l 208 417 m 625 556 l 625 972 l 764 972 l 764 556 l 625 556 m 208 139 l 208 278 l 347 278 l 347 139 l 208 139 m 486 417 l 486 556 l 625 556 l 625 417 l 486 417 m 69 0 l 69 139 l 208 139 l 208 0 l 69 0 z "},"Ф":{"ha":833,"x_min":69,"x_max":764,"o":"m 625 278 l 625 139 l 486 139 l 486 0 l 347 0 l 347 139 l 208 139 l 208 278 l 69 278 l 69 694 l 208 694 l 208 278 l 347 278 l 347 694 l 208 694 l 208 833 l 347 833 l 347 972 l 486 972 l 486 833 l 625 833 l 625 694 l 764 694 l 764 278 l 625 278 l 625 694 l 486 694 l 486 278 l 625 278 z "},"Х":{"ha":833,"x_min":69,"x_max":764,"o":"m 208 694 l 208 833 l 69 833 l 69 972 l 208 972 l 208 833 l 347 833 l 347 694 l 486 694 l 486 556 l 625 556 l 625 417 l 764 417 l 764 0 l 625 0 l 625 417 l 486 417 l 486 556 l 347 556 l 347 694 l 208 694 m 625 833 l 625 972 l 764 972 l 764 833 l 625 833 m 486 694 l 486 833 l 625 833 l 625 694 l 486 694 m 208 417 l 208 556 l 347 556 l 347 417 l 208 417 m 69 0 l 69 417 l 208 417 l 208 0 l 69 0 z "},"Ц":{"ha":833,"x_min":69,"x_max":764,"o":"m 625 -139 l 625 0 l 69 0 l 69 972 l 208 972 l 208 139 l 556 139 l 556 972 l 694 972 l 694 139 l 764 139 l 764 -139 l 625 -139 z "},"Ч":{"ha":833,"x_min":69,"x_max":764,"o":"m 208 417 l 208 556 l 69 556 l 69 972 l 208 972 l 208 556 l 625 556 l 625 972 l 764 972 l 764 0 l 625 0 l 625 417 l 208 417 z "},"Ш":{"ha":833,"x_min":69,"x_max":764,"o":"m 347 139 l 347 972 l 486 972 l 486 139 l 625 139 l 625 972 l 764 972 l 764 0 l 69 0 l 69 972 l 208 972 l 208 139 l 347 139 z "},"Щ":{"ha":903,"x_min":69,"x_max":833,"o":"m 347 139 l 347 972 l 486 972 l 486 139 l 625 139 l 625 972 l 764 972 l 764 139 l 833 139 l 833 -139 l 694 -139 l 694 0 l 69 0 l 69 972 l 208 972 l 208 139 l 347 139 z "},"Ъ":{"ha":972,"x_min":69,"x_max":903,"o":"m 764 139 l 764 417 l 486 417 l 486 139 l 764 139 l 764 0 l 347 0 l 347 833 l 69 833 l 69 972 l 486 972 l 486 556 l 764 556 l 764 417 l 903 417 l 903 139 l 764 139 z "},"Ы":{"ha":972,"x_min":69,"x_max":903,"o":"m 486 139 l 486 0 l 69 0 l 69 972 l 208 972 l 208 556 l 486 556 l 486 417 l 625 417 l 625 139 l 486 139 l 486 417 l 208 417 l 208 139 l 486 139 m 903 972 l 903 0 l 764 0 l 764 972 l 903 972 z "},"Ь":{"ha":833,"x_min":69,"x_max":764,"o":"m 625 139 l 625 0 l 69 0 l 69 972 l 208 972 l 208 556 l 625 556 l 625 417 l 764 417 l 764 139 l 625 139 l 625 417 l 208 417 l 208 139 l 625 139 z "},"Э":{"ha":833,"x_min":69,"x_max":764,"o":"m 764 833 l 764 139 l 625 139 l 625 417 l 347 417 l 347 556 l 625 556 l 625 833 l 208 833 l 208 972 l 625 972 l 625 833 l 764 833 m 208 833 l 208 694 l 69 694 l 69 833 l 208 833 m 208 278 l 208 139 l 625 139 l 625 0 l 208 0 l 208 139 l 69 139 l 69 278 l 208 278 z "},"Ю":{"ha":972,"x_min":69,"x_max":903,"o":"m 347 139 l 347 417 l 208 417 l 208 0 l 69 0 l 69 972 l 208 972 l 208 556 l 347 556 l 347 833 l 486 833 l 486 139 l 764 139 l 764 0 l 486 0 l 486 139 l 347 139 m 764 139 l 764 833 l 486 833 l 486 972 l 764 972 l 764 833 l 903 833 l 903 139 l 764 139 z "},"Я":{"ha":833,"x_min":69,"x_max":764,"o":"m 764 972 l 764 0 l 625 0 l 625 556 l 208 556 l 208 694 l 69 694 l 69 833 l 208 833 l 208 972 l 764 972 m 208 833 l 208 694 l 625 694 l 625 833 l 208 833 m 208 556 l 208 0 l 69 0 l 69 556 l 208 556 z "},"а":{"ha":833,"x_min":69,"x_max":764,"o":"m 625 417 l 625 556 l 208 556 l 208 694 l 625 694 l 625 556 l 764 556 l 764 0 l 208 0 l 208 139 l 69 139 l 69 278 l 208 278 l 208 139 l 625 139 l 625 278 l 208 278 l 208 417 l 625 417 z "},"б":{"ha":833,"x_min":69,"x_max":764,"o":"m 625 833 l 208 833 l 208 972 l 625 972 l 625 833 m 625 139 l 625 0 l 208 0 l 208 139 l 69 139 l 69 833 l 208 833 l 208 556 l 625 556 l 625 417 l 764 417 l 764 139 l 625 139 l 625 417 l 208 417 l 208 139 l 625 139 z "},"в":{"ha":833,"x_min":69,"x_max":764,"o":"m 625 139 l 625 278 l 208 278 l 208 139 l 625 139 l 625 0 l 69 0 l 69 694 l 625 694 l 625 556 l 764 556 l 764 417 l 625 417 l 625 556 l 208 556 l 208 417 l 625 417 l 625 278 l 764 278 l 764 139 l 625 139 z "},"г":{"ha":764,"x_min":69,"x_max":694,"o":"m 69 0 l 69 694 l 694 694 l 694 556 l 208 556 l 208 0 l 69 0 z "},"д":{"ha":903,"x_min":69,"x_max":833,"o":"m 139 278 l 278 278 l 278 139 l 625 139 l 625 556 l 417 556 l 417 278 l 278 278 l 278 694 l 764 694 l 764 139 l 833 139 l 833 -139 l 694 -139 l 694 0 l 208 0 l 208 -139 l 69 -139 l 69 139 l 139 139 l 139 278 z "},"е":{"ha":833,"x_min":69,"x_max":764,"o":"m 69 139 l 69 556 l 208 556 l 208 694 l 625 694 l 625 556 l 764 556 l 764 278 l 208 278 l 208 139 l 764 139 l 764 0 l 208 0 l 208 139 l 69 139 m 208 556 l 208 417 l 625 417 l 625 556 l 208 556 z "},"ж":{"ha":1111,"x_min":69,"x_max":1042,"o":"m 764 139 l 764 278 l 625 278 l 625 0 l 486 0 l 486 278 l 347 278 l 347 417 l 208 417 l 208 556 l 69 556 l 69 694 l 208 694 l 208 556 l 347 556 l 347 417 l 486 417 l 486 694 l 625 694 l 625 417 l 764 417 l 764 278 l 903 278 l 903 139 l 1042 139 l 1042 0 l 903 0 l 903 139 l 764 139 m 903 556 l 903 694 l 1042 694 l 1042 556 l 903 556 m 764 417 l 764 556 l 903 556 l 903 417 l 764 417 m 347 278 l 347 139 l 208 139 l 208 278 l 347 278 m 208 139 l 208 0 l 69 0 l 69 139 l 208 139 z "},"з":{"ha":833,"x_min":69,"x_max":764,"o":"m 764 556 l 764 417 l 625 417 l 625 556 l 69 556 l 69 694 l 625 694 l 625 556 l 764 556 m 625 417 l 625 278 l 764 278 l 764 139 l 625 139 l 625 278 l 208 278 l 208 417 l 625 417 m 625 139 l 625 0 l 69 0 l 69 139 l 625 139 z "},"и":{"ha":833,"x_min":69,"x_max":764,"o":"m 486 417 l 486 278 l 347 278 l 347 417 l 486 417 m 208 694 l 208 278 l 347 278 l 347 139 l 208 139 l 208 0 l 69 0 l 69 694 l 208 694 m 764 694 l 764 0 l 625 0 l 625 417 l 486 417 l 486 556 l 625 556 l 625 694 l 764 694 z "},"й":{"ha":833,"x_min":69,"x_max":764,"o":"m 278 694 l 278 833 l 139 833 l 139 972 l 278 972 l 278 833 l 556 833 l 556 694 l 278 694 m 556 833 l 556 972 l 694 972 l 694 833 l 556 833 m 208 694 l 208 278 l 347 278 l 347 139 l 208 139 l 208 0 l 69 0 l 69 694 l 208 694 m 486 417 l 486 556 l 625 556 l 625 694 l 764 694 l 764 0 l 625 0 l 625 417 l 486 417 m 347 278 l 347 417 l 486 417 l 486 278 l 347 278 z "},"к":{"ha":694,"x_min":69,"x_max":625,"o":"m 347 139 l 347 278 l 208 278 l 208 0 l 69 0 l 69 694 l 208 694 l 208 417 l 347 417 l 347 278 l 486 278 l 486 139 l 625 139 l 625 0 l 486 0 l 486 139 l 347 139 m 347 417 l 347 556 l 486 556 l 486 417 l 347 417 m 486 556 l 486 694 l 625 694 l 625 556 l 486 556 z "},"л":{"ha":833,"x_min":69,"x_max":764,"o":"m 347 139 l 208 139 l 208 694 l 764 694 l 764 0 l 625 0 l 625 556 l 347 556 l 347 139 m 69 139 l 208 139 l 208 0 l 69 0 l 69 139 z "},"м":{"ha":833,"x_min":69,"x_max":764,"o":"m 347 278 l 347 417 l 208 417 l 208 0 l 69 0 l 69 694 l 208 694 l 208 556 l 347 556 l 347 417 l 486 417 l 486 278 l 347 278 m 625 556 l 625 694 l 764 694 l 764 0 l 625 0 l 625 417 l 486 417 l 486 556 l 625 556 z "},"н":{"ha":833,"x_min":69,"x_max":764,"o":"m 625 0 l 625 278 l 208 278 l 208 0 l 69 0 l 69 694 l 208 694 l 208 417 l 625 417 l 625 694 l 764 694 l 764 0 l 625 0 z "},"о":{"ha":833,"x_min":69,"x_max":764,"o":"m 625 139 l 625 556 l 208 556 l 208 694 l 625 694 l 625 556 l 764 556 l 764 139 l 625 139 m 208 0 l 208 139 l 69 139 l 69 556 l 208 556 l 208 139 l 625 139 l 625 0 l 208 0 z "},"п":{"ha":833,"x_min":69,"x_max":764,"o":"m 625 0 l 625 556 l 208 556 l 208 0 l 69 0 l 69 694 l 764 694 l 764 0 l 625 0 z "},"р":{"ha":833,"x_min":69,"x_max":764,"o":"m 69 -139 l 69 694 l 208 694 l 208 556 l 347 556 l 347 417 l 208 417 l 208 278 l 625 278 l 625 139 l 208 139 l 208 -139 l 69 -139 m 625 278 l 625 556 l 347 556 l 347 694 l 625 694 l 625 556 l 764 556 l 764 278 l 625 278 z "},"с":{"ha":833,"x_min":69,"x_max":764,"o":"m 625 417 l 625 556 l 208 556 l 208 694 l 625 694 l 625 556 l 764 556 l 764 417 l 625 417 m 208 0 l 208 139 l 69 139 l 69 556 l 208 556 l 208 139 l 625 139 l 625 0 l 208 0 m 625 139 l 625 278 l 764 278 l 764 139 l 625 139 z "},"т":{"ha":833,"x_min":69,"x_max":764,"o":"m 347 0 l 347 556 l 69 556 l 69 694 l 764 694 l 764 556 l 486 556 l 486 0 l 347 0 z "},"у":{"ha":833,"x_min":69,"x_max":764,"o":"m 208 139 l 208 278 l 69 278 l 69 694 l 208 694 l 208 278 l 347 278 l 347 139 l 486 139 l 486 0 l 347 0 l 347 139 l 208 139 m 625 278 l 625 694 l 764 694 l 764 278 l 625 278 m 208 -139 l 208 0 l 347 0 l 347 -139 l 208 -139 m 486 139 l 486 278 l 625 278 l 625 139 l 486 139 m 69 -139 l 69 0 l 208 0 l 208 -139 l 69 -139 z "},"ф":{"ha":833,"x_min":69,"x_max":764,"o":"m 625 139 l 625 0 l 486 0 l 486 -139 l 347 -139 l 347 0 l 208 0 l 208 139 l 69 139 l 69 556 l 208 556 l 208 139 l 347 139 l 347 556 l 208 556 l 208 694 l 347 694 l 347 972 l 486 972 l 486 694 l 625 694 l 625 556 l 764 556 l 764 139 l 625 139 l 625 556 l 486 556 l 486 139 l 625 139 z "},"х":{"ha":833,"x_min":69,"x_max":764,"o":"m 208 417 l 208 556 l 69 556 l 69 694 l 208 694 l 208 556 l 347 556 l 347 417 l 486 417 l 486 278 l 625 278 l 625 139 l 764 139 l 764 0 l 625 0 l 625 139 l 486 139 l 486 278 l 347 278 l 347 417 l 208 417 m 625 556 l 625 694 l 764 694 l 764 556 l 625 556 m 486 417 l 486 556 l 625 556 l 625 417 l 486 417 m 208 139 l 208 278 l 347 278 l 347 139 l 208 139 m 69 0 l 69 139 l 208 139 l 208 0 l 69 0 z "},"ц":{"ha":833,"x_min":69,"x_max":764,"o":"m 625 -139 l 625 0 l 69 0 l 69 694 l 208 694 l 208 139 l 556 139 l 556 694 l 694 694 l 694 139 l 764 139 l 764 -139 l 625 -139 z "},"ч":{"ha":833,"x_min":69,"x_max":764,"o":"m 764 0 l 625 0 l 625 278 l 208 278 l 208 417 l 69 417 l 69 694 l 208 694 l 208 417 l 625 417 l 625 694 l 764 694 l 764 0 z "},"ш":{"ha":833,"x_min":69,"x_max":764,"o":"m 625 139 l 625 694 l 764 694 l 764 0 l 69 0 l 69 694 l 208 694 l 208 139 l 347 139 l 347 694 l 486 694 l 486 139 l 625 139 z "},"щ":{"ha":903,"x_min":69,"x_max":833,"o":"m 694 -139 l 694 0 l 69 0 l 69 694 l 208 694 l 208 139 l 347 139 l 347 694 l 486 694 l 486 139 l 625 139 l 625 694 l 764 694 l 764 139 l 833 139 l 833 -139 l 694 -139 z "},"ъ":{"ha":972,"x_min":69,"x_max":903,"o":"m 764 139 l 764 0 l 347 0 l 347 556 l 69 556 l 69 694 l 486 694 l 486 417 l 764 417 l 764 278 l 903 278 l 903 139 l 764 139 l 764 278 l 486 278 l 486 139 l 764 139 z "},"ы":{"ha":972,"x_min":69,"x_max":903,"o":"m 486 139 l 486 0 l 69 0 l 69 694 l 208 694 l 208 417 l 486 417 l 486 278 l 625 278 l 625 139 l 486 139 l 486 278 l 208 278 l 208 139 l 486 139 m 764 0 l 764 694 l 903 694 l 903 0 l 764 0 z "},"ь":{"ha":833,"x_min":69,"x_max":764,"o":"m 625 139 l 625 0 l 69 0 l 69 694 l 208 694 l 208 417 l 625 417 l 625 278 l 764 278 l 764 139 l 625 139 l 625 278 l 208 278 l 208 139 l 625 139 z "},"э":{"ha":833,"x_min":69,"x_max":764,"o":"m 625 694 l 625 556 l 764 556 l 764 139 l 625 139 l 625 278 l 347 278 l 347 417 l 625 417 l 625 556 l 208 556 l 208 694 l 625 694 m 208 556 l 208 417 l 69 417 l 69 556 l 208 556 m 208 278 l 208 139 l 625 139 l 625 0 l 208 0 l 208 139 l 69 139 l 69 278 l 208 278 z "},"ю":{"ha":972,"x_min":69,"x_max":903,"o":"m 347 139 l 347 278 l 208 278 l 208 0 l 69 0 l 69 694 l 208 694 l 208 417 l 347 417 l 347 556 l 486 556 l 486 139 l 764 139 l 764 0 l 486 0 l 486 139 l 347 139 m 764 139 l 764 556 l 486 556 l 486 694 l 764 694 l 764 556 l 903 556 l 903 139 l 764 139 z "},"я":{"ha":833,"x_min":69,"x_max":764,"o":"m 764 694 l 764 0 l 625 0 l 625 278 l 208 278 l 208 417 l 69 417 l 69 556 l 208 556 l 208 694 l 764 694 m 208 556 l 208 417 l 625 417 l 625 556 l 208 556 m 208 278 l 208 0 l 69 0 l 69 278 l 208 278 z "},"ѐ":{"ha":833,"x_min":69,"x_max":764,"o":"m 69 139 l 69 556 l 208 556 l 208 694 l 347 694 l 347 833 l 208 833 l 208 972 l 347 972 l 347 833 l 486 833 l 486 694 l 625 694 l 625 556 l 764 556 l 764 278 l 208 278 l 208 139 l 764 139 l 764 0 l 208 0 l 208 139 l 69 139 m 208 556 l 208 417 l 625 417 l 625 556 l 208 556 z "},"ё":{"ha":833,"x_min":69,"x_max":764,"o":"m 625 972 l 625 833 l 486 833 l 486 972 l 625 972 m 347 972 l 347 833 l 208 833 l 208 972 l 347 972 m 69 139 l 69 556 l 208 556 l 208 694 l 625 694 l 625 556 l 764 556 l 764 278 l 208 278 l 208 139 l 764 139 l 764 0 l 208 0 l 208 139 l 69 139 m 208 556 l 208 417 l 625 417 l 625 556 l 208 556 z "},"ђ":{"ha":903,"x_min":0,"x_max":833,"o":"m 0 694 l 0 833 l 139 833 l 139 972 l 278 972 l 278 833 l 556 833 l 556 694 l 278 694 l 278 417 l 417 417 l 417 278 l 278 278 l 278 0 l 139 0 l 139 694 l 0 694 m 694 0 l 694 417 l 417 417 l 417 556 l 694 556 l 694 417 l 833 417 l 833 0 l 694 0 m 417 -139 l 417 0 l 694 0 l 694 -139 l 417 -139 z "},"ѓ":{"ha":764,"x_min":69,"x_max":694,"o":"m 590 972 l 590 833 l 451 833 l 451 972 l 590 972 m 69 0 l 69 694 l 313 694 l 313 833 l 451 833 l 451 694 l 694 694 l 694 556 l 208 556 l 208 0 l 69 0 z "},"є":{"ha":833,"x_min":69,"x_max":764,"o":"m 625 417 l 625 556 l 208 556 l 208 694 l 625 694 l 625 556 l 764 556 l 764 417 l 625 417 m 208 0 l 208 139 l 69 139 l 69 556 l 208 556 l 208 417 l 486 417 l 486 278 l 208 278 l 208 139 l 625 139 l 625 0 l 208 0 m 625 139 l 625 278 l 764 278 l 764 139 l 625 139 z "},"ѕ":{"ha":833,"x_min":69,"x_max":764,"o":"m 208 556 l 208 694 l 764 694 l 764 556 l 208 556 m 208 278 l 208 417 l 69 417 l 69 556 l 208 556 l 208 417 l 625 417 l 625 278 l 764 278 l 764 139 l 625 139 l 625 278 l 208 278 m 69 0 l 69 139 l 625 139 l 625 0 l 69 0 z "},"і":{"ha":278,"x_min":69,"x_max":208,"o":"m 69 833 l 69 972 l 208 972 l 208 833 l 69 833 m 69 0 l 69 694 l 208 694 l 208 0 l 69 0 z "},"ї":{"ha":278,"x_min":-69,"x_max":347,"o":"m 347 972 l 347 833 l 208 833 l 208 972 l 347 972 m 69 972 l 69 833 l -69 833 l -69 972 l 69 972 m 69 0 l 69 694 l 208 694 l 208 0 l 69 0 z "},"ј":{"ha":833,"x_min":69,"x_max":764,"o":"m 625 833 l 625 972 l 764 972 l 764 833 l 625 833 m 625 0 l 625 694 l 764 694 l 764 0 l 625 0 m 208 -139 l 208 0 l 69 0 l 69 278 l 208 278 l 208 0 l 625 0 l 625 -139 l 208 -139 z "},"љ":{"ha":1250,"x_min":69,"x_max":1181,"o":"m 1042 139 l 1042 0 l 625 0 l 625 556 l 347 556 l 347 139 l 208 139 l 208 694 l 764 694 l 764 417 l 1042 417 l 1042 278 l 1181 278 l 1181 139 l 1042 139 l 1042 278 l 764 278 l 764 139 l 1042 139 m 69 139 l 208 139 l 208 0 l 69 0 l 69 139 z "},"њ":{"ha":1111,"x_min":69,"x_max":1042,"o":"m 903 139 l 903 0 l 486 0 l 486 278 l 208 278 l 208 0 l 69 0 l 69 694 l 208 694 l 208 417 l 486 417 l 486 694 l 625 694 l 625 417 l 903 417 l 903 278 l 1042 278 l 1042 139 l 903 139 l 903 278 l 625 278 l 625 139 l 903 139 z "},"ћ":{"ha":903,"x_min":0,"x_max":833,"o":"m 0 694 l 0 833 l 139 833 l 139 972 l 278 972 l 278 833 l 556 833 l 556 694 l 278 694 l 278 417 l 417 417 l 417 278 l 278 278 l 278 0 l 139 0 l 139 694 l 0 694 m 694 0 l 694 417 l 417 417 l 417 556 l 694 556 l 694 417 l 833 417 l 833 0 l 694 0 z "},"ќ":{"ha":694,"x_min":69,"x_max":625,"o":"m 556 972 l 556 833 l 417 833 l 417 972 l 556 972 m 417 833 l 417 694 l 278 694 l 278 833 l 417 833 m 347 139 l 347 278 l 208 278 l 208 0 l 69 0 l 69 694 l 208 694 l 208 417 l 347 417 l 347 278 l 486 278 l 486 139 l 625 139 l 625 0 l 486 0 l 486 139 l 347 139 m 486 556 l 486 694 l 625 694 l 625 556 l 486 556 m 347 417 l 347 556 l 486 556 l 486 417 l 347 417 z "},"ѝ":{"ha":833,"x_min":69,"x_max":764,"o":"m 347 694 l 347 833 l 208 833 l 208 972 l 347 972 l 347 833 l 486 833 l 486 694 l 347 694 m 208 694 l 208 278 l 347 278 l 347 139 l 208 139 l 208 0 l 69 0 l 69 694 l 208 694 m 486 417 l 486 556 l 625 556 l 625 694 l 764 694 l 764 0 l 625 0 l 625 417 l 486 417 m 347 278 l 347 417 l 486 417 l 486 278 l 347 278 z "},"ў":{"ha":833,"x_min":69,"x_max":764,"o":"m 278 694 l 278 833 l 139 833 l 139 972 l 278 972 l 278 833 l 556 833 l 556 694 l 278 694 m 556 833 l 556 972 l 694 972 l 694 833 l 556 833 m 208 139 l 208 278 l 69 278 l 69 694 l 208 694 l 208 278 l 347 278 l 347 139 l 486 139 l 486 0 l 347 0 l 347 139 l 208 139 m 625 278 l 625 694 l 764 694 l 764 278 l 625 278 m 486 139 l 486 278 l 625 278 l 625 139 l 486 139 m 69 -139 l 69 0 l 347 0 l 347 -139 l 69 -139 z "},"џ":{"ha":833,"x_min":69,"x_max":764,"o":"m 347 -139 l 347 0 l 69 0 l 69 694 l 208 694 l 208 139 l 625 139 l 625 694 l 764 694 l 764 0 l 486 0 l 486 -139 l 347 -139 z "},"Ґ":{"ha":833,"x_min":69,"x_max":764,"o":"m 764 1250 l 764 833 l 208 833 l 208 0 l 69 0 l 69 972 l 625 972 l 625 1250 l 764 1250 z "},"ґ":{"ha":764,"x_min":69,"x_max":694,"o":"m 69 0 l 69 694 l 556 694 l 556 972 l 694 972 l 694 556 l 208 556 l 208 0 l 69 0 z "},"Ḃ":{"ha":833,"x_min":69,"x_max":764,"o":"m 347 1111 l 347 1250 l 486 1250 l 486 1111 l 347 1111 m 625 139 l 625 556 l 208 556 l 208 139 l 625 139 l 625 0 l 69 0 l 69 972 l 625 972 l 625 833 l 764 833 l 764 694 l 625 694 l 625 833 l 208 833 l 208 694 l 625 694 l 625 556 l 764 556 l 764 139 l 625 139 z "},"ḃ":{"ha":833,"x_min":69,"x_max":764,"o":"m 69 0 l 69 972 l 208 972 l 208 556 l 347 556 l 347 417 l 208 417 l 208 139 l 625 139 l 625 0 l 69 0 m 486 833 l 486 972 l 625 972 l 625 833 l 486 833 m 625 139 l 625 556 l 347 556 l 347 694 l 625 694 l 625 556 l 764 556 l 764 139 l 625 139 z "},"Ḋ":{"ha":833,"x_min":69,"x_max":764,"o":"m 347 1111 l 347 1250 l 486 1250 l 486 1111 l 347 1111 m 625 139 l 625 833 l 208 833 l 208 139 l 625 139 l 625 0 l 69 0 l 69 972 l 625 972 l 625 833 l 764 833 l 764 139 l 625 139 z "},"ḋ":{"ha":833,"x_min":69,"x_max":764,"o":"m 208 556 l 208 694 l 486 694 l 486 556 l 625 556 l 625 972 l 764 972 l 764 0 l 208 0 l 208 139 l 69 139 l 69 556 l 208 556 l 208 139 l 625 139 l 625 417 l 486 417 l 486 556 l 208 556 m 278 833 l 278 972 l 417 972 l 417 833 l 278 833 z "},"Ḟ":{"ha":833,"x_min":69,"x_max":764,"o":"m 347 1111 l 347 1250 l 486 1250 l 486 1111 l 347 1111 m 69 0 l 69 972 l 764 972 l 764 833 l 208 833 l 208 694 l 486 694 l 486 556 l 208 556 l 208 0 l 69 0 z "},"ḟ":{"ha":694,"x_min":69,"x_max":625,"o":"m 417 972 l 417 1111 l 556 1111 l 556 972 l 625 972 l 625 833 l 347 833 l 347 972 l 417 972 m 208 694 l 208 833 l 347 833 l 347 694 l 625 694 l 625 556 l 347 556 l 347 0 l 208 0 l 208 556 l 69 556 l 69 694 l 208 694 z "},"Ḣ":{"ha":833,"x_min":69,"x_max":764,"o":"m 347 1111 l 347 1250 l 486 1250 l 486 1111 l 347 1111 m 69 0 l 69 972 l 208 972 l 208 694 l 625 694 l 625 972 l 764 972 l 764 0 l 625 0 l 625 556 l 208 556 l 208 0 l 69 0 z "},"ḣ":{"ha":833,"x_min":69,"x_max":764,"o":"m 69 0 l 69 972 l 208 972 l 208 556 l 347 556 l 347 417 l 208 417 l 208 0 l 69 0 m 417 833 l 417 972 l 556 972 l 556 833 l 417 833 m 625 0 l 625 556 l 347 556 l 347 694 l 625 694 l 625 556 l 764 556 l 764 0 l 625 0 z "},"Ḱ":{"ha":833,"x_min":69,"x_max":764,"o":"m 590 1250 l 590 1111 l 451 1111 l 451 1250 l 590 1250 m 451 1111 l 451 972 l 313 972 l 313 1111 l 451 1111 m 625 0 l 625 417 l 486 417 l 486 556 l 208 556 l 208 0 l 69 0 l 69 972 l 208 972 l 208 694 l 486 694 l 486 556 l 625 556 l 625 417 l 764 417 l 764 0 l 625 0 m 625 833 l 625 972 l 764 972 l 764 833 l 625 833 m 486 694 l 486 833 l 625 833 l 625 694 l 486 694 z "},"ḱ":{"ha":694,"x_min":69,"x_max":625,"o":"m 556 1250 l 556 1111 l 417 1111 l 417 1250 l 556 1250 m 417 1111 l 417 972 l 278 972 l 278 1111 l 417 1111 m 347 139 l 347 278 l 208 278 l 208 0 l 69 0 l 69 972 l 208 972 l 208 417 l 347 417 l 347 278 l 486 278 l 486 139 l 625 139 l 625 0 l 486 0 l 486 139 l 347 139 m 486 556 l 486 694 l 625 694 l 625 556 l 486 556 m 347 417 l 347 556 l 486 556 l 486 417 l 347 417 z "},"Ṁ":{"ha":833,"x_min":69,"x_max":764,"o":"m 347 1111 l 347 1250 l 486 1250 l 486 1111 l 347 1111 m 347 556 l 347 694 l 208 694 l 208 0 l 69 0 l 69 972 l 208 972 l 208 833 l 347 833 l 347 694 l 486 694 l 486 556 l 347 556 m 625 833 l 625 972 l 764 972 l 764 0 l 625 0 l 625 694 l 486 694 l 486 833 l 625 833 z "},"ṁ":{"ha":833,"x_min":69,"x_max":764,"o":"m 347 833 l 347 972 l 486 972 l 486 833 l 347 833 m 347 278 l 347 556 l 208 556 l 208 0 l 69 0 l 69 694 l 347 694 l 347 556 l 486 556 l 486 278 l 347 278 m 625 0 l 625 556 l 486 556 l 486 694 l 625 694 l 625 556 l 764 556 l 764 0 l 625 0 z "},"Ṗ":{"ha":833,"x_min":69,"x_max":764,"o":"m 347 1111 l 347 1250 l 486 1250 l 486 1111 l 347 1111 m 625 694 l 625 556 l 208 556 l 208 0 l 69 0 l 69 972 l 625 972 l 625 833 l 764 833 l 764 694 l 625 694 l 625 833 l 208 833 l 208 694 l 625 694 z "},"ṗ":{"ha":833,"x_min":69,"x_max":764,"o":"m 347 833 l 347 972 l 486 972 l 486 833 l 347 833 m 69 -139 l 69 694 l 208 694 l 208 556 l 347 556 l 347 417 l 208 417 l 208 278 l 625 278 l 625 139 l 208 139 l 208 -139 l 69 -139 m 625 278 l 625 556 l 347 556 l 347 694 l 625 694 l 625 556 l 764 556 l 764 278 l 625 278 z "},"Ṡ":{"ha":833,"x_min":69,"x_max":764,"o":"m 347 1111 l 347 1250 l 486 1250 l 486 1111 l 347 1111 m 208 833 l 208 972 l 764 972 l 764 833 l 208 833 m 208 556 l 208 694 l 69 694 l 69 833 l 208 833 l 208 694 l 625 694 l 625 556 l 764 556 l 764 139 l 625 139 l 625 556 l 208 556 m 208 0 l 208 139 l 69 139 l 69 278 l 208 278 l 208 139 l 625 139 l 625 0 l 208 0 z "},"ṡ":{"ha":833,"x_min":69,"x_max":764,"o":"m 347 833 l 347 972 l 486 972 l 486 833 l 347 833 m 208 556 l 208 694 l 764 694 l 764 556 l 208 556 m 208 278 l 208 417 l 69 417 l 69 556 l 208 556 l 208 417 l 625 417 l 625 278 l 764 278 l 764 139 l 625 139 l 625 278 l 208 278 m 69 0 l 69 139 l 625 139 l 625 0 l 69 0 z "},"Ṫ":{"ha":833,"x_min":69,"x_max":764,"o":"m 347 1111 l 347 1250 l 486 1250 l 486 1111 l 347 1111 m 69 833 l 69 972 l 764 972 l 764 833 l 486 833 l 486 0 l 347 0 l 347 833 l 69 833 z "},"ṫ":{"ha":556,"x_min":69,"x_max":486,"o":"m 208 1042 l 208 1181 l 347 1181 l 347 1042 l 208 1042 m 347 0 l 347 139 l 208 139 l 208 556 l 69 556 l 69 694 l 208 694 l 208 972 l 347 972 l 347 694 l 486 694 l 486 556 l 347 556 l 347 139 l 486 139 l 486 0 l 347 0 z "},"Ẁ":{"ha":833,"x_min":69,"x_max":764,"o":"m 347 972 l 347 1111 l 208 1111 l 208 1250 l 347 1250 l 347 1111 l 486 1111 l 486 972 l 347 972 m 347 278 l 347 417 l 486 417 l 486 278 l 625 278 l 625 972 l 764 972 l 764 0 l 625 0 l 625 139 l 486 139 l 486 278 l 347 278 m 69 0 l 69 972 l 208 972 l 208 278 l 347 278 l 347 139 l 208 139 l 208 0 l 69 0 z "},"ẁ":{"ha":833,"x_min":69,"x_max":764,"o":"m 347 694 l 347 833 l 208 833 l 208 972 l 347 972 l 347 833 l 486 833 l 486 694 l 347 694 m 625 139 l 625 694 l 764 694 l 764 0 l 208 0 l 208 139 l 69 139 l 69 694 l 208 694 l 208 139 l 347 139 l 347 417 l 486 417 l 486 139 l 625 139 z "},"Ẃ":{"ha":833,"x_min":69,"x_max":764,"o":"m 625 1250 l 625 1111 l 486 1111 l 486 1250 l 625 1250 m 486 1111 l 486 972 l 347 972 l 347 1111 l 486 1111 m 347 278 l 347 417 l 486 417 l 486 278 l 625 278 l 625 972 l 764 972 l 764 0 l 625 0 l 625 139 l 486 139 l 486 278 l 347 278 m 69 0 l 69 972 l 208 972 l 208 278 l 347 278 l 347 139 l 208 139 l 208 0 l 69 0 z "},"ẃ":{"ha":833,"x_min":69,"x_max":764,"o":"m 625 972 l 625 833 l 486 833 l 486 972 l 625 972 m 486 833 l 486 694 l 347 694 l 347 833 l 486 833 m 625 139 l 625 694 l 764 694 l 764 0 l 208 0 l 208 139 l 69 139 l 69 694 l 208 694 l 208 139 l 347 139 l 347 417 l 486 417 l 486 139 l 625 139 z "},"Ẅ":{"ha":833,"x_min":69,"x_max":764,"o":"m 625 1250 l 625 1111 l 486 1111 l 486 1250 l 625 1250 m 347 1250 l 347 1111 l 208 1111 l 208 1250 l 347 1250 m 347 278 l 347 417 l 486 417 l 486 278 l 625 278 l 625 972 l 764 972 l 764 0 l 625 0 l 625 139 l 486 139 l 486 278 l 347 278 m 69 0 l 69 972 l 208 972 l 208 278 l 347 278 l 347 139 l 208 139 l 208 0 l 69 0 z "},"ẅ":{"ha":833,"x_min":69,"x_max":764,"o":"m 625 972 l 625 833 l 486 833 l 486 972 l 625 972 m 347 972 l 347 833 l 208 833 l 208 972 l 347 972 m 625 139 l 625 694 l 764 694 l 764 0 l 208 0 l 208 139 l 69 139 l 69 694 l 208 694 l 208 139 l 347 139 l 347 417 l 486 417 l 486 139 l 625 139 z "},"ẞ":{"ha":833,"x_min":69,"x_max":764,"o":"m 764 694 l 625 694 l 625 833 l 208 833 l 208 972 l 625 972 l 625 833 l 764 833 l 764 694 m 208 0 l 69 0 l 69 833 l 208 833 l 208 0 m 486 694 l 625 694 l 625 556 l 486 556 l 486 694 m 486 417 l 347 417 l 347 556 l 486 556 l 486 417 m 486 417 l 625 417 l 625 278 l 764 278 l 764 139 l 625 139 l 625 278 l 486 278 l 486 417 m 625 0 l 313 0 l 313 139 l 625 139 l 625 0 z "},"Ỳ":{"ha":833,"x_min":69,"x_max":764,"o":"m 208 694 l 208 833 l 69 833 l 69 972 l 208 972 l 208 833 l 347 833 l 347 694 l 486 694 l 486 0 l 347 0 l 347 694 l 208 694 m 486 694 l 486 833 l 625 833 l 625 694 l 486 694 m 625 833 l 625 972 l 764 972 l 764 833 l 625 833 m 347 972 l 347 1111 l 208 1111 l 208 1250 l 347 1250 l 347 1111 l 486 1111 l 486 972 l 347 972 z "},"ỳ":{"ha":833,"x_min":69,"x_max":764,"o":"m 417 694 l 417 833 l 278 833 l 278 972 l 417 972 l 417 833 l 556 833 l 556 694 l 417 694 m 625 278 l 625 694 l 764 694 l 764 0 l 625 0 l 625 139 l 208 139 l 208 278 l 69 278 l 69 694 l 208 694 l 208 278 l 625 278 m 625 -139 l 69 -139 l 69 0 l 625 0 l 625 -139 z "},"–":{"ha":833,"x_min":69,"x_max":764,"o":"m 69 417 l 69 556 l 764 556 l 764 417 l 69 417 z "},"—":{"ha":1111,"x_min":69,"x_max":1042,"o":"m 69 417 l 69 556 l 1042 556 l 1042 417 l 69 417 z "},"―":{"ha":1389,"x_min":69,"x_max":1319,"o":"m 69 417 l 69 556 l 1319 556 l 1319 417 l 69 417 z "},"‘":{"ha":417,"x_min":69,"x_max":347,"o":"m 208 833 l 208 972 l 347 972 l 347 833 l 208 833 m 69 556 l 69 833 l 208 833 l 208 556 l 69 556 z "},"’":{"ha":417,"x_min":69,"x_max":347,"o":"m 208 694 l 208 972 l 347 972 l 347 694 l 208 694 m 69 556 l 69 694 l 208 694 l 208 556 l 69 556 z "},"‚":{"ha":417,"x_min":69,"x_max":347,"o":"m 208 0 l 208 278 l 347 278 l 347 0 l 208 0 m 69 -139 l 69 0 l 208 0 l 208 -139 l 69 -139 z "},"“":{"ha":694,"x_min":69,"x_max":625,"o":"m 347 972 l 347 833 l 486 833 l 486 556 l 347 556 l 347 833 l 208 833 l 208 972 l 347 972 m 625 972 l 625 833 l 486 833 l 486 972 l 625 972 m 208 833 l 208 556 l 69 556 l 69 833 l 208 833 z "},"”":{"ha":694,"x_min":69,"x_max":625,"o":"m 347 556 l 347 694 l 208 694 l 208 972 l 347 972 l 347 694 l 486 694 l 486 556 l 347 556 m 486 694 l 486 972 l 625 972 l 625 694 l 486 694 m 69 556 l 69 694 l 208 694 l 208 556 l 69 556 z "},"„":{"ha":694,"x_min":69,"x_max":625,"o":"m 347 -139 l 347 0 l 208 0 l 208 278 l 347 278 l 347 0 l 486 0 l 486 -139 l 347 -139 m 486 0 l 486 278 l 625 278 l 625 0 l 486 0 m 69 -139 l 69 0 l 208 0 l 208 -139 l 69 -139 z "},"†":{"ha":556,"x_min":69,"x_max":486,"o":"m 208 833 l 208 972 l 347 972 l 347 833 l 486 833 l 486 694 l 347 694 l 347 278 l 208 278 l 208 694 l 69 694 l 69 833 l 208 833 z "},"‡":{"ha":556,"x_min":69,"x_max":486,"o":"m 208 278 l 208 417 l 69 417 l 69 556 l 208 556 l 208 694 l 69 694 l 69 833 l 208 833 l 208 972 l 347 972 l 347 833 l 486 833 l 486 694 l 347 694 l 347 556 l 486 556 l 486 417 l 347 417 l 347 278 l 208 278 z "},"•":{"ha":417,"x_min":69,"x_max":347,"o":"m 69 278 l 69 556 l 347 556 l 347 278 l 69 278 z "},"…":{"ha":833,"x_min":69,"x_max":764,"o":"m 69 0 l 69 139 l 208 139 l 208 0 l 69 0 m 347 0 l 347 139 l 486 139 l 486 0 l 347 0 m 625 0 l 625 139 l 764 139 l 764 0 l 625 0 z "},"‰":{"ha":1111,"x_min":69,"x_max":1042,"o":"m 69 694 l 69 972 l 208 972 l 208 694 l 69 694 m 625 833 l 625 972 l 764 972 l 764 833 l 625 833 m 486 556 l 486 833 l 625 833 l 625 556 l 486 556 m 347 417 l 347 556 l 486 556 l 486 417 l 347 417 m 208 139 l 208 417 l 347 417 l 347 139 l 208 139 m 625 0 l 625 278 l 764 278 l 764 0 l 625 0 m 903 0 l 903 278 l 1042 278 l 1042 0 l 903 0 m 69 0 l 69 139 l 208 139 l 208 0 l 69 0 z "},"‹":{"ha":556,"x_min":69,"x_max":486,"o":"m 486 694 l 486 556 l 347 556 l 347 694 l 486 694 m 347 556 l 347 417 l 208 417 l 208 556 l 347 556 m 347 278 l 347 139 l 486 139 l 486 0 l 347 0 l 347 139 l 208 139 l 208 278 l 69 278 l 69 417 l 208 417 l 208 278 l 347 278 z "},"›":{"ha":556,"x_min":69,"x_max":486,"o":"m 208 556 l 347 556 l 347 417 l 486 417 l 486 278 l 347 278 l 347 417 l 208 417 l 208 556 l 69 556 l 69 694 l 208 694 l 208 556 m 208 278 l 347 278 l 347 139 l 208 139 l 208 278 m 69 139 l 208 139 l 208 0 l 69 0 l 69 139 z "},"⁄":{"ha":833,"x_min":69,"x_max":764,"o":"m 625 833 l 625 972 l 764 972 l 764 833 l 625 833 m 486 556 l 486 833 l 625 833 l 625 556 l 486 556 m 347 417 l 347 556 l 486 556 l 486 417 l 347 417 m 208 139 l 208 417 l 347 417 l 347 139 l 208 139 m 69 0 l 69 139 l 208 139 l 208 0 l 69 0 z "},"€":{"ha":694,"x_min":-69,"x_max":625,"o":"m 486 694 l 486 833 l 208 833 l 208 972 l 486 972 l 486 833 l 625 833 l 625 694 l 486 694 m 208 0 l 208 139 l 69 139 l 69 278 l -69 278 l -69 417 l 69 417 l 69 556 l -69 556 l -69 694 l 69 694 l 69 833 l 208 833 l 208 694 l 347 694 l 347 556 l 208 556 l 208 417 l 347 417 l 347 278 l 208 278 l 208 139 l 486 139 l 486 0 l 208 0 m 486 139 l 486 278 l 625 278 l 625 139 l 486 139 z "},"™":{"ha":1389,"x_min":69,"x_max":1319,"o":"m 903 556 l 903 833 l 764 833 l 764 556 l 625 556 l 625 972 l 903 972 l 903 833 l 1042 833 l 1042 556 l 903 556 m 69 833 l 69 972 l 486 972 l 486 833 l 347 833 l 347 556 l 208 556 l 208 833 l 69 833 m 1042 972 l 1319 972 l 1319 556 l 1181 556 l 1181 833 l 1042 833 l 1042 972 z "},"Ω":{"ha":833,"x_min":69,"x_max":764,"o":"m 625 278 l 625 833 l 208 833 l 208 972 l 625 972 l 625 833 l 764 833 l 764 278 l 625 278 m 69 0 l 69 139 l 208 139 l 208 278 l 69 278 l 69 833 l 208 833 l 208 278 l 347 278 l 347 0 l 69 0 m 764 0 l 486 0 l 486 278 l 625 278 l 625 139 l 764 139 l 764 0 z "},"∆":{"ha":833,"x_min":69,"x_max":764,"o":"m 69 0 l 69 556 l 208 556 l 208 139 l 625 139 l 625 556 l 486 556 l 486 833 l 347 833 l 347 972 l 486 972 l 486 833 l 625 833 l 625 556 l 764 556 l 764 0 l 69 0 m 208 556 l 208 833 l 347 833 l 347 556 l 208 556 z "},"∏":{"ha":833,"x_min":69,"x_max":764,"o":"m 69 0 l 69 972 l 764 972 l 764 0 l 625 0 l 625 833 l 208 833 l 208 0 l 69 0 z "},"∑":{"ha":833,"x_min":69,"x_max":764,"o":"m 347 417 l 347 556 l 208 556 l 208 694 l 69 694 l 69 972 l 764 972 l 764 833 l 208 833 l 208 694 l 347 694 l 347 556 l 486 556 l 486 417 l 347 417 m 208 278 l 208 417 l 347 417 l 347 278 l 208 278 m 69 0 l 69 278 l 208 278 l 208 139 l 764 139 l 764 0 l 69 0 z "},"−":{"ha":833,"x_min":69,"x_max":764,"o":"m 69 556 l 764 556 l 764 417 l 69 417 l 69 556 z "},"∞":{"ha":1111,"x_min":69,"x_max":1042,"o":"m 208 833 l 486 833 l 486 694 l 625 694 l 625 278 l 486 278 l 486 694 l 208 694 l 208 833 m 903 694 l 625 694 l 625 833 l 903 833 l 903 694 m 903 278 l 903 694 l 1042 694 l 1042 278 l 903 278 m 69 694 l 208 694 l 208 278 l 69 278 l 69 694 m 208 278 l 486 278 l 486 139 l 208 139 l 208 278 m 625 278 l 903 278 l 903 139 l 625 139 l 625 278 z "},"◊":{"ha":833,"x_min":69,"x_max":764,"o":"m 764 625 l 764 347 l 625 347 l 625 625 l 486 625 l 486 833 l 347 833 l 347 972 l 486 972 l 486 833 l 625 833 l 625 625 l 764 625 m 208 625 l 208 833 l 347 833 l 347 625 l 208 625 m 208 347 l 69 347 l 69 625 l 208 625 l 208 347 m 208 347 l 347 347 l 347 139 l 486 139 l 486 0 l 347 0 l 347 139 l 208 139 l 208 347 m 625 139 l 486 139 l 486 347 l 625 347 l 625 139 z "},"":{"ha":417,"x_min":139,"x_max":278,"o":"m 139 -139 l 139 0 l 278 0 l 278 -139 l 139 -139 z "},"":{"ha":1294,"x_min":86,"x_max":1207,"o":"m 772 0 l 522 0 l 399 622 l 647 868 l 897 622 l 772 0 m 460 0 l 250 0 l 86 211 l 193 414 l 399 313 l 460 0 m 1046 0 l 836 0 l 897 313 l 1103 414 l 1207 211 l 1046 0 z "},"ﬁ":{"ha":972,"x_min":69,"x_max":903,"o":"m 347 833 l 347 972 l 625 972 l 625 833 l 347 833 m 764 833 l 764 972 l 903 972 l 903 833 l 764 833 m 208 694 l 208 833 l 347 833 l 347 694 l 625 694 l 625 556 l 347 556 l 347 0 l 208 0 l 208 556 l 69 556 l 69 694 l 208 694 m 764 0 l 764 694 l 903 694 l 903 0 l 764 0 z "},"ﬂ":{"ha":1111,"x_min":69,"x_max":1042,"o":"m 347 833 l 347 972 l 625 972 l 625 833 l 347 833 m 903 0 l 903 139 l 764 139 l 764 972 l 903 972 l 903 139 l 1042 139 l 1042 0 l 903 0 m 208 694 l 208 833 l 347 833 l 347 694 l 625 694 l 625 556 l 347 556 l 347 0 l 208 0 l 208 556 l 69 556 l 69 694 l 208 694 z "}}}
